<?xml version="1.0" encoding="UTF-8"?>
<svg width="102px" height="37px" viewBox="0 0 102 37" version="1.1" xmlns="http://www.w3.org/2000/svg" xmlns:xlink="http://www.w3.org/1999/xlink">
    <!-- Generator: Sketch 48.1 (47250) - http://www.bohemiancoding.com/sketch -->
    <title>xy_logo</title>
    <desc>Created with Sketch.</desc>
    <defs></defs>
    <g id="Artboard" stroke="none" stroke-width="1" fill="none" fill-rule="evenodd">
        <g id="xy_logo">
            <path d="M5.04176904,37 C2.24078624,37 0,34.7632242 0,32.0604534 L0,4.9395466 C0,2.23677582 2.24078624,0 5.04176904,0 L32.958231,0 C35.7592138,0 38,2.23677582 38,4.9395466 L38,32.0604534 C38,34.7632242 35.6658477,37 32.958231,37 L5.04176904,37 Z" id="Fill-1" fill="#FFFFFF"></path>
            <g id="xiaoyun" transform="translate(45.000000, 28.000000)" fill="#FFFFFF">
                <path d="M6.08,5.9 L6.08,0.9 C6.08,0.9 6.08,0.8 6.175,0.8 L7.03,0.8 C7.03,0.8 7.125,0.8 7.125,0.9 L7.125,5.8 C7.125,5.8 7.125,5.9 7.03,5.9 L6.08,5.9 Z" id="Fill-3"></path>
                <path d="M10.925,1.7 C10.925,1.7 10.83,1.7 10.83,1.8 L9.975,3.7 L9.975,3.8 L10.07,3.8 L11.78,3.8 L11.875,3.8 L11.875,3.7 L11.02,1.8 C11.02,1.7 11.02,1.7 10.925,1.7 Z M12.92,5.9 C12.92,5.9 12.825,5.9 12.92,5.9 L12.35,4.8 L12.255,4.7 L9.5,4.7 C9.5,4.7 9.405,4.7 9.405,4.8 L8.93,5.9 C8.93,5.9 8.93,5.9 8.835,5.9 L8.075,5.9 C8.075,5.9 8.075,5.9 7.98,5.9 C7.98,5.9 7.98,5.9 7.98,5.8 L10.355,0.8 C10.355,0.8 10.355,0.8 10.45,0.8 L11.495,0.8 L11.59,0.8 L13.87,5.8 C13.87,5.8 13.87,5.8 13.87,5.9 C13.87,5.9 13.87,5.9 13.775,5.9 L12.92,5.9 Z" id="Fill-5"></path>
                <path d="M16.72,1.7 C15.77,1.7 14.915,2.4 14.915,3.3 C14.915,4.2 15.77,4.9 16.72,4.9 C17.765,4.9 18.525,4.2 18.525,3.3 C18.62,2.4 17.765,1.7 16.72,1.7 M16.72,5.9 C15.105,5.9 13.775,4.8 13.775,3.3 C13.775,1.9 15.105,0.7 16.72,0.7 C18.335,0.7 19.665,1.9 19.665,3.3 C19.665,4.7 18.335,5.9 16.72,5.9" id="Fill-7"></path>
                <path d="M21.66,5.9 L21.565,3.9 L19.665,0.9 L19.665,0.8 C19.665,0.8 19.665,0.8 19.76,0.8 L20.805,0.8 L20.9,0.8 L22.135,2.8 L22.23,2.8 C22.23,2.8 22.325,2.8 22.325,2.7 L23.465,0.8 C23.465,0.8 23.465,0.8 23.56,0.8 L24.795,0.8 L22.895,3.8 L22.895,5.9 C22.895,5.9 21.565,5.9 21.66,5.9 Z" id="Fill-9"></path>
                <path d="M27.93,5.9 C26.315,5.9 25.46,5.2 25.46,3.9 L25.46,0.9 C25.46,0.9 25.46,0.8 25.555,0.8 L26.505,0.8 C26.505,0.8 26.6,0.8 26.6,0.9 L26.6,3.9 C26.6,4.5 26.79,5.1 27.93,5.1 C28.88,5.1 29.26,4.8 29.26,3.9 L29.26,0.9 C29.26,0.9 29.26,0.8 29.355,0.8 L30.305,0.8 C30.305,0.8 30.4,0.8 30.4,0.9 L30.4,3.9 C30.4,5.2 29.545,5.9 27.93,5.9" id="Fill-11"></path>
                <path d="M35.34,5.9 C35.245,5.9 35.245,5.9 35.34,5.9 L32.3,2.1 L32.3,5.8 C32.3,5.8 32.3,5.9 32.205,5.9 L31.445,5.9 C31.445,5.9 31.35,5.9 31.35,5.8 L31.35,0.9 C31.35,0.9 31.35,0.8 31.445,0.8 L32.68,0.8 C32.68,0.8 32.68,0.8 32.775,0.8 L35.435,4.1 L35.435,0.9 C35.435,0.9 35.435,0.8 35.53,0.8 L36.29,0.8 C36.29,0.8 36.385,0.8 36.385,0.9 L36.385,5.8 C36.385,5.8 36.385,5.9 36.29,5.9 L35.34,5.9 Z" id="Fill-13"></path>
                <path d="M40.85,5.9 C39.425,5.9 38.19,4.7 38.19,3.3 C38.19,1.9 39.33,0.7 40.85,0.7 C41.705,0.7 42.56,1.1 43.035,1.9 C43.035,1.9 43.035,1.9 43.035,2 C42.75,2.2 42.655,2.2 42.275,2.4 C42.275,2.4 42.275,2.4 42.18,2.4 C41.895,2 41.325,1.7 40.85,1.7 C39.9,1.7 39.235,2.4 39.235,3.3 C39.235,4.2 39.995,4.9 40.85,4.9 C41.42,4.9 41.895,4.6 42.18,4.2 L42.275,4.2 C42.465,4.3 42.845,4.4 43.035,4.5 C43.035,4.5 43.035,4.5 43.035,4.6 C42.56,5.4 41.8,5.9 40.85,5.9" id="Fill-17"></path>
                <path d="M46.93,1.7 C45.98,1.7 45.125,2.4 45.125,3.3 C45.125,4.2 45.98,4.9 46.93,4.9 C47.975,4.9 48.735,4.2 48.735,3.3 C48.83,2.4 47.975,1.7 46.93,1.7 M46.93,5.9 C45.315,5.9 43.985,4.8 43.985,3.3 C43.985,1.9 45.315,0.7 46.93,0.7 C48.545,0.7 49.875,1.9 49.875,3.3 C49.875,4.7 48.545,5.9 46.93,5.9" id="Fill-19"></path>
                <path d="M55.765,5.8 C55.67,5.8 55.67,5.8 55.765,5.8 L55.67,2.4 C55.67,2.3 55.575,2.3 55.575,2.3 C55.575,2.3 55.48,2.3 55.48,2.4 L54.245,4.6 C54.245,4.6 54.245,4.6 54.15,4.6 L53.39,4.6 L53.295,4.6 L52.155,2.4 L52.06,2.3 C51.965,2.3 51.965,2.3 51.965,2.4 L51.965,5.8 C51.965,5.8 51.965,5.9 51.87,5.9 L50.92,5.9 C50.92,5.9 50.825,5.9 50.825,5.8 L50.825,0.9 C50.825,0.9 50.825,0.8 50.92,0.8 L52.345,0.8 L52.44,0.8 C52.44,0.8 53.39,2.4 53.675,3 C53.77,3.2 53.77,3.2 53.865,3 L55.1,0.8 C55.1,0.8 55.1,0.8 55.195,0.8 L56.62,0.8 C56.62,0.8 56.715,0.8 56.715,0.9 L56.715,5.8 C56.715,5.8 56.715,5.9 56.62,5.9 L55.765,5.8 Z" id="Fill-21"></path>
                <path d="M3.895,5.9 L2.755,4.2 L2.66,4.2 L2.565,4.2 L1.425,5.9 C1.425,5.9 1.425,5.9 1.33,5.9 L0.285,5.9 L0.19,5.9 L0.19,5.8 L1.9,3.3 L1.9,3.2 L0.38,0.9 L0.38,0.8 C0.38,0.8 0.38,0.8 0.475,0.8 L1.52,0.8 C1.52,0.8 1.52,0.8 1.615,0.8 L2.565,2.2 L2.66,2.2 L2.755,2.2 L3.705,0.8 C3.705,0.8 3.705,0.8 3.8,0.8 L4.845,0.8 L4.94,0.8 L4.94,0.9 L3.325,3.2 L3.325,3.3 L5.035,5.8 L5.035,5.9 C5.035,5.9 5.035,5.9 4.94,5.9 L3.895,5.9 Z" id="Fill-23"></path>
                <ellipse id="Oval" cx="37.525" cy="5.4" rx="1" ry="1"></ellipse>
            </g>
            <g id="小云" transform="translate(45.000000, 5.000000)" fill="#FFFFFF">
                <path d="M0.189830508,16.0695652 L3.3220339,3.10434783 C3.3220339,3.01304348 3.51186441,2.92173913 3.60677966,2.92173913 L5.69491525,2.92173913 C5.78983051,2.92173913 5.88474576,2.92173913 5.97966102,3.01304348 C6.07457627,3.10434783 6.07457627,3.19565217 6.07457627,3.28695652 L3.13220339,15.3391304 C3.03728814,15.7956522 2.65762712,16.0695652 2.18305085,16.0695652 C2.18305085,16.0695652 0.189830508,16.0695652 0.189830508,16.0695652 Z" id="Fill-27"></path>
                <path d="M23.5389831,16.0695652 C23.0644068,16.0695652 22.6847458,15.7956522 22.5898305,15.3391304 L19.6474576,3.28695652 C19.6474576,3.19565217 19.6474576,3.10434783 19.7423729,3.01304348 C19.8372881,2.92173913 19.9322034,2.92173913 20.0271186,2.92173913 L22.1152542,2.92173913 C22.2101695,2.92173913 22.4,3.01304348 22.4,3.10434783 L25.5322034,16.0695652 L23.5389831,16.0695652 Z" id="Fill-29"></path>
                <path d="M33.8847458,19.8130435 C33.4101695,19.8130435 32.9355932,19.5391304 32.6508475,19.173913 C32.3661017,18.8086957 32.3661017,18.2608696 32.6508475,17.8956522 L37.3966102,9.31304348 L37.3016949,9.22173913 L30.8474576,9.22173913 C30.5627119,9.22173913 30.3728814,9.03913043 30.3728814,8.76521739 L30.3728814,7.12173913 C30.3728814,6.84782609 30.5627119,6.66521739 30.8474576,6.66521739 L55.1457627,6.66521739 C55.4305085,6.66521739 55.620339,6.84782609 55.620339,7.12173913 L55.620339,8.67391304 C55.620339,8.94782609 55.4305085,9.13043478 55.1457627,9.13043478 L40.8135593,9.13043478 L40.7186441,9.13043478 L36.3525424,17.073913 L36.4474576,17.1652174 L49.640678,17.1652174 L49.7355932,17.073913 L47.0779661,12.2347826 L49.0711864,12.2347826 C49.9254237,12.2347826 50.5898305,12.6913043 50.9694915,13.3304348 L53.4372881,17.8043478 C53.6271186,18.1695652 53.6271186,18.7173913 53.4372881,19.0826087 C53.1525424,19.4478261 52.7728814,19.8130435 52.2033898,19.8130435 L33.8847458,19.8130435 Z" id="Fill-31"></path>
                <path d="M11.8644068,20.726087 L11.8644068,0.547826087 C11.8644068,0.273913043 12.2440678,0.0913043478 12.5288136,0.0913043478 L14.2372881,0.0913043478 C14.5220339,0.0913043478 14.8067797,0.273913043 14.8067797,0.547826087 L14.8067797,18.7173913 C14.8067797,19.8130435 13.8576271,20.6347826 12.7186441,20.6347826 L11.8644068,20.6347826 L11.8644068,20.726087 Z" id="Fill-33"></path>
                <path d="M35.0237288,2.92173913 C34.0745763,2.92173913 33.3152542,2.1 33.3152542,1.09565217 L33.3152542,0.0913043478 L52.7728814,0.0913043478 L52.7728814,1.09565217 C52.7728814,2.1 52.0135593,2.92173913 51.0644068,2.92173913 L35.0237288,2.92173913 Z" id="Fill-25"></path>
            </g>
            <path d="M34,20.88 C34,22.7466667 33.0584416,24.4266667 31.7402597,25.4533333 C29.1980519,27.6 24.6785714,29 19.5,29 C14.2272727,29 9.61363636,27.5066667 7.16558442,25.2666667 C5.8474026,24.24 5,22.6533333 5,20.88 C5,17.6133333 7.63636364,15.0933333 11.025974,15.0933333 C11.1201299,15.0933333 11.2142857,15.0933333 11.2142857,15.0933333 C11.3084416,14.3466667 11.4967532,13.6 11.7792208,12.9466667 C11.8733766,12.6666667 11.9675325,12.48 12.1558442,12.2 C12.4383117,11.64 12.9090909,11.08 13.2857143,10.6133333 C14.7922078,8.93333333 17.0519481,8 19.5,8 C23.737013,8 27.2207792,11.08 27.7857143,15.0933333 C27.8798701,15.0933333 27.974026,15.0933333 28.0681818,15.0933333 C31.3636364,15.0933333 34,17.6133333 34,20.88 Z M25.9967532,22.1866667 C26.3733766,21.8133333 26.3733766,21.0666667 25.9967532,20.6933333 C25.525974,20.2266667 24.8668831,20.32 24.3961039,20.7866667 C22.8896104,22.7466667 20.5357143,24.0533333 17.8993506,24.0533333 C15.5454545,24.0533333 13.474026,23.0266667 11.9675325,21.44 C11.9675325,21.44 11.8733766,21.3466667 11.8733766,21.44 C11.7792208,21.44 11.6850649,21.5333333 11.6850649,21.6266667 C11.6850649,21.72 11.6850649,21.72 11.6850649,21.72 C13.474026,23.8666667 16.0162338,25.1733333 18.9350649,25.1733333 C21.8538961,25.1733333 24.2077922,24.0533333 25.9967532,22.1866667 Z" id="合并形状" fill="#242424"></path>
        </g>
    </g>
</svg>