<?xml version="1.0" encoding="UTF-8"?>
<svg width="33px" height="50px" viewBox="0 0 33 50" version="1.1" xmlns="http://www.w3.org/2000/svg" xmlns:xlink="http://www.w3.org/1999/xlink">
    <!-- Generator: sketchtool 59 (101010) - https://sketch.com -->
    <title>1D84EAC3-A765-49AC-AB62-26FDA34E6A41@1.00x</title>
    <desc>Created with sketchtool.</desc>
    <g id="Business-LP" stroke="none" stroke-width="1" fill="none" fill-rule="evenodd">
        <g id="Features" transform="translate(-307.000000, -3494.000000)" fill="#D8D8D8">
            <g id="Group-13" transform="translate(230.000000, 2938.000000)">
                <g id="セキュリティ-copy" transform="translate(59.000000, 360.000000)">
                    <g id="Group-12" transform="translate(0.000000, 196.000000)">
                        <path d="M42.5294191,21.5236328 L42.5294191,8.00898438 C42.5294191,3.59277344 38.9273809,0 34.5,0 C30.0726191,0 26.4705809,3.59277344 26.4705809,8.00898438 L26.4705809,21.5236328 L23,21.5236328 C20.2385763,21.5236328 18,23.7622091 18,26.5236328 L18,45 C18,47.7614237 20.2385763,50 23,50 L46,50 C48.7614237,50 51,47.7614237 51,45 L51,26.5236328 C51,23.7622091 48.7614237,21.5236328 46,21.5236328 L42.5294191,21.5236328 L42.5294191,21.5236328 Z M29.410289,8.00898438 C29.410289,5.20966797 31.6935412,2.93222656 34.5,2.93222656 C37.3064588,2.93222656 39.589711,5.20966797 39.589711,8.00898438 L39.589711,21.5236328 L29.410289,21.5236328 L29.410289,8.00898438 Z M48.0603898,24.4558594 L48.0603898,41.721875 L20.9396102,41.721875 L20.9396102,24.4558594 L48.0603898,24.4558594 Z M48.0602919,44.6540039 L48.0602919,47.0677734 L20.9396102,47.0677734 L20.9396102,44.6540039 L48.0602919,44.6540039 Z M34.7016942,30.7909605 C35.5841928,30.7909605 36.4947291,30.9761348 37.1799761,31.3559322 L37.1799761,31.3559322 L36.5134868,32.9397039 C35.8657552,32.615527 35.2556376,32.4580168 34.6830353,32.4580168 C34.0353036,32.4580168 33.8287719,32.6432885 33.8287719,32.8655757 C33.8287719,33.6434833 37.4615385,32.995227 37.4615385,35.3847652 C37.4615385,36.5702318 36.4383574,37.5706215 34.4013742,37.5706215 C33.3032612,37.5706215 32.1954733,37.3018703 31.5384615,36.9036626 L31.5384615,36.9036626 L32.251845,35.3106371 C32.8714401,35.6718293 33.6973696,35.9033703 34.4202306,35.9033703 C35.0491058,35.9033703 35.2744939,35.7737191 35.2743952,35.5515293 C35.2743952,34.7364115 31.6416287,35.3940191 31.6416287,32.9767193 C31.6416287,31.7726476 32.664711,30.7909605 34.7016942,30.7909605 Z M27.9324634,30.7909605 C28.814962,30.7909605 29.7254984,30.9761348 30.4107453,31.3559322 L30.4107453,31.3559322 L29.744256,32.9397039 C29.0965244,32.615527 28.4864068,32.4580168 27.9138045,32.4580168 C27.2660729,32.4580168 27.0595411,32.6432885 27.0595411,32.8655757 C27.0595411,33.6434833 30.6923077,32.995227 30.6923077,35.3847652 C30.6923077,36.5702318 29.6691267,37.5706215 27.6321434,37.5706215 C26.5340305,37.5706215 25.4262425,37.3018703 24.7692308,36.9036626 L24.7692308,36.9036626 L25.4826142,35.3106371 C26.1022094,35.6718293 26.9281388,35.9033703 27.6509998,35.9033703 C28.2799738,35.9033703 28.5052632,35.7737191 28.5051644,35.5515293 C28.5051644,34.7364115 24.8723979,35.3940191 24.8723979,32.9767193 C24.8723979,31.7726476 25.8954802,30.7909605 27.9324634,30.7909605 Z M40.760289,30.7909605 L40.760289,35.5897019 L43.6666667,35.5897019 L43.6666667,37.2881356 L38.5897436,37.2881356 L38.5897436,30.7909605 L40.760289,30.7909605 Z" id="Shape"></path>
                    </g>
                </g>
            </g>
        </g>
    </g>
</svg>