<?xml version="1.0" encoding="UTF-8"?>
<svg width="49px" height="46px" viewBox="0 0 49 46" version="1.1" xmlns="http://www.w3.org/2000/svg" xmlns:xlink="http://www.w3.org/1999/xlink">
    <!-- Generator: sketchtool 59 (101010) - https://sketch.com -->
    <title>11BC0F11-1CCC-46DE-A168-E98FD12C9330@1.00x</title>
    <desc>Created with sketchtool.</desc>
    <defs>
        <path d="M53.8320034,34.8378672 C52.9637944,33.7121117 51.7470369,33.1485313 50.1824336,33.1485313 C49.3616581,33.1485313 48.5696941,33.2918859 47.8065415,33.5778925 C47.0423349,33.8642504 46.4267533,34.1839874 45.9594453,34.5371035 C45.4924887,34.8898684 44.9865312,35.2099567 44.4426269,35.4959633 C43.899074,35.7823212 43.4166576,35.9260271 42.9974858,35.9260271 C42.1384122,35.9260271 41.2895279,35.4868279 40.4494277,34.6091322 C39.7814935,33.9028999 39.4473508,32.7866312 39.4473508,31.2599747 C39.4473508,29.4469604 39.6760857,27.1090151 40.133907,24.2464903 C40.1535831,24.1892187 40.1866109,23.9840249 40.2340444,23.6309087 C40.282532,23.2781439 40.3292628,22.9534878 40.377399,22.6576432 C40.4248325,22.3617986 40.4578603,22.1949029 40.4771851,22.1566048 L40.4771851,22.0993332 C39.5808673,22.1376314 38.025048,22.299608 35.8111326,22.5859659 C33.5972172,22.8723238 31.880124,23.0153271 30.6584475,23.0153271 C29.4943939,23.0153271 28.5112903,22.7626997 27.7098396,22.2567422 C26.9083889,21.7511361 26.5074879,20.954253 26.5074879,19.8664444 C26.5074879,19.1602121 26.6747349,18.4827912 27.0085263,17.8338304 C27.3423177,17.1848697 27.7049206,16.6455331 28.0963349,16.2161719 C28.4877493,15.7864594 28.8503521,15.2235817 29.1841435,14.5271874 C29.5182863,13.8311445 29.685182,13.0911817 29.685182,12.3090557 C29.685182,10.8013726 29.1700892,9.62256196 28.1395521,8.77367772 C27.1090151,7.92479348 25.8304184,7.5 24.3037619,7.5 C22.6815357,7.5 21.3077205,7.93428018 20.1816138,8.80248919 C19.0558583,9.67069819 18.4926293,10.8874557 18.4926293,12.4524103 C18.4926293,13.2728345 18.6356325,14.0647985 18.9219904,14.8283024 C19.2079969,15.5914549 19.527734,16.2070366 19.8808501,16.6746959 C20.2339663,17.1423552 20.5537033,17.6479613 20.8397099,18.1918656 C21.1260677,18.7361213 21.269071,19.217835 21.269071,19.6377094 C21.269071,20.4964318 20.8302232,21.3456673 19.9521761,22.1854162 C19.2459438,22.8533504 18.129675,23.1878445 16.6030186,23.1878445 C14.7900042,23.1878445 12.452059,22.9587582 9.58953418,22.5005856 C9.53261396,22.4805581 9.32742009,22.447179 8.97430392,22.3993941 C8.62118775,22.3516092 8.29688305,22.3041757 8.00103846,22.2563908 C7.70519387,22.208606 7.53794681,22.1755782 7.5,22.1562534 L7.5,51.4698143 C7.5,51.4891391 7.51897341,51.4986258 7.55727158,51.4986258 C7.59521839,51.5175992 7.62402986,51.5267345 7.64300326,51.5267345 L8.01509284,51.5843575 C8.18725893,51.6219529 8.44937302,51.6609538 8.80248919,51.6985493 C9.15560535,51.7364961 9.4180708,51.7751456 9.58988553,51.8127411 C12.4524103,52.271265 14.7903556,52.5 16.6033699,52.5 C18.1300264,52.5 19.2462951,52.1658572 19.9525274,51.4975717 C20.8305745,50.6578228 21.2694224,49.8082359 21.2694224,48.9502163 C21.2694224,48.5303418 21.1264191,48.0486281 20.8400612,47.5043725 C20.5540547,46.9608195 20.2339663,46.4552134 19.8812015,45.9875541 C19.5284367,45.5198947 19.2086997,44.9043131 18.9223418,44.1411606 C18.6359839,43.3776567 18.4929806,42.5856926 18.4929806,41.7649172 C18.4929806,40.1999625 19.0562097,38.983205 20.1819651,38.114996 C21.3077205,37.2464357 22.6724003,36.8125068 24.2753018,36.8125068 C25.821283,36.8125068 27.1093665,37.2373003 28.1399035,38.0861845 C29.1704405,38.9350688 29.6855334,40.1138795 29.6855334,41.6215625 C29.6855334,42.4036885 29.5186377,43.1436513 29.1844949,43.8396942 C28.8507035,44.5364399 28.4877493,45.0989662 28.0966863,45.5290301 C27.705272,45.9587426 27.3430204,46.4973765 27.0088777,47.1466886 C26.6747349,47.795298 26.5078392,48.4727189 26.5078392,49.1785999 C26.5078392,50.2671112 26.9083889,51.0636429 27.710191,51.5696004 C28.5119931,52.0748552 29.4947452,52.3274825 30.6587988,52.3274825 C31.5368459,52.3274825 32.4718132,52.280049 33.464052,52.1844793 C34.4562909,52.0892609 35.5585052,51.960312 36.7703437,51.797984 C37.9821822,51.6356559 38.9122304,51.5256805 39.5611912,51.4684089 C39.7713041,51.4490841 40.0864734,51.4395974 40.5056452,51.4395974 L40.5056452,51.2969455 C40.5249699,50.5527664 40.3819667,49.4554711 40.0766354,48.0047082 C39.7713041,46.5546481 39.6181114,45.4573528 39.6181114,44.7128223 C39.6181114,42.3464169 40.6679732,41.1630386 42.7673454,41.1630386 C43.4735778,41.1630386 44.1509986,41.3302856 44.7999594,41.664077 C45.4485688,41.9982198 45.9879054,42.361174 46.4169152,42.752237 C46.8469791,43.1436513 47.4105595,43.5062542 48.1069538,43.840397 C48.8029967,44.173837 49.5422568,44.3414354 50.3247341,44.3414354 C51.8324172,44.3414354 53.0112279,43.8259912 53.8601121,42.7954542 C54.7096991,41.7645658 55.1337898,40.4768337 55.1337898,38.9312038 C55.1337898,37.327951 54.7002124,35.963974 53.8320034,34.8378672 L53.8320034,34.8378672 Z" id="path-1"></path>
        <linearGradient x1="7.6875%" y1="-12.1523438%" x2="100%" y2="116.397135%" id="linearGradient-3">
            <stop stop-color="#D4A89D" offset="0%"></stop>
            <stop stop-color="#E6B996" offset="100%"></stop>
        </linearGradient>
        <rect id="path-4" x="0" y="0" width="50" height="50"></rect>
    </defs>
    <g id="Business-LP" stroke="none" stroke-width="1" fill="none" fill-rule="evenodd">
        <g id="Features" transform="translate(-724.000000, -2631.000000)">
            <g id="icons-/-Privacy" transform="translate(717.000000, 2624.000000)">
                <g id="Icon/sm/info-copy">
                    <mask id="mask-2" fill="white">
                        <use xlink:href="#path-1"></use>
                    </mask>
                    <use id="Extensions" fill="#000000" fill-rule="evenodd" xlink:href="#path-1"></use>
                    <g id="UI/Color/Flat/-Primary" mask="url(#mask-2)" fill-rule="evenodd">
                        <g transform="translate(5.000000, 5.000000)" id="Fill">
                            <g>
                                <use fill="url(#linearGradient-3)" xlink:href="#path-4"></use>
                                <use fill="#487BF9" xlink:href="#path-4"></use>
                                <use fill="#06B632" xlink:href="#path-4"></use>
                            </g>
                        </g>
                    </g>
                </g>
            </g>
        </g>
    </g>
</svg>