<?xml version="1.0" encoding="UTF-8"?>
<svg width="120px" height="38px" viewBox="0 0 120 38" version="1.1" xmlns="http://www.w3.org/2000/svg" xmlns:xlink="http://www.w3.org/1999/xlink">
    <!-- Generator: Sketch 53 (72520) - https://sketchapp.com -->
    <title>nota-logo</title>
    <desc>Created with Sketch.</desc>
    <g id="nota-logo" stroke="none" stroke-width="1" fill="none" fill-rule="evenodd">
        <path d="M119.251716,30.5490441 L92.9179748,4.17017398 C91.8408048,3.09184346 90.3814275,2.4863544 88.860001,2.48653899 L43.9139672,2.48653899 C34.9984459,2.49713172 27.7739162,9.7486113 27.7644188,18.6963307 L27.7644188,25.5673296 C27.7647657,25.7619364 27.6481155,25.9375357 27.4689884,26.0120556 C27.2898613,26.0865755 27.083635,26.0452983 26.9466959,25.9075162 L1.20853254,0.207097099 C1.00568107,0.00448910456 0.701301532,-0.0557574949 0.436991467,0.0543840558 C0.172681401,0.164525607 0.000340197452,0.423428137 0.000141089248,0.71065003 L0.000141089248,32.2442109 C-0.0140729276,33.6235846 1.04739458,34.7740758 2.41883903,34.8657612 C3.11364025,34.8994057 3.79184871,34.6459558 4.29551429,34.1644382 C4.79917988,33.6829207 5.08433803,33.0153668 5.08457737,32.3172453 L5.08457737,12.4345923 C5.08500165,12.2408281 5.20134996,12.0662807 5.3796403,11.9919348 C5.55793064,11.9175889 5.76326917,11.957995 5.90038523,12.0944058 L31.6347185,37.7929029 C31.8375699,37.9955109 32.1419495,38.0557575 32.4062596,37.9456159 C32.6705696,37.8354744 32.8429108,37.5765719 32.8431099,37.28935 L32.8431099,30.4856195 C39.1911201,36.5128179 49.1659976,36.3740692 55.3451315,30.1726205 C61.5242653,23.9711718 61.6625148,13.9602717 55.6570043,7.58933683 L69.0239968,7.58933683 C69.4470562,7.58933683 69.7900136,7.93353274 69.7900136,8.35811993 L69.7900136,32.2442109 C69.7757996,33.6235846 70.8372671,34.7740758 72.2087115,34.8657612 C72.9036602,34.8999657 73.5821892,34.6467026 74.0859811,34.1650643 C74.5897729,33.6834261 74.8747607,33.0155417 74.8744499,32.3172453 L74.8744499,8.35811993 C74.8744499,7.93353274 75.2174073,7.58933683 75.6404666,7.58933683 L86.8932529,7.58933683 C87.3163123,7.58933683 87.6592697,7.93353274 87.6592697,8.35811993 L87.6592697,32.2442109 C87.6450557,33.6235846 88.7065232,34.7740758 90.0779676,34.8657612 C90.7735624,34.9010536 91.4531051,34.6482759 91.9577476,34.1665166 C92.46239,33.6847573 92.7478995,33.0162435 92.7475361,32.3172453 L92.7475361,28.8135163 L110.323791,28.8135163 L115.662928,34.1604027 C116.656588,35.155529 118.265916,35.153808 119.257461,34.1565588 C120.249007,33.1593097 120.247292,31.5441703 119.253631,30.5490441 L119.251716,30.5490441 Z M43.9139672,29.8014026 C39.4375983,29.8014025 35.4020375,27.0950623 33.6891842,22.9444272 C31.9763309,18.7937921 32.9235299,14.0163253 36.0890746,10.8398985 C39.2546193,7.66347174 44.015059,6.71367896 48.1504623,8.43343616 C52.2858656,10.1531934 54.9817691,14.2037962 54.9809945,18.6963307 C54.973606,24.8271687 50.0227456,29.7950484 43.9139672,29.8014026 L43.9139672,29.8014026 Z M92.7475361,23.7107185 L92.7475361,12.3711677 C92.7471891,12.176561 92.8638393,12.0009617 93.0429664,11.9264418 C93.2220936,11.8519219 93.4283199,11.8931991 93.565259,12.0309812 L105.227864,23.7145624 L92.7475361,23.7107185 Z" id="Shape" fill="#FFFFFF"></path>
    </g>
</svg>