<?xml version="1.0" encoding="UTF-8"?>
<svg width="54px" height="40px" viewBox="0 0 54 40" version="1.1" xmlns="http://www.w3.org/2000/svg" xmlns:xlink="http://www.w3.org/1999/xlink">
    <!-- Generator: sketchtool 59 (101010) - https://sketch.com -->
    <title>88015B96-6AB0-42A3-9867-1CC1CF61F445@1.00x</title>
    <desc>Created with sketchtool.</desc>
    <g id="Business-LP" stroke="none" stroke-width="1" fill="none" fill-rule="evenodd">
        <g id="Features" transform="translate(-658.000000, -3499.000000)" fill="#D8D8D8">
            <g id="Group-13" transform="translate(230.000000, 2938.000000)">
                <g id="セキュリティ-copy" transform="translate(59.000000, 360.000000)">
                    <g id="Group-11" transform="translate(361.000000, 201.000000)">
                        <path d="M42.8950959,3.55271368e-15 C42.9953288,3.55271368e-15 43.1761918,0.0595417477 43.4376849,0.178625243 C43.6984384,0.297708739 44.0094932,0.45149448 44.3712192,0.639982466 C44.7333151,0.828470453 45.0643425,1.01184442 45.365411,1.19046967 C45.6664795,1.36909491 45.9830822,1.55283417 46.3144795,1.74095687 C46.6462466,1.92981014 46.8419041,2.04414491 46.9018219,2.08359588 C47.2239726,2.28304247 47.3844932,2.55043241 47.3844932,2.88795741 C47.3844932,3.02676639 47.3752466,3.11626165 47.3549041,3.15571263 C45.2455753,6.8856561 42.0813973,12.5008447 37.8627397,20.0005479 L37.5036685,20.6387886 C33.463205,27.8201517 30.4090701,33.2324359 28.3402466,36.8749715 L28.3402466,36.8749715 L26.8637534,39.5233007 C26.6629178,39.840735 26.3814521,40 26.0200959,40 C25.7789452,40 24.4330137,39.3059551 21.9823014,37.9167694 C21.6608904,37.7184187 21.5,37.4408007 21.5,37.0835502 C21.5,36.8453832 21.9419863,35.9822105 22.8259589,34.4943974 C19.9532329,33.2042045 17.3064932,31.4884524 14.8857397,29.3453147 C12.4649863,27.2029077 10.3704521,24.7719241 8.60287671,22.053825 C8.20083562,21.4390473 8,20.7544999 8,20.0005479 C8,19.246596 8.20083562,18.5620485 8.60287671,17.9465403 C11.6768082,13.2840196 15.4934247,9.60375515 20.0538356,6.9050163 C24.6142466,4.20664274 29.5963014,2.85727332 35.0003699,2.85727332 C36.7882877,2.85727332 38.5965479,3.02603582 40.424411,3.36319553 L40.424411,3.36319553 L42.0514384,0.476333982 C42.252274,0.158899756 42.5333699,3.55271368e-15 42.8950959,3.55271368e-15 Z M51.5436027,7.91722601 C53.4520959,9.1873282 55.2858767,10.7047296 57.0430959,12.4705259 C58.8003151,14.2363223 60.2516575,16.0620257 61.3971233,17.9465403 C61.7991644,18.6215903 62,19.3061377 62,20.0005479 C62,20.6945928 61.7991644,21.3795056 61.3974932,22.0541903 C60.6137534,23.3239272 59.5189589,24.7624266 58.1127397,26.3696885 C55.0994658,29.7821977 51.6086986,32.4312576 47.6411781,34.3154069 C43.6736575,36.2002868 39.4601781,37.1427267 35,37.1427267 L35,37.1427267 L37.230274,33.2140672 C41.4892466,32.857182 45.4316164,31.4986804 49.0581233,29.136736 C52.6835205,26.7758874 55.7123288,23.7301261 58.1426986,20.0001826 C55.8325342,16.4488644 52.9997534,13.5320494 49.6450959,11.250468 L49.6450959,11.250468 Z M23.3382192,9.49526497 C18.737863,11.8162973 14.9108904,15.3183018 11.8573014,20.0009132 C15.2119589,25.1196771 19.5012603,28.8397578 24.7244658,31.1611554 L24.7244658,31.1611554 L27.0749452,26.9643754 C25.3269726,25.714364 23.9610685,24.1374209 22.9764932,22.2328155 C21.9919178,20.3278449 21.5,18.3143841 21.5,16.1913372 C21.5,13.7906724 22.112863,11.5584048 23.3382192,9.49526497 Z M48.2588493,13.6913144 C48.4197397,14.5844406 48.5,15.4176598 48.5,16.1913372 C48.5,18.9488872 47.7059041,21.4638868 46.1188219,23.7356054 C44.5317397,26.0069587 42.4327671,27.6394254 39.8215342,28.6311791 L39.8215342,28.6311791 Z M34.9992603,7.14354858 C32.4878904,7.14354858 30.3334384,8.03156078 28.5355342,9.80721989 C26.7376301,11.582879 25.8384932,13.7110399 25.8384932,16.1909719 C25.8384932,16.5876734 25.9790411,16.9251984 26.2605068,17.2031816 C26.5419726,17.4807996 26.8833562,17.6199739 27.2853973,17.6199739 C27.6870685,17.6199739 28.0284521,17.4811649 28.3099178,17.2031816 C28.5910137,16.9251984 28.7319315,16.5880387 28.7319315,16.1909719 C28.7319315,14.4847173 29.3444247,13.0264924 30.5701507,11.815932 C31.7955068,10.6057368 33.2723699,10.0004566 35,10.0004566 C35.4016712,10.0004566 35.7437945,9.86164763 36.0248904,9.58366437 C36.3052466,9.3064117 36.4461644,8.96925198 36.4461644,8.57218524 C36.4461644,8.17548378 36.3052466,7.83795878 36.0241507,7.56034081 C35.7426849,7.28272285 35.4009315,7.14354858 34.9992603,7.14354858 Z" id="privacy"></path>
                    </g>
                </g>
            </g>
        </g>
    </g>
</svg>