<?xml version="1.0" encoding="UTF-8"?>
<svg width="44px" height="44px" viewBox="0 0 44 44" version="1.1" xmlns="http://www.w3.org/2000/svg" xmlns:xlink="http://www.w3.org/1999/xlink">
    <!-- Generator: sketchtool 59 (101010) - https://sketch.com -->
    <title>E66DD44B-5A14-488B-8CA9-2D7C992BAE2E@1.00x</title>
    <desc>Created with sketchtool.</desc>
    <g id="Business-LP" stroke="none" stroke-width="1" fill="none" fill-rule="evenodd">
        <g id="Features" transform="translate(-1023.000000, -3803.000000)" fill="#D8D8D8">
            <g id="Group-13" transform="translate(230.000000, 2938.000000)">
                <g id="セキュリティ-copy" transform="translate(59.000000, 360.000000)">
                    <g id="Group-8" transform="translate(721.000000, 212.000000)">
                        <path d="M19.2875,314.515625 C20.821875,314.34375 24,314.109375 25.5,314.875 C28.096875,316.196875 30.91875,319.4 30.91875,319.4 L24.6875,326.634375 C27.428125,329.0125 30.9625,330.5 34.875,330.5 C43.50625,330.5 50.5,323.503125 50.5,314.875 C50.5,313.396875 50.23125,311.99375 49.846875,310.640625 C48.575,312.125 45.996875,314.028125 45.996875,314.028125 C43.809375,313.784375 44.871875,316.490625 44.871875,316.490625 C45.79375,322.478125 42.61875,323.215625 42.61875,323.215625 C38.290625,327.6625 34.875,318 34.875,318 C34.075,312.621875 33.6125,310.9 33.6125,310.9 C28.071875,307.4375 33.53125,306.175 34.70625,305.975 C34.71875,305.971875 34.725,305.978125 34.740625,305.975 C35.021875,305.934375 34.953125,305.93125 34.70625,305.975 C33.1375,306.190625 33.4375,305.2375 32.4875,303.5125 C31.528125,301.771875 30.35625,303.80625 30.234375,303.5125 C30.115625,303.221875 29.5625,306.7 27.984375,307.20625 C26.40625,307.7125 26.859375,303.5125 26.859375,303.5125 C23.8125,308.178125 22.815625,306.9875 22.496875,305.453125 C20.571875,307.990625 19.365625,311.103125 19.2875,314.515625 M34.875,336.75 C22.79375,336.75 13,326.95625 13,314.875 C13,302.79375 22.79375,293 34.875,293 C46.95625,293 56.75,302.79375 56.75,314.875 C56.75,326.95625 46.95625,336.75 34.875,336.75" id="Network-Icon"></path>
                    </g>
                </g>
            </g>
        </g>
    </g>
</svg>