<?xml version="1.0" encoding="UTF-8"?>
<svg width="68px" height="17px" viewBox="0 0 68 17" version="1.1" xmlns="http://www.w3.org/2000/svg" xmlns:xlink="http://www.w3.org/1999/xlink">
    <!-- Generator: sketchtool 59 (101010) - https://sketch.com -->
    <title>C368A691-25FF-49AC-BA92-7403A1796E93@1.00x</title>
    <desc>Created with sketchtool.</desc>
    <g id="Business-LP" stroke="none" stroke-width="1" fill="none" fill-rule="evenodd">
        <g id="Features" transform="translate(-1010.000000, -3510.000000)" fill="#D8D8D8">
            <g id="Group-13" transform="translate(230.000000, 2938.000000)">
                <g id="セキュリティ-copy" transform="translate(59.000000, 360.000000)">
                    <g id="Group-8" transform="translate(721.000000, 212.000000)">
                        <path d="M8.5264598,-1.0658141e-13 C9.85585407,-1.0658141e-13 11.0362645,0.225297213 12.0562308,0.675891639 C13.0761971,1.12648607 13.9586398,1.7460534 14.703559,2.53459365 L12.4573411,4.67491717 C11.9301675,4.14546872 11.3571528,3.73993374 10.7497571,3.45831222 C10.1423615,3.1766907 9.37452166,3.04151238 8.49207891,3.04151238 C7.7815406,3.04151238 7.10538317,3.16542584 6.47506692,3.41325278 C5.84475067,3.66107971 5.29465649,4.01029039 4.82478438,4.46088482 C4.34345197,4.91147924 3.96526222,5.46345742 3.69021513,6.10555447 C3.41516804,6.74765153 3.27764449,7.45733775 3.27764449,8.245878 C3.27764449,9.03441824 3.41516804,9.74410446 3.69021513,10.3862015 C3.96526222,11.0282986 4.34345197,11.5690119 4.82478438,12.0196063 C5.30611678,12.4702007 5.86767126,12.8306763 6.49798751,13.0785032 C7.12830376,13.3263302 7.81592148,13.4502436 8.5379201,13.4502436 C9.30575989,13.4502436 9.98191732,13.3488599 10.5549321,13.1348275 C11.1279469,12.9207952 11.6207396,12.6279088 12.0333102,12.2674332 C12.3083573,12.0196063 12.5604838,11.7154551 12.7782294,11.3549795 C12.995975,10.9832391 13.1678794,10.5777042 13.2939427,10.1271097 L8.44623773,10.1271097 L8.44623773,7.42354317 L16.3538416,7.42354317 C16.3996828,7.60378094 16.4340636,7.81781329 16.4684445,8.08816995 C16.5028254,8.3585266 16.5142857,8.60635354 16.5142857,8.86544533 C16.5142857,9.93560709 16.3538416,10.9043851 16.0329533,11.7943091 C15.712065,12.6842331 15.2192723,13.4615085 14.5774958,14.148665 C13.8554972,14.9034106 12.995975,15.4779185 11.987469,15.8947184 C10.978963,16.3115182 9.82147318,16.5142857 8.5264598,16.5142857 C7.35750967,16.5142857 6.2573213,16.3115182 5.22589472,15.8947184 C4.19446813,15.4779185 3.28910479,14.9034106 2.5098047,14.1711947 C1.74196491,13.4389788 1.13456925,12.5715845 0.67615743,11.5690119 C0.217745613,10.5664393 0,9.45121809 0,8.25714286 C0,7.06306763 0.229205909,5.95911128 0.67615743,4.94527383 C1.12310895,3.93143637 1.73050461,3.0640421 2.5098047,2.33182615 C3.27764449,1.59961021 4.18300783,1.03636718 5.22589472,0.619567336 C6.2687816,0.202767492 7.36896996,-1.0658141e-13 8.5264598,-1.0658141e-13 Z M27.6968452,-1.0658141e-13 C28.8878571,-1.0658141e-13 29.9230357,0.304358849 30.79125,0.924349098 C31.6594643,1.5330668 32.2494048,2.28832765 32.5388095,3.20140419 L30.6799405,3.97921014 C30.5018452,3.39303754 30.1567857,2.89704534 29.6447619,2.51377864 C29.1327381,2.1192394 28.4982738,1.92760605 27.763631,1.92760605 C26.9733333,1.92760605 26.3166071,2.15305705 25.7823214,2.59268649 C25.2480357,2.99849829 24.9808929,3.53958069 24.9808929,4.19338859 C24.9808929,4.73447099 25.192381,5.20791809 25.6153571,5.60245734 C26.0828571,5.99699659 27.0957738,6.47044369 28.6429762,7.01152608 C30.2235714,7.55260848 31.3589286,8.22896148 32.0379167,9.01803998 C32.6946429,9.80711848 33.0285714,10.7765578 33.0285714,11.9263579 C33.0285714,13.3128815 32.5276786,14.428864 31.5258929,15.2743052 C30.5129762,16.0972014 29.2774405,16.5142857 27.8192857,16.5142857 C26.5280952,16.5142857 25.3816071,16.131019 24.3909524,15.3644856 C23.4002976,14.5979522 22.7213095,13.5496051 22.3428571,12.2307167 L24.257381,11.4303657 C24.3909524,11.9038128 24.5690476,12.3321697 24.8027976,12.7154364 C25.0365476,13.0987031 25.3036905,13.425607 25.6153571,13.6961482 C25.9270238,13.9666894 26.2720833,14.1808679 26.6505357,14.3386836 C27.0289881,14.4964993 27.4297024,14.5754071 27.8526786,14.5754071 C28.7654167,14.5754071 29.5223214,14.3386836 30.101131,13.8539639 C30.6799405,13.3805168 30.9693452,12.7379815 30.9693452,11.948903 C30.9693452,11.2838225 30.7244643,10.720195 30.2458333,10.2467479 C29.8005952,9.79584593 28.9546429,9.34494393 27.7191071,8.91658703 C26.4724405,8.46568503 25.6932738,8.15005363 25.3816071,7.99223793 C23.7230952,7.13552413 22.8994048,5.88427109 22.8994048,4.21593369 C22.8994048,3.05486104 23.3557738,2.06287665 24.2685119,1.2399805 C25.2035119,0.417084349 26.338869,-1.0658141e-13 27.6968452,-1.0658141e-13 Z M37.0309944,4.85714286 L37.0309944,11.8138249 C37.0767626,13.6587558 37.9806832,14.5753456 39.7427562,14.5753456 C40.5665825,14.5753456 41.2531045,14.2345622 41.8023221,13.5529954 C42.3515396,12.8714286 42.6261484,12.0488479 42.6261484,11.0970046 L42.6261484,4.85714286 L44.6857143,4.85714286 L44.6857143,16.1382488 L42.7176847,16.1382488 L42.7176847,14.5753456 L42.6261484,14.5753456 C42.3172135,15.1276498 41.8252061,15.5859447 41.1844523,15.9619816 C40.5322564,16.3262673 39.8571765,16.5142857 39.1592125,16.5142857 C37.8090527,16.5142857 36.7792697,16.1147465 36.0584217,15.3274194 C35.3375736,14.5400922 34.9714286,13.4119816 34.9714286,11.9548387 L34.9714286,4.85714286 L37.0309944,4.85714286 Z M53.4478076,1.94285714 L53.4478076,5.31608549 L56.0847713,5.31608549 L56.0847713,7.20922385 L53.4478076,7.20922385 L53.4478076,12.6935883 C53.4478076,13.4278965 53.5824611,13.9212598 53.8629892,14.1851519 C54.1435172,14.4490439 54.4577086,14.5752531 54.8055634,14.5752531 C54.9626591,14.5752531 55.1197548,14.552306 55.2768505,14.5178853 C55.4339463,14.4834646 55.5685997,14.4260967 55.7032532,14.3687289 L56.3428571,16.215973 C55.8379066,16.4110236 55.2207449,16.5142857 54.5138142,16.5142857 C53.6385667,16.5142857 52.9091938,16.2389201 52.3256954,15.688189 C51.7421971,15.1374578 51.4504479,14.3572553 51.4392268,13.3705287 L51.4392268,7.20922385 L49.5428571,7.20922385 L49.5428571,5.31608549 L51.4280057,5.31608549 L51.4280057,1.94285714 L53.4478076,1.94285714 Z M62.702614,4.85714286 C64.3168389,4.85714286 65.612766,5.38182835 66.5676596,6.43119933 C67.5225532,7.48057031 68,8.95197093 68,10.8454012 L67.9772644,11.0735253 L59.4059574,11.0735253 C59.4400608,12.1457087 59.792462,13.0125804 60.4745289,13.6627341 C61.1565957,14.3128879 61.975076,14.6436679 62.9299696,14.6436679 C64.2372644,14.6436679 65.2603647,13.9935141 65.9992705,12.6818004 L67.8294833,13.5714845 C67.3406687,14.4953872 66.6586018,15.2139782 65.7946505,15.7386637 C64.9193313,16.251943 63.9303343,16.5142857 62.8390274,16.5142857 C61.2361702,16.5142857 59.9175076,15.9667878 58.8716717,14.8603858 C57.8372036,13.7539838 57.3142857,12.3624266 57.3142857,10.6857143 C57.3142857,9.02040816 57.8144681,7.62885099 58.8262006,6.52244898 C59.8379331,5.41604697 61.1224924,4.85714286 62.702614,4.85714286 Z M49.1183352,5.0201894 L49.1183352,15.5428571 L47.0530934,15.5428571 L47.0530934,5.0201894 L49.1183352,5.0201894 Z M62.6685106,6.71635449 C61.8955015,6.71635449 61.2361702,6.95588482 60.6791489,7.43494549 C60.1107599,7.92541236 59.7469909,8.56415991 59.5651064,9.36259435 L65.8287538,9.36259435 C65.7719149,8.59837853 65.4649848,7.97103718 64.9079635,7.4691641 C64.3509422,6.96729103 63.6006687,6.71635449 62.6685106,6.71635449 Z M48.0857143,-1.0658141e-13 C48.4872891,-1.0658141e-13 48.8314961,0.131533347 49.1183352,0.405561153 C49.4051744,0.679588958 49.5428571,1.00842233 49.5428571,1.39206125 C49.5428571,1.77570018 49.4051744,2.10453355 49.1183352,2.37856135 C48.8314961,2.65258916 48.4872891,2.78412251 48.0857143,2.78412251 C47.6841395,2.78412251 47.3399325,2.65258916 47.0530934,2.37856135 C46.7662542,2.10453355 46.6285714,1.77570018 46.6285714,1.39206125 C46.6285714,1.00842233 46.7662542,0.679588958 47.0530934,0.405561153 C47.3399325,0.131533347 47.6841395,-1.0658141e-13 48.0857143,-1.0658141e-13 Z" id="Combined-Shape"></path>
                    </g>
                </g>
            </g>
        </g>
    </g>
</svg>