<?xml version="1.0" encoding="UTF-8"?>
<svg width="51px" height="50px" viewBox="0 0 51 50" version="1.1" xmlns="http://www.w3.org/2000/svg" xmlns:xlink="http://www.w3.org/1999/xlink">
    <!-- Generator: sketchtool 59 (101010) - https://sketch.com -->
    <title>3A2E0801-7154-48A7-B4CF-2D9A791784F7@1.00x</title>
    <desc>Created with sketchtool.</desc>
    <g id="Business-LP" stroke="none" stroke-width="1" fill="none" fill-rule="evenodd">
        <g id="Features" transform="translate(-298.000000, -3800.000000)" fill="#D8D8D8">
            <g id="Group-13" transform="translate(230.000000, 2938.000000)">
                <g id="セキュリティ-copy" transform="translate(59.000000, 360.000000)">
                    <g id="Group-12" transform="translate(0.000000, 196.000000)">
                        <path d="M55.9423729,306 C58.0957627,306 59.8474576,307.751695 59.8474576,309.905085 L59.8474576,309.905085 L59.8474576,319.891525 C59.8474576,321.135593 59.2516949,322.233898 58.3415254,322.949153 C59.2516949,323.664407 59.8474576,324.761864 59.8474576,326.00678 L59.8474576,326.00678 L59.8474576,335.99322 C59.8474576,337.237288 59.2516949,338.335593 58.340678,339.050847 C59.2508475,339.766102 59.8466102,340.863559 59.8466102,342.108475 L59.8466102,342.108475 L59.8466102,352.094915 C59.8466102,354.248305 58.0949153,356 55.9415254,356 L55.9415254,356 L12.9050847,356 C10.7516949,356 9,354.248305 9,352.094068 L9,352.094068 L9,342.108475 C9,340.864407 9.59576271,339.766102 10.5059322,339.05 C9.59576271,338.334746 9,337.237288 9,335.992373 L9,335.992373 L9,326.00678 C9,324.762712 9.59576271,323.664407 10.5059322,322.948305 C9.59576271,322.233051 9,321.135593 9,319.890678 L9,319.890678 L9,309.905085 C9,307.751695 10.7516949,306 12.9050847,306 L12.9050847,306 Z M55.9415254,339.898305 L12.9050847,339.898305 C11.6864407,339.898305 10.6949153,340.889831 10.6949153,342.108475 L10.6949153,342.108475 L10.6949153,352.094915 C10.6949153,353.313559 11.6864407,354.305085 12.9050847,354.304238 L12.9050847,354.304238 L55.9423729,354.304238 C57.1610169,354.304238 58.1525424,353.312712 58.1525424,352.094068 L58.1525424,352.094068 L58.1525424,342.108475 C58.1525424,340.889831 57.1610169,339.898305 55.9415254,339.898305 L55.9415254,339.898305 Z M17.8983051,343.288136 C20.0008475,343.288136 21.7118644,344.999153 21.7118644,347.101695 C21.7118644,349.204237 20.0008475,350.915254 17.8983051,350.915254 C15.7957627,350.915254 14.0847458,349.204237 14.0847458,347.101695 C14.0847458,344.999153 15.7957627,343.288136 17.8983051,343.288136 Z M17.8983051,344.983051 C16.7305085,344.983051 15.779661,345.933051 15.779661,347.101695 C15.779661,348.270339 16.7305085,349.220339 17.8983051,349.220339 C19.0661017,349.220339 20.0169492,348.270339 20.0169492,347.101695 C20.0169492,345.933051 19.0661017,344.983051 17.8983051,344.983051 Z M53.0677966,347.525424 C53.5358345,347.525424 53.9152542,347.904843 53.9152542,348.372881 C53.9152542,348.840919 53.5358345,349.220339 53.0677966,349.220339 C52.5997587,349.220339 52.220339,348.840919 52.220339,348.372881 C52.220339,347.904843 52.5997587,347.525424 53.0677966,347.525424 Z M49.6779661,347.525424 C50.146004,347.525424 50.5254237,347.904843 50.5254237,348.372881 C50.5254237,348.840919 50.146004,349.220339 49.6779661,349.220339 C49.2099282,349.220339 48.8305085,348.840919 48.8305085,348.372881 C48.8305085,347.904843 49.2099282,347.525424 49.6779661,347.525424 Z M46.2881356,347.525424 C46.7561735,347.525424 47.1355932,347.904843 47.1355932,348.372881 C47.1355932,348.840919 46.7561735,349.220339 46.2881356,349.220339 C45.8200977,349.220339 45.440678,348.840919 45.440678,348.372881 C45.440678,347.904843 45.8200977,347.525424 46.2881356,347.525424 Z M42.8983051,347.525424 C43.366343,347.525424 43.7457627,347.904843 43.7457627,348.372881 C43.7457627,348.840919 43.366343,349.220339 42.8983051,349.220339 C42.4302672,349.220339 42.0508475,348.840919 42.0508475,348.372881 C42.0508475,347.904843 42.4302672,347.525424 42.8983051,347.525424 Z M39.5084746,347.525424 C39.9765125,347.525424 40.3559322,347.904843 40.3559322,348.372881 C40.3559322,348.840919 39.9765125,349.220339 39.5084746,349.220339 C39.0404367,349.220339 38.6610169,348.840919 38.6610169,348.372881 C38.6610169,347.904843 39.0404367,347.525424 39.5084746,347.525424 Z M51.3728814,344.983051 C51.8409193,344.983051 52.220339,345.362471 52.220339,345.830508 C52.220339,346.298546 51.8409193,346.677966 51.3728814,346.677966 C50.9048434,346.677966 50.5254237,346.298546 50.5254237,345.830508 C50.5254237,345.362471 50.9048434,344.983051 51.3728814,344.983051 Z M47.9830508,344.983051 C48.4510888,344.983051 48.8305085,345.362471 48.8305085,345.830508 C48.8305085,346.298546 48.4510888,346.677966 47.9830508,346.677966 C47.5150129,346.677966 47.1355932,346.298546 47.1355932,345.830508 C47.1355932,345.362471 47.5150129,344.983051 47.9830508,344.983051 Z M44.5932203,344.983051 C45.0612583,344.983051 45.440678,345.362471 45.440678,345.830508 C45.440678,346.298546 45.0612583,346.677966 44.5932203,346.677966 C44.1251824,346.677966 43.7457627,346.298546 43.7457627,345.830508 C43.7457627,345.362471 44.1251824,344.983051 44.5932203,344.983051 Z M41.2033898,344.983051 C41.6714278,344.983051 42.0508475,345.362471 42.0508475,345.830508 C42.0508475,346.298546 41.6714278,346.677966 41.2033898,346.677966 C40.7353519,346.677966 40.3559322,346.298546 40.3559322,345.830508 C40.3559322,345.362471 40.7353519,344.983051 41.2033898,344.983051 Z M37.8135593,344.983051 C38.2815972,344.983051 38.6610169,345.362471 38.6610169,345.830508 C38.6610169,346.298546 38.2815972,346.677966 37.8135593,346.677966 C37.3455214,346.677966 36.9661017,346.298546 36.9661017,345.830508 C36.9661017,345.362471 37.3455214,344.983051 37.8135593,344.983051 Z M55.9415254,323.79661 L12.9050847,323.79661 C11.6864407,323.79661 10.6949153,324.788136 10.6949153,326.00678 L10.6949153,326.00678 L10.6949153,335.99322 C10.6949153,337.211864 11.6864407,338.20339 12.9050847,338.202543 L12.9050847,338.202543 L55.9423729,338.202543 C57.1610169,338.202543 58.1525424,337.211017 58.1525424,335.992373 L58.1525424,335.992373 L58.1525424,326.00678 C58.1525424,324.788136 57.1610169,323.79661 55.9415254,323.79661 L55.9415254,323.79661 Z M17.8983051,327.186441 C20.0008475,327.186441 21.7118644,328.897458 21.7118644,331 C21.7118644,333.102542 20.0008475,334.813559 17.8983051,334.813559 C15.7957627,334.813559 14.0847458,333.102542 14.0847458,331 C14.0847458,328.897458 15.7957627,327.186441 17.8983051,327.186441 Z M53.0677966,331.423729 C53.5358345,331.423729 53.9152542,331.803149 53.9152542,332.271186 C53.9152542,332.739224 53.5358345,333.118644 53.0677966,333.118644 C52.5997587,333.118644 52.220339,332.739224 52.220339,332.271186 C52.220339,331.803149 52.5997587,331.423729 53.0677966,331.423729 Z M49.6779661,331.423729 C50.146004,331.423729 50.5254237,331.803149 50.5254237,332.271186 C50.5254237,332.739224 50.146004,333.118644 49.6779661,333.118644 C49.2099282,333.118644 48.8305085,332.739224 48.8305085,332.271186 C48.8305085,331.803149 49.2099282,331.423729 49.6779661,331.423729 Z M46.2881356,331.423729 C46.7561735,331.423729 47.1355932,331.803149 47.1355932,332.271186 C47.1355932,332.739224 46.7561735,333.118644 46.2881356,333.118644 C45.8200977,333.118644 45.440678,332.739224 45.440678,332.271186 C45.440678,331.803149 45.8200977,331.423729 46.2881356,331.423729 Z M42.8983051,331.423729 C43.366343,331.423729 43.7457627,331.803149 43.7457627,332.271186 C43.7457627,332.739224 43.366343,333.118644 42.8983051,333.118644 C42.4302672,333.118644 42.0508475,332.739224 42.0508475,332.271186 C42.0508475,331.803149 42.4302672,331.423729 42.8983051,331.423729 Z M17.8983051,328.881356 C16.7305085,328.881356 15.779661,329.831356 15.779661,331 C15.779661,332.168644 16.7305085,333.118644 17.8983051,333.118644 C19.0661017,333.118644 20.0169492,332.168644 20.0169492,331 C20.0169492,329.831356 19.0661017,328.881356 17.8983051,328.881356 Z M39.5084746,331.423729 C39.9765125,331.423729 40.3559322,331.803149 40.3559322,332.271186 C40.3559322,332.739224 39.9765125,333.118644 39.5084746,333.118644 C39.0404367,333.118644 38.6610169,332.739224 38.6610169,332.271186 C38.6610169,331.803149 39.0404367,331.423729 39.5084746,331.423729 Z M41.2033898,328.881356 C41.6714278,328.881356 42.0508475,329.260776 42.0508475,329.728814 C42.0508475,330.196851 41.6714278,330.576271 41.2033898,330.576271 C40.7353519,330.576271 40.3559322,330.196851 40.3559322,329.728814 C40.3559322,329.260776 40.7353519,328.881356 41.2033898,328.881356 Z M37.8135593,328.881356 C38.2815972,328.881356 38.6610169,329.260776 38.6610169,329.728814 C38.6610169,330.196851 38.2815972,330.576271 37.8135593,330.576271 C37.3455214,330.576271 36.9661017,330.196851 36.9661017,329.728814 C36.9661017,329.260776 37.3455214,328.881356 37.8135593,328.881356 Z M51.3728814,328.881356 C51.8409193,328.881356 52.220339,329.260776 52.220339,329.728814 C52.220339,330.196851 51.8409193,330.576271 51.3728814,330.576271 C50.9048434,330.576271 50.5254237,330.196851 50.5254237,329.728814 C50.5254237,329.260776 50.9048434,328.881356 51.3728814,328.881356 Z M44.5932203,328.881356 C45.0612583,328.881356 45.440678,329.260776 45.440678,329.728814 C45.440678,330.196851 45.0612583,330.576271 44.5932203,330.576271 C44.1251824,330.576271 43.7457627,330.196851 43.7457627,329.728814 C43.7457627,329.260776 44.1251824,328.881356 44.5932203,328.881356 Z M47.9830508,328.881356 C48.4510888,328.881356 48.8305085,329.260776 48.8305085,329.728814 C48.8305085,330.196851 48.4510888,330.576271 47.9830508,330.576271 C47.5150129,330.576271 47.1355932,330.196851 47.1355932,329.728814 C47.1355932,329.260776 47.5150129,328.881356 47.9830508,328.881356 Z M55.9415254,307.694915 L12.9050847,307.694915 C11.6864407,307.694915 10.6949153,308.686441 10.6949153,309.905085 L10.6949153,309.905085 L10.6949153,319.891525 C10.6949153,321.110169 11.6864407,322.101695 12.9050847,322.101695 L12.9050847,322.101695 L12.9050847,322.100847 L55.9423729,322.100847 C57.1610169,322.100847 58.1525424,321.109322 58.1525424,319.890678 L58.1525424,319.890678 L58.1525424,309.905085 C58.1525424,308.686441 57.1610169,307.694915 55.9415254,307.694915 L55.9415254,307.694915 Z M17.8983051,311.084746 C20.0008475,311.084746 21.7118644,312.795763 21.7118644,314.898305 C21.7118644,317.000847 20.0008475,318.711864 17.8983051,318.711864 C15.7957627,318.711864 14.0847458,317.000847 14.0847458,314.898305 C14.0847458,312.795763 15.7957627,311.084746 17.8983051,311.084746 Z M17.8983051,312.779661 C16.7305085,312.779661 15.779661,313.729661 15.779661,314.898305 C15.779661,316.066949 16.7305085,317.016949 17.8983051,317.016949 C19.0661017,317.016949 20.0169492,316.066949 20.0169492,314.898305 C20.0169492,313.729661 19.0661017,312.779661 17.8983051,312.779661 Z M53.0677966,315.322034 C53.5358345,315.322034 53.9152542,315.701454 53.9152542,316.169492 C53.9152542,316.637529 53.5358345,317.016949 53.0677966,317.016949 C52.5997587,317.016949 52.220339,316.637529 52.220339,316.169492 C52.220339,315.701454 52.5997587,315.322034 53.0677966,315.322034 Z M49.6779661,315.322034 C50.146004,315.322034 50.5254237,315.701454 50.5254237,316.169492 C50.5254237,316.637529 50.146004,317.016949 49.6779661,317.016949 C49.2099282,317.016949 48.8305085,316.637529 48.8305085,316.169492 C48.8305085,315.701454 49.2099282,315.322034 49.6779661,315.322034 Z M46.2881356,315.322034 C46.7561735,315.322034 47.1355932,315.701454 47.1355932,316.169492 C47.1355932,316.637529 46.7561735,317.016949 46.2881356,317.016949 C45.8200977,317.016949 45.440678,316.637529 45.440678,316.169492 C45.440678,315.701454 45.8200977,315.322034 46.2881356,315.322034 Z M42.8983051,315.322034 C43.366343,315.322034 43.7457627,315.701454 43.7457627,316.169492 C43.7457627,316.637529 43.366343,317.016949 42.8983051,317.016949 C42.4302672,317.016949 42.0508475,316.637529 42.0508475,316.169492 C42.0508475,315.701454 42.4302672,315.322034 42.8983051,315.322034 Z M39.5084746,315.322034 C39.9765125,315.322034 40.3559322,315.701454 40.3559322,316.169492 C40.3559322,316.637529 39.9765125,317.016949 39.5084746,317.016949 C39.0404367,317.016949 38.6610169,316.637529 38.6610169,316.169492 C38.6610169,315.701454 39.0404367,315.322034 39.5084746,315.322034 Z M51.3728814,312.779661 C51.8409193,312.779661 52.220339,313.159081 52.220339,313.627119 C52.220339,314.095157 51.8409193,314.474576 51.3728814,314.474576 C50.9048434,314.474576 50.5254237,314.095157 50.5254237,313.627119 C50.5254237,313.159081 50.9048434,312.779661 51.3728814,312.779661 Z M47.9830508,312.779661 C48.4510888,312.779661 48.8305085,313.159081 48.8305085,313.627119 C48.8305085,314.095157 48.4510888,314.474576 47.9830508,314.474576 C47.5150129,314.474576 47.1355932,314.095157 47.1355932,313.627119 C47.1355932,313.159081 47.5150129,312.779661 47.9830508,312.779661 Z M44.5932203,312.779661 C45.0612583,312.779661 45.440678,313.159081 45.440678,313.627119 C45.440678,314.095157 45.0612583,314.474576 44.5932203,314.474576 C44.1251824,314.474576 43.7457627,314.095157 43.7457627,313.627119 C43.7457627,313.159081 44.1251824,312.779661 44.5932203,312.779661 Z M41.2033898,312.779661 C41.6714278,312.779661 42.0508475,313.159081 42.0508475,313.627119 C42.0508475,314.095157 41.6714278,314.474576 41.2033898,314.474576 C40.7353519,314.474576 40.3559322,314.095157 40.3559322,313.627119 C40.3559322,313.159081 40.7353519,312.779661 41.2033898,312.779661 Z M37.8135593,312.779661 C38.2815972,312.779661 38.6610169,313.159081 38.6610169,313.627119 C38.6610169,314.095157 38.2815972,314.474576 37.8135593,314.474576 C37.3455214,314.474576 36.9661017,314.095157 36.9661017,313.627119 C36.9661017,313.159081 37.3455214,312.779661 37.8135593,312.779661 Z" id="Combined-Shape"></path>
                    </g>
                </g>
            </g>
        </g>
    </g>
</svg>