<?xml version="1.0" encoding="UTF-8"?>
<svg width="45px" height="48px" viewBox="0 0 45 48" version="1.1" xmlns="http://www.w3.org/2000/svg" xmlns:xlink="http://www.w3.org/1999/xlink">
    <!-- Generator: sketchtool 59 (101010) - https://sketch.com -->
    <title>B97CE775-3B8A-4CE3-9DC2-A4FA474D0C72@1.00x</title>
    <desc>Created with sketchtool.</desc>
    <g id="Business-LP" stroke="none" stroke-width="1" fill="none" fill-rule="evenodd">
        <g id="Features" transform="translate(-663.000000, -3801.000000)" fill="#D8D8D8">
            <g id="Group-13" transform="translate(230.000000, 2938.000000)">
                <g id="セキュリティ-copy" transform="translate(59.000000, 360.000000)">
                    <g id="Group-11" transform="translate(361.000000, 201.000000)">
                        <path d="M35.1224398,302 C35.4142404,302.034286 35.706041,302.127347 35.9384923,302.342857 C41.0326378,307.030204 47.8380206,309.410612 54.3664402,309.410612 C54.826397,309.410612 55.2912996,309.400816 55.7463107,309.376327 C56.5277427,309.327347 57.1558558,309.915102 57.1904762,310.66449 L57.1904762,310.66449 L57.1855304,310.772245 C57.1904762,326 56.260671,343.554286 35.4933728,349.936327 C35.3697285,349.97551 35.2411384,349.990204 35.1174941,349.995102 L35.1174941,349.995102 L35.1174941,350 L35.0779279,350 C34.9542836,349.990204 34.8256935,349.97551 34.7020492,349.936327 C13.934751,343.554286 13.0049458,326 13.0049458,310.777143 L13.0049458,310.777143 L13,310.669388 C13.0395662,309.915102 13.6676793,309.327347 14.4491113,309.376327 C14.9041224,309.400816 15.3640792,309.410612 15.8289818,309.410612 C22.3524556,309.410612 29.1627841,307.030204 34.2569297,302.342857 C34.489381,302.132245 34.7762358,302.034286 35.0729821,302.009796 L35.0729821,302.009796 L35.0729821,302 L35.097711,302.004898 L35.1224398,302 Z M35.0927533,305.428571 C29.6858507,309.990033 22.5694127,312.305024 15.7362408,312.305024 L15.7362408,312.305024 L15.6666667,312.305024 C15.6815754,326.56204 17.1774189,341.646189 35.0927533,347.333333 C53.0130573,341.646189 54.5039312,326.56204 54.5238095,312.305024 L54.5238095,312.305024 L54.4542354,312.305024 C47.6160939,312.305024 40.4996559,309.990033 35.0927533,305.428571 Z M41.4497799,319.904762 L43.0952381,321.556529 L32.2108844,332.47619 L30.5654262,330.824423 L30.5782313,330.811569 L26.3333333,326.550394 L27.9787915,324.898627 L32.2236895,329.159801 L41.4497799,319.904762 Z" id="Combined-Shape"></path>
                    </g>
                </g>
            </g>
        </g>
    </g>
</svg>