<?xml version="1.0" encoding="UTF-8"?>
<svg width="324px" height="220px" viewBox="0 0 324 220" version="1.1" xmlns="http://www.w3.org/2000/svg" xmlns:xlink="http://www.w3.org/1999/xlink">
    <!-- Generator: sketchtool 58 (101010) - https://sketch.com -->
    <title>6580D2F3-7908-45FB-910C-5FEC8B4C24AC@1.00x</title>
    <desc>Created with sketchtool.</desc>
    <g id="Business-LP" stroke="none" stroke-width="1" fill="none" fill-rule="evenodd">
        <g id="Pricing-2" transform="translate(-638.000000, -1001.000000)">
            <g id="Group-10" transform="translate(590.000000, 899.000000)">
                <g id="Illustrations/illust8" transform="translate(42.000000, 102.000000)">
                    <g id="illust8">
                        <path d="M166.165023,120.482038 L167.536126,120.482597 C213.268539,120.482597 256.131687,118.614568 287.835305,115.347901 C319.950121,112.038866 338.025652,107.635516 338.025652,102.536979 C338.025652,97.4384419 319.950121,93.0350912 287.835305,89.726056 C256.131687,86.4593896 213.268539,84.59136 167.536126,84.59136 L164.795691,84.5935978 C120.093651,84.6666406 78.3064926,86.5247229 47.2369465,89.726056 C15.1221309,93.0350912 -2.9534005,97.4384419 -2.9534005,102.536979 C-2.9534005,107.635516 15.1221309,112.038866 47.2369465,115.347901 L49.1524887,115.542219 C80.3347717,118.656436 121.86105,120.445843 166.165023,120.482038 Z M168.906417,119.637538 L167.536126,119.638098 C121.830775,119.638098 78.9958035,117.771296 47.3233606,114.507842 C16.0621149,111.286757 -2.10960181,106.859974 -2.10960181,102.536979 C-2.10960181,98.2572131 15.7004977,93.8757261 46.3894552,90.6631084 L47.3233606,90.5661155 C78.9958035,87.3026613 121.830775,85.4358597 167.536126,85.4358597 L170.274936,85.4380961 L172.924624,85.4445248 C216.144881,85.583668 256.47612,87.3929897 286.795378,90.4686313 L287.748891,90.5661155 C319.010137,93.7872008 337.181854,98.2139831 337.181854,102.536979 C337.181854,106.859974 319.010137,111.286757 287.748891,114.507842 L285.854484,114.700045 C254.70017,117.81241 213.193247,119.60136 168.906417,119.637538 Z" id="Oval" fill="#014D40" fill-rule="nonzero" transform="translate(167.536126, 102.536979) rotate(-18.802770) translate(-167.536126, -102.536979) "></path>
                        <path d="M167.803016,256.011035 C174.914495,256.011035 181.088847,240.287923 185.685339,212.614055 C190.212705,185.356366 192.800747,148.517099 192.800747,109.21473 C192.800747,69.9123622 190.212705,33.0730942 185.685339,5.81540586 C181.088847,-21.8584622 174.914495,-37.5815739 167.803016,-37.5815739 C160.691538,-37.5815739 154.517186,-21.8584622 149.920694,5.81540586 C145.393328,33.0730942 142.805285,69.9123622 142.805285,109.21473 C142.805285,148.517099 145.393328,185.356366 149.920694,212.614055 C154.517186,240.287923 160.691538,256.011035 167.803016,256.011035 Z M167.803016,254.533149 C161.871299,254.533149 155.82119,239.126424 151.377364,212.371707 C146.864413,185.20081 144.281945,148.440879 144.281945,109.21473 C144.281945,69.988582 146.864413,33.2286502 151.377364,6.05775367 C155.82119,-20.6969632 161.871299,-36.1036879 167.803016,-36.1036879 C173.734734,-36.1036879 179.784843,-20.6969632 184.228669,6.05775367 C188.741619,33.2286502 191.324088,69.988582 191.324088,109.21473 C191.324088,148.440879 188.741619,185.20081 184.228669,212.371707 C179.784843,239.126424 173.734734,254.533149 167.803016,254.533149 Z" id="Oval" fill="#014D40" fill-rule="nonzero" transform="translate(167.803016, 109.214730) rotate(-73.971965) translate(-167.803016, -109.214730) "></path>
                        <path d="M167.795788,240.861198 C180.28403,240.861198 190.07251,181.892402 190.07251,108.778856 C190.07251,35.6653107 180.28403,-23.3034856 167.795788,-23.3034856 C155.307546,-23.3034856 145.519066,35.6653107 145.519066,108.778856 C145.519066,181.892402 155.307546,240.861198 167.795788,240.861198 Z M167.795788,240.016682 C162.257761,240.016682 156.786807,226.076329 152.758304,201.807392 C148.690296,177.300471 146.362881,144.150964 146.362881,108.778856 C146.362881,73.4067487 148.690296,40.2572412 152.758304,15.7503204 C156.786807,-8.51861675 162.257761,-22.4589693 167.795788,-22.4589693 C173.333816,-22.4589693 178.804769,-8.51861675 182.833272,15.7503204 C186.90128,40.2572412 189.228695,73.4067487 189.228695,108.778856 C189.228695,144.150964 186.90128,177.300471 182.833272,201.807392 C178.804769,226.076329 173.333816,240.016682 167.795788,240.016682 Z" id="Oval" fill="#014D40" fill-rule="nonzero" transform="translate(167.795788, 108.778856) rotate(-85.215821) translate(-167.795788, -108.778856) "></path>
                        <polygon id="Path" fill="#FFFFFF" fill-rule="nonzero" points="66.8992527 17.0615864 66.8992527 201.971375 268.447741 201.971375 268.447741 17.0615864"></polygon>
                        <polygon id="Path" fill="#E2FFE9" fill-rule="nonzero" points="66.8992527 30.9541008 66.8992527 201.971375 268.447741 201.971375 268.447741 30.9541008"></polygon>
                        <polygon id="Path" fill="#FFFFFF" fill-rule="nonzero" points="138.076205 110.339897 138.076205 169.879245 194.612729 169.879245 194.612729 110.339897"></polygon>
                        <polygon id="Path" fill="#FFFFFF" fill-rule="nonzero" points="75.1007407 110.339897 75.1007407 169.879245 131.637265 169.879245 131.637265 110.339897"></polygon>
                        <polygon id="Path" fill="#FFFFFF" fill-rule="nonzero" points="75.1007407 40.8541061 75.1007407 100.393454 131.637265 100.393454 131.637265 40.8541061"></polygon>
                        <path d="M65.4225525,16.3226229 C65.4225525,15.9145046 65.7531231,15.5836593 66.1609026,15.5836593 L269.186092,15.5836593 C269.593871,15.5836593 269.924442,15.9145046 269.924442,16.3226229 L269.924442,202.710339 C269.924442,203.118457 269.593871,203.449302 269.186092,203.449302 L66.1609026,203.449302 C65.7531231,203.449302 65.4225525,203.118457 65.4225525,202.710339 L65.4225525,16.3226229 Z M66.8992527,17.0615864 L66.8992527,201.971375 L268.447741,201.971375 L268.447741,17.0615864 L66.8992527,17.0615864 Z" id="Rectangle" fill="#014D40" fill-rule="nonzero"></path>
                        <polygon id="Path" fill="#FFFFFF" fill-rule="nonzero" points="173.025302 189.641241 128.94196 189.641241 135.36804 212.865809 181.672743 212.865809"></polygon>
                        <path d="M183.427712,213.346733 C183.607501,213.829597 183.250714,214.343736 182.73584,214.343736 L134.806369,214.343736 C134.474478,214.343736 134.183373,214.122105 134.094798,213.801986 L127.259786,189.099491 C127.129537,188.628758 127.483312,188.163314 127.971356,188.163314 L173.538107,188.163314 C173.846441,188.163314 174.122311,188.355072 174.229979,188.644237 L183.427712,213.346733 Z M173.025302,189.641241 L128.94196,189.641241 L135.36804,212.865809 L181.672743,212.865809 L173.025302,189.641241 Z" id="Path" fill="#014D40" fill-rule="nonzero"></path>
                        <polygon id="Path" fill="#FFFFFF" fill-rule="nonzero" points="181.674546 195.088458 137.631798 195.088458 144.018211 218.313026 190.321987 218.313026"></polygon>
                        <path d="M192.076956,218.793949 C192.256746,219.276814 191.899958,219.790953 191.385084,219.790953 L143.455613,219.790953 C143.123287,219.790953 142.831913,219.568751 142.743731,219.248072 L135.950909,194.545577 C135.821537,194.075107 136.175235,193.610531 136.662792,193.610531 L182.187351,193.610531 C182.495685,193.610531 182.771555,193.802289 182.879223,194.091454 L192.076956,218.793949 Z M181.674546,195.088458 L137.631798,195.088458 L144.018211,218.313026 L190.321987,218.313026 L181.674546,195.088458 Z" id="Path" fill="#014D40" fill-rule="nonzero"></path>
                        <path d="M74.5359026,109.854293 C74.5359026,109.446174 74.8664732,109.115329 75.2742527,109.115329 L130.924756,109.115329 C131.332536,109.115329 131.663107,109.446174 131.663107,109.854293 L131.663107,170.913794 C131.663107,171.321912 131.332536,171.652757 130.924756,171.652757 L75.2742527,171.652757 C74.8664732,171.652757 74.5359026,171.321912 74.5359026,170.913794 L74.5359026,109.854293 Z M76.0126028,170.17483 L130.186406,170.17483 L130.186406,110.593256 L76.0126028,110.593256 L76.0126028,170.17483 Z" id="Rectangle" fill="#014D40" fill-rule="nonzero"></path>
                        <path d="M75.2742527,115.625886 L130.924756,115.625886 C131.157773,115.625886 131.346671,115.402028 131.346671,115.125886 C131.346671,114.849743 131.157773,114.625886 130.924756,114.625886 L75.2742527,114.625886 C75.0412358,114.625886 74.8523384,114.849743 74.8523384,115.125886 C74.8523384,115.402028 75.0412358,115.625886 75.2742527,115.625886 Z" id="Path" fill="#014D40" fill-rule="nonzero"></path>
                        <path d="M138.160588,109.854293 C138.160588,109.446174 138.491158,109.115329 138.898938,109.115329 L194.549442,109.115329 C194.957221,109.115329 195.287792,109.446174 195.287792,109.854293 L195.287792,170.913794 C195.287792,171.321912 194.957221,171.652757 194.549442,171.652757 L138.898938,171.652757 C138.491158,171.652757 138.160588,171.321912 138.160588,170.913794 L138.160588,109.854293 Z M139.637288,170.17483 L193.811092,170.17483 L193.811092,110.593256 L139.637288,110.593256 L139.637288,170.17483 Z" id="Rectangle" fill="#014D40" fill-rule="nonzero"></path>
                        <path d="M138.898938,115.625886 L194.50725,115.625886 C194.740267,115.625886 194.929165,115.402028 194.929165,115.125886 C194.929165,114.849743 194.740267,114.625886 194.50725,114.625886 L138.898938,114.625886 C138.665921,114.625886 138.477023,114.849743 138.477023,115.125886 C138.477023,115.402028 138.665921,115.625886 138.898938,115.625886 Z" id="Path" fill="#014D40" fill-rule="nonzero"></path>
                        <path d="M74.5359026,40.2650413 C74.5359026,39.856923 74.8664732,39.5260778 75.2742527,39.5260778 L130.924756,39.5260778 C131.332536,39.5260778 131.663107,39.856923 131.663107,40.2650413 L131.663107,101.324542 C131.663107,101.732661 131.332536,102.063506 130.924756,102.063506 L75.2742527,102.063506 C74.8664732,102.063506 74.5359026,101.732661 74.5359026,101.324542 L74.5359026,40.2650413 Z M76.0126028,100.585579 L130.186406,100.585579 L130.186406,41.0040048 L76.0126028,41.0040048 L76.0126028,100.585579 Z" id="Rectangle" fill="#014D40" fill-rule="nonzero"></path>
                        <path d="M82.3624139,52.328381 L122.950575,52.328381 C123.183592,52.328381 123.372489,52.1045234 123.372489,51.828381 C123.372489,51.5522386 123.183592,51.328381 122.950575,51.328381 L82.3624139,51.328381 C82.1293971,51.328381 81.9404996,51.5522386 81.9404996,51.828381 C81.9404996,52.1045234 82.1293971,52.328381 82.3624139,52.328381 Z" id="Path" fill="#014D40" fill-rule="nonzero"></path>
                        <path d="M82.3624139,56.1287649 L117.718837,56.1287649 C117.951854,56.1287649 118.140751,55.9049073 118.140751,55.6287649 C118.140751,55.3526225 117.951854,55.1287649 117.718837,55.1287649 L82.3624139,55.1287649 C82.1293971,55.1287649 81.9404996,55.3526225 81.9404996,55.6287649 C81.9404996,55.9049073 82.1293971,56.1287649 82.3624139,56.1287649 Z" id="Path" fill="#014D40" fill-rule="nonzero"></path>
                        <path d="M82.3624139,59.9291488 L114.343522,59.9291488 C114.576539,59.9291488 114.765437,59.7052911 114.765437,59.4291488 C114.765437,59.1530064 114.576539,58.9291488 114.343522,58.9291488 L82.3624139,58.9291488 C82.1293971,58.9291488 81.9404996,59.1530064 81.9404996,59.4291488 C81.9404996,59.7052911 82.1293971,59.9291488 82.3624139,59.9291488 Z" id="Path" fill="#014D40" fill-rule="nonzero"></path>
                        <path d="M82.3624139,63.2650413 L107.297552,63.2650413 C107.530569,63.2650413 107.719467,63.0411837 107.719467,62.7650413 C107.719467,62.4888989 107.530569,62.2650413 107.297552,62.2650413 L82.3624139,62.2650413 C82.1293971,62.2650413 81.9404996,62.4888989 81.9404996,62.7650413 C81.9404996,63.0411837 82.1293971,63.2650413 82.3624139,63.2650413 Z" id="Path" fill="#014D40" fill-rule="nonzero"></path>
                        <path d="M82.3624139,66.8120662 L116.284328,66.8120662 C116.517345,66.8120662 116.706243,66.5882086 116.706243,66.3120662 C116.706243,66.0359239 116.517345,65.8120662 116.284328,65.8120662 L82.3624139,65.8120662 C82.1293971,65.8120662 81.9404996,66.0359239 81.9404996,66.3120662 C81.9404996,66.5882086 82.1293971,66.8120662 82.3624139,66.8120662 Z" id="Path" fill="#014D40" fill-rule="nonzero"></path>
                        <path d="M82.3624139,152.405156 L122.950575,152.405156 C123.183592,152.405156 123.372489,152.181299 123.372489,151.905156 C123.372489,151.629014 123.183592,151.405156 122.950575,151.405156 L82.3624139,151.405156 C82.1293971,151.405156 81.9404996,151.629014 81.9404996,151.905156 C81.9404996,152.181299 82.1293971,152.405156 82.3624139,152.405156 Z" id="Path" fill="#014D40" fill-rule="nonzero"></path>
                        <path d="M82.3624139,156.20554 L117.718837,156.20554 C117.951854,156.20554 118.140751,155.981683 118.140751,155.70554 C118.140751,155.429398 117.951854,155.20554 117.718837,155.20554 L82.3624139,155.20554 C82.1293971,155.20554 81.9404996,155.429398 81.9404996,155.70554 C81.9404996,155.981683 82.1293971,156.20554 82.3624139,156.20554 Z" id="Path" fill="#014D40" fill-rule="nonzero"></path>
                        <path d="M82.3624139,160.005924 L114.343522,160.005924 C114.576539,160.005924 114.765437,159.782067 114.765437,159.505924 C114.765437,159.229782 114.576539,159.005924 114.343522,159.005924 L82.3624139,159.005924 C82.1293971,159.005924 81.9404996,159.229782 81.9404996,159.505924 C81.9404996,159.782067 82.1293971,160.005924 82.3624139,160.005924 Z" id="Path" fill="#014D40" fill-rule="nonzero"></path>
                        <path d="M82.3624139,163.341817 L107.297552,163.341817 C107.530569,163.341817 107.719467,163.117959 107.719467,162.841817 C107.719467,162.565674 107.530569,162.341817 107.297552,162.341817 L82.3624139,162.341817 C82.1293971,162.341817 81.9404996,162.565674 81.9404996,162.841817 C81.9404996,163.117959 82.1293971,163.341817 82.3624139,163.341817 Z" id="Path" fill="#014D40" fill-rule="nonzero"></path>
                        <path d="M81.9404996,119.819744 C81.9404996,119.586533 82.1293971,119.397479 82.3624139,119.397479 L123.372489,119.397479 C123.605506,119.397479 123.794404,119.586533 123.794404,119.819744 L123.794404,146.718016 C123.794404,146.951227 123.605506,147.140281 123.372489,147.140281 L82.3624139,147.140281 C82.1293971,147.140281 81.9404996,146.951227 81.9404996,146.718016 L81.9404996,119.819744 Z M82.7843283,146.295751 L122.950575,146.295751 L122.950575,120.242009 L82.7843283,120.242009 L82.7843283,146.295751 Z" id="Rectangle" fill="#014D40" fill-rule="nonzero"></path>
                        <path d="M67.0469227,31.2151373 L269.186092,31.2151373 C269.419108,31.2151373 269.608006,30.9912796 269.608006,30.7151373 C269.608006,30.4389949 269.419108,30.2151373 269.186092,30.2151373 L67.0469227,30.2151373 C66.8139059,30.2151373 66.6250084,30.4389949 66.6250084,30.7151373 C66.6250084,30.9912796 66.8139059,31.2151373 67.0469227,31.2151373 Z" id="Path" fill="#014D40" fill-rule="nonzero"></path>
                        <path d="M128.646419,22.2343311 C128.646419,22.0011207 128.835316,21.8120662 129.068333,21.8120662 L213.366822,21.8120662 C213.599839,21.8120662 213.788736,22.0011207 213.788736,22.2343311 L213.788736,27.3859626 C213.788736,27.619173 213.599839,27.8082275 213.366822,27.8082275 L129.068333,27.8082275 C128.835316,27.8082275 128.646419,27.619173 128.646419,27.3859626 L128.646419,22.2343311 Z M129.490248,26.9636977 L212.944908,26.9636977 L212.944908,22.656596 L129.490248,22.656596 L129.490248,26.9636977 Z" id="Rectangle" fill="#014D40" fill-rule="nonzero"></path>
                        <path d="M123.372489,27.8082275 C125.050211,27.8082275 126.410273,26.4470356 126.410273,24.7679204 C126.410273,23.0888051 125.050211,21.7276133 123.372489,21.7276133 C121.694768,21.7276133 120.334706,23.0888051 120.334706,24.7679204 C120.334706,26.4470356 121.694768,27.8082275 123.372489,27.8082275 Z M123.372489,26.9636977 C122.160802,26.9636977 121.178535,25.9806147 121.178535,24.7679204 C121.178535,23.555226 122.160802,22.572143 123.372489,22.572143 C124.584177,22.572143 125.566444,23.555226 125.566444,24.7679204 C125.566444,25.9806147 124.584177,26.9636977 123.372489,26.9636977 Z" id="Oval" fill="#014D40" fill-rule="nonzero"></path>
                        <path d="M75.2742527,46.0366344 L130.924756,46.0366344 C131.157773,46.0366344 131.346671,45.8127767 131.346671,45.5366344 C131.346671,45.260492 131.157773,45.0366344 130.924756,45.0366344 L75.2742527,45.0366344 C75.0412358,45.0366344 74.8523384,45.260492 74.8523384,45.5366344 C74.8523384,45.8127767 75.0412358,46.0366344 75.2742527,46.0366344 Z" id="Path" fill="#014D40" fill-rule="nonzero"></path>
                        <path d="M95.9041323,96.9229565 C103.174373,96.9229565 109.068068,91.0243656 109.068068,83.7480849 C109.068068,76.4718042 103.174373,70.5732133 95.9041323,70.5732133 C88.6338916,70.5732133 82.7401971,76.4718042 82.7401971,83.7480849 C82.7401971,91.0243656 88.6338916,96.9229565 95.9041323,96.9229565 Z M95.9041323,96.0784134 C89.0999327,96.0784134 83.5840391,90.5579373 83.5840391,83.7480849 C83.5840391,76.9382325 89.0999327,71.4177563 95.9041323,71.4177563 C102.708332,71.4177563 108.224226,76.9382325 108.224226,83.7480849 C108.224226,90.5579373 102.708332,96.0784134 95.9041323,96.0784134 Z" id="Oval" fill="#014D40" fill-rule="nonzero" transform="translate(95.904132, 83.748085) rotate(-85.935015) translate(-95.904132, -83.748085) "></path>
                        <path d="M108.677993,80.6607572 C107.261557,74.8131029 102.006369,70.6258858 95.9058648,70.6258858 C95.6728479,70.6258858 95.4839504,70.8149402 95.4839504,71.0481507 L95.4839504,83.8005499 C95.4839504,84.0745632 95.7406721,84.2760043 96.0065481,84.2106153 L108.368639,81.1703082 C108.594424,81.1147791 108.732771,80.8869024 108.677993,80.6607572 Z M96.3277792,83.2619579 L96.3277792,71.4775643 C101.654909,71.6582917 106.222117,75.2485058 107.703598,80.283968 L107.751834,80.4523493 L96.3277792,83.2619579 Z" id="Path" fill="#014D40" fill-rule="nonzero"></path>
                        <path d="M166.28118,119.777517 L166.28118,163.355252 C166.28118,163.588463 166.505037,163.777517 166.78118,163.777517 C167.057322,163.777517 167.28118,163.588463 167.28118,163.355252 L167.28118,119.777517 C167.28118,119.544307 167.057322,119.355252 166.78118,119.355252 C166.505037,119.355252 166.28118,119.544307 166.28118,119.777517 Z" id="Path" fill="#014D40" fill-rule="nonzero"></path>
                        <path d="M181.804425,125.855335 L151.046868,156.680671 C150.882214,156.845689 150.882397,157.113052 151.047277,157.277844 C151.212158,157.442635 151.479299,157.442452 151.643954,157.277434 L182.401511,126.452099 C182.566166,126.287081 182.565983,126.019718 182.401102,125.854926 C182.236221,125.690134 181.96908,125.690318 181.804425,125.855335 Z" id="Path" fill="#014D40" fill-rule="nonzero"></path>
                        <path d="M182.401511,156.680671 L151.643954,125.855335 C151.479299,125.690318 151.212158,125.690134 151.047277,125.854926 C150.882397,126.019718 150.882214,126.287081 151.046868,126.452099 L181.804425,157.277434 C181.96908,157.442452 182.236221,157.442635 182.401102,157.277844 C182.565983,157.113052 182.566166,156.845689 182.401511,156.680671 Z" id="Path" fill="#014D40" fill-rule="nonzero"></path>
                        <path d="M188.473875,141.14412 L144.974505,141.14412 C144.741488,141.14412 144.55259,141.367978 144.55259,141.64412 C144.55259,141.920262 144.741488,142.14412 144.974505,142.14412 L188.473875,142.14412 C188.706892,142.14412 188.895789,141.920262 188.895789,141.64412 C188.895789,141.367978 188.706892,141.14412 188.473875,141.14412 Z" id="Path" fill="#014D40" fill-rule="nonzero"></path>
                        <path d="M166.627337,122.553838 L153.463609,127.958828 C153.360063,128.001343 153.277639,128.083292 153.234475,128.18664 L147.749588,141.319078 C147.706377,141.422538 147.706058,141.53895 147.748701,141.642646 L153.149205,154.775084 C153.191739,154.878514 153.273537,154.960831 153.376647,155.003967 L166.498184,160.49341 C166.601558,160.536657 166.717874,160.536977 166.821483,160.494298 L179.94302,155.089308 C180.046209,155.046802 180.128372,154.965115 180.171526,154.862124 L185.656413,141.771912 C185.699743,141.6685 185.700195,141.552084 185.657668,141.448338 L180.257164,128.273674 C180.214747,128.170198 180.133045,128.087791 180.029988,128.044537 L166.950642,122.555094 C166.847316,122.511727 166.730997,122.511275 166.627337,122.553838 Z M179.542719,128.755811 L184.810558,141.606837 L179.460734,154.374707 L166.662156,159.646666 L153.863104,154.292135 L148.59563,141.483186 L153.945608,128.673759 L166.785704,123.401651 L179.542719,128.755811 Z" id="Path" fill="#014D40" fill-rule="nonzero"></path>
                        <path d="M166.584812,127.367794 L156.83859,131.379311 C156.735126,131.421896 156.652796,131.503864 156.609705,131.60719 L152.559327,141.319282 C152.516215,141.422657 152.515911,141.53894 152.558481,141.642539 L156.566667,151.396858 C156.609218,151.500408 156.691117,151.582806 156.794357,151.625933 L166.498387,155.679676 C166.601176,155.722615 166.71676,155.723132 166.819928,155.681115 L176.56615,151.711825 C176.670482,151.669335 176.753506,151.586855 176.796733,151.482753 L180.847111,141.728435 C180.889769,141.625703 180.890197,141.510272 180.848299,141.407227 L176.882304,131.652908 C176.839849,131.54849 176.757437,131.465396 176.653423,131.422134 L166.907201,127.368391 C166.804053,127.325489 166.688117,127.325274 166.584812,127.367794 Z M176.167053,132.134394 L180.001306,141.564694 L176.085064,150.99598 L166.662944,154.833275 L157.280624,150.913922 L153.405378,141.483129 L157.321124,132.09386 L166.744442,128.21525 L176.167053,132.134394 Z" id="Path" fill="#014D40" fill-rule="nonzero"></path>
                        <path d="M166.587157,132.771828 L160.638164,135.178738 C160.533273,135.221175 160.449807,135.303996 160.406505,135.408606 L157.959402,141.320314 C157.917047,141.422634 157.916554,141.537512 157.958029,141.640192 L160.362941,147.594127 C160.405149,147.698624 160.487348,147.781896 160.591239,147.825404 L166.540231,150.316767 C166.643952,150.360203 166.760705,150.36041 166.864578,150.317341 L172.771379,147.868205 C172.873919,147.825689 172.95559,147.744445 172.998694,147.64208 L175.487989,141.730372 C175.531654,141.626672 175.532156,141.509818 175.489382,141.405747 L173.042279,135.451812 C172.999577,135.347918 172.917271,135.265336 172.81357,135.222338 L166.906769,132.773202 C166.804534,132.730812 166.689752,132.730319 166.587157,132.771828 Z M172.328602,135.935392 L174.642167,141.56442 L172.288371,147.154339 L166.703903,149.469826 L161.079307,147.114316 L158.805067,141.483892 L161.11839,135.89537 L166.743327,133.61957 L172.328602,135.935392 Z" id="Path" fill="#014D40" fill-rule="nonzero"></path>
                        <ellipse id="Oval" fill="#014D40" fill-rule="nonzero" cx="104.639492" cy="133.289993" rx="4.89420655" ry="4.89827255"></ellipse>
                        <ellipse id="Oval" fill="#014D40" fill-rule="nonzero" cx="98.3529681" cy="133.289993" rx="3.29093199" ry="3.29366603"></ellipse>
                        <path d="M109.782908,124.748145 C109.985947,124.633717 110.057858,124.376223 109.943525,124.173015 C109.829192,123.969807 109.571911,123.897836 109.368872,124.012264 L105.023154,126.4614 C104.890398,126.536218 104.808258,126.676857 104.808258,126.829341 L104.808258,130.038554 C104.808258,130.271764 104.997155,130.460819 105.230172,130.460819 C105.463189,130.460819 105.652086,130.271764 105.652086,130.038554 L105.652086,127.076171 L109.782908,124.748145 Z" id="Path" fill="#014D40" fill-rule="nonzero"></path>
                        <path d="M107.648526,123.271794 C107.829134,123.124437 107.856188,122.858449 107.708954,122.677691 C107.561719,122.496934 107.295952,122.469857 107.115344,122.617214 L103.233732,125.7842 C103.135445,125.864393 103.078409,125.984576 103.078409,126.11149 L103.078409,129.278477 C103.078409,129.511687 103.267306,129.700742 103.500323,129.700742 C103.73334,129.700742 103.922238,129.511687 103.922238,129.278477 L103.922238,126.312053 L107.648526,123.271794 Z" id="Path" fill="#014D40" fill-rule="nonzero"></path>
                        <path d="M99.3233711,131.136442 C99.3233711,131.369653 99.5122686,131.558707 99.7452855,131.558707 C99.9783023,131.558707 100.1672,131.369653 100.1672,131.136442 L100.1672,127.969456 C100.1672,127.86878 100.13126,127.771417 100.06586,127.694922 L96.5639707,123.598953 C96.4124757,123.421757 96.1461387,123.401025 95.9690903,123.552646 C95.792042,123.704267 95.7713269,123.970825 95.9228219,124.14802 L99.3233711,128.125458 L99.3233711,131.136442 Z" id="Path" fill="#014D40" fill-rule="nonzero"></path>
                        <path d="M97.5935222,131.474254 C97.5935222,131.707465 97.7824197,131.896519 98.0154366,131.896519 C98.2484535,131.896519 98.4373509,131.707465 98.4373509,131.474254 L98.4373509,128.307268 C98.4373509,128.156779 98.3573275,128.017663 98.2272948,127.942098 L94.3034912,125.661867 C94.1019808,125.544764 93.8437722,125.613325 93.7267662,125.815003 C93.6097601,126.016681 93.6782645,126.275104 93.8797749,126.392207 L97.5935222,128.550368 L97.5935222,131.474254 Z" id="Path" fill="#014D40" fill-rule="nonzero"></path>
                        <path d="M105.652086,136.837018 C105.652086,136.603808 105.463189,136.414753 105.230172,136.414753 C104.997155,136.414753 104.808258,136.603808 104.808258,136.837018 L104.808258,140.046231 C104.808258,140.197606 104.889219,140.3374 105.020461,140.412641 L109.366179,142.904004 C109.568374,143.01992 109.826175,142.949841 109.941995,142.747479 C110.057815,142.545117 109.987795,142.287101 109.785601,142.171185 L105.652086,139.801476 L105.652086,136.837018 Z" id="Path" fill="#014D40" fill-rule="nonzero"></path>
                        <path d="M103.922238,137.597095 C103.922238,137.363885 103.73334,137.17483 103.500323,137.17483 C103.267306,137.17483 103.078409,137.363885 103.078409,137.597095 L103.078409,140.764082 C103.078409,140.890996 103.135445,141.011179 103.233732,141.091372 L107.115344,144.258358 C107.295952,144.405715 107.561719,144.378638 107.708954,144.197881 C107.856188,144.017123 107.829134,143.751135 107.648526,143.603778 L103.922238,140.563519 L103.922238,137.597095 Z" id="Path" fill="#014D40" fill-rule="nonzero"></path>
                        <path d="M99.3233711,138.906116 L99.424711,138.631582 L99.3233711,138.750114 L99.3233711,138.906116 Z M95.9228219,142.727552 C95.7713269,142.904747 95.792042,143.171305 95.9690903,143.322926 C96.1461387,143.474547 96.4124757,143.453815 96.5639707,143.276619 L100.06586,139.18065 C100.13126,139.104155 100.1672,139.006792 100.1672,138.906116 L100.1672,135.73913 C100.1672,135.505919 99.9783023,135.316865 99.7452855,135.316865 C99.5122686,135.316865 99.3233711,135.505919 99.3233711,135.73913 L99.3233711,138.750114 L95.9228219,142.727552 Z" id="Path" fill="#014D40" fill-rule="nonzero"></path>
                        <path d="M93.8768613,140.5273 C93.6762939,140.646014 93.6098584,140.904977 93.7284736,141.105711 C93.8470887,141.306445 94.1058374,141.372936 94.3064048,141.254222 L98.2302083,138.931765 C98.358595,138.855775 98.4373509,138.717586 98.4373509,138.568304 L98.4373509,135.401318 C98.4373509,135.168107 98.2484535,134.979053 98.0154366,134.979053 C97.7824197,134.979053 97.5935222,135.168107 97.5935222,135.401318 L97.5935222,138.327449 L93.8768613,140.5273 Z" id="Path" fill="#014D40" fill-rule="nonzero"></path>
                        <polygon id="Path" fill="#FFFFFF" fill-rule="nonzero" points="98.6807178 159.913794 52.0124081 159.913794 34.4784523 213.17582 83.2008393 213.871264"></polygon>
                        <path d="M84.4644069,214.822146 C84.3724488,215.14268 84.0773766,215.361852 83.7442022,215.357173 L33.4520108,214.639246 C32.9535918,214.632132 32.6052869,214.142944 32.761272,213.669116 L50.7770151,158.943588 C50.8767619,158.640592 51.1595296,158.435867 51.4782829,158.435867 L99.6609026,158.435867 C100.151848,158.435867 100.506068,158.906496 100.370578,159.378768 L84.4644069,214.822146 Z M98.6807178,159.913794 L52.0124081,159.913794 L34.4784523,213.17582 L83.2008393,213.871264 L98.6807178,159.913794 Z" id="Path" fill="#014D40" fill-rule="nonzero"></path>
                        <path d="M49.8750084,164.693064 L98.2263938,164.693064 C98.4594106,164.693064 98.6483081,164.469207 98.6483081,164.193064 C98.6483081,163.916922 98.4594106,163.693064 98.2263938,163.693064 L49.8750084,163.693064 C49.6419915,163.693064 49.453094,163.916922 49.453094,164.193064 C49.453094,164.469207 49.6419915,164.693064 49.8750084,164.693064 Z" id="Path" fill="#014D40" fill-rule="nonzero"></path>
                        <path d="M53.1237489,170.224734 L91.180424,170.224734 C91.4134409,170.224734 91.6023384,170.000877 91.6023384,169.724734 C91.6023384,169.448592 91.4134409,169.224734 91.180424,169.224734 L53.1237489,169.224734 C52.8907321,169.224734 52.7018346,169.448592 52.7018346,169.724734 C52.7018346,170.000877 52.8907321,170.224734 53.1237489,170.224734 Z" id="Path" fill="#014D40" fill-rule="nonzero"></path>
                        <path d="M52.0267716,173.982892 L85.1470487,173.982892 C85.3800655,173.982892 85.568963,173.759034 85.568963,173.482892 C85.568963,173.206749 85.3800655,172.982892 85.1470487,172.982892 L52.0267716,172.982892 C51.7937547,172.982892 51.6048572,173.206749 51.6048572,173.482892 C51.6048572,173.759034 51.7937547,173.982892 52.0267716,173.982892 Z" id="Path" fill="#014D40" fill-rule="nonzero"></path>
                        <path d="M50.7610285,177.783275 L80.7169479,177.783275 C80.9499648,177.783275 81.1388623,177.559418 81.1388623,177.283275 C81.1388623,177.007133 80.9499648,176.783275 80.7169479,176.783275 L50.7610285,176.783275 C50.5280117,176.783275 50.3391142,177.007133 50.3391142,177.283275 C50.3391142,177.559418 50.5280117,177.783275 50.7610285,177.783275 Z" id="Path" fill="#014D40" fill-rule="nonzero"></path>
                        <path d="M50.0015827,181.119168 L73.3756381,181.119168 C73.608655,181.119168 73.7975525,180.89531 73.7975525,180.619168 C73.7975525,180.343026 73.608655,180.119168 73.3756381,180.119168 L50.0015827,180.119168 C49.7685658,180.119168 49.5796683,180.343026 49.5796683,180.619168 C49.5796683,180.89531 49.7685658,181.119168 50.0015827,181.119168 Z" id="Path" fill="#014D40" fill-rule="nonzero"></path>
                        <path d="M48.9467968,184.666193 L80.7169479,184.666193 C80.9499648,184.666193 81.1388623,184.442335 81.1388623,184.166193 C81.1388623,183.890051 80.9499648,183.666193 80.7169479,183.666193 L48.9467968,183.666193 C48.7137799,183.666193 48.5248824,183.890051 48.5248824,184.166193 C48.5248824,184.442335 48.7137799,184.666193 48.9467968,184.666193 Z" id="Path" fill="#014D40" fill-rule="nonzero"></path>
                        <path d="M56.2455712,199.990796 C56.2319979,199.654577 55.8501375,199.468537 55.5773561,199.665246 L45.9155174,206.632617 C45.5832216,206.872243 45.7525943,207.397479 46.162162,207.397479 L72.6161923,207.397479 C72.9005971,207.397479 73.1035373,207.121598 73.0190685,206.849801 L69.095265,194.224081 C69.0078575,193.942827 68.6668482,193.835286 68.4341264,194.015582 L56.3813152,203.35325 L56.2455712,199.990796 Z M47.4694615,206.552949 L55.4341041,200.809465 L55.5711962,204.205313 C55.5850357,204.548127 55.979948,204.732192 56.2510289,204.522178 L68.4700286,195.055759 L72.0431093,206.552949 L47.4694615,206.552949 Z" id="Path" fill="#014D40" fill-rule="nonzero"></path>
                        <path d="M54.6426406,198.529917 C56.623284,198.529917 58.2289127,196.922954 58.2289127,194.940665 C58.2289127,192.958376 56.623284,191.351414 54.6426406,191.351414 C52.6619973,191.351414 51.0563686,192.958376 51.0563686,194.940665 C51.0563686,196.922954 52.6619973,198.529917 54.6426406,198.529917 Z M54.6426406,197.685387 C53.128031,197.685387 51.9001973,196.456533 51.9001973,194.940665 C51.9001973,193.424797 53.128031,192.195943 54.6426406,192.195943 C56.1572502,192.195943 57.3850839,193.424797 57.3850839,194.940665 C57.3850839,196.456533 56.1572502,197.685387 54.6426406,197.685387 Z" id="Oval" fill="#014D40" fill-rule="nonzero"></path>
                        <path d="M76.1855786,210.007107 C76.1321599,210.190356 75.9625478,210.31495 75.7718578,210.311107 L40.9639233,209.593167 C40.6793192,209.587297 40.4820783,209.306821 40.572603,209.036709 L47.3654242,188.767995 C47.4230829,188.595951 47.5841228,188.480012 47.7654366,188.480012 L81.8983081,188.480012 C82.1795979,188.480012 82.3821188,188.750286 82.3033368,189.020543 L76.1855786,210.007107 Z M81.3357104,189.324542 L48.068935,189.324542 L41.5551518,208.760651 L75.4660564,209.460001 L81.3357104,189.324542 Z" id="Path" fill="#014D40" fill-rule="nonzero"></path>
                        <path d="M141.615033,194.464122 L148.57662,219.166618 C148.639874,219.391071 148.872957,219.521705 149.097224,219.458398 C149.321491,219.395091 149.452017,219.161815 149.388762,218.937361 L142.427175,194.234866 C142.363921,194.010413 142.130838,193.879778 141.906571,193.943086 C141.682304,194.006393 141.551778,194.239669 141.615033,194.464122 Z" id="Path" fill="#014D40" fill-rule="nonzero"></path>
                        <path d="M147.985959,198.137897 L152.880166,215.492984 C152.94346,215.717426 153.176565,215.84802 153.400821,215.784674 C153.625077,215.721328 153.755563,215.488029 153.692269,215.263586 L148.798062,197.9085 C148.734769,197.684058 148.501664,197.553464 148.277408,197.61681 C148.053152,197.680156 147.922666,197.913455 147.985959,198.137897 Z" id="Path" fill="#014D40" fill-rule="nonzero"></path>
                        <path d="M152.205103,198.137897 L157.09931,215.492984 C157.162603,215.717426 157.395708,215.84802 157.619964,215.784674 C157.84422,215.721328 157.974706,215.488029 157.911412,215.263586 L153.017206,197.9085 C152.953912,197.684058 152.720807,197.553464 152.496551,197.61681 C152.272295,197.680156 152.141809,197.913455 152.205103,198.137897 Z" id="Path" fill="#014D40" fill-rule="nonzero"></path>
                        <path d="M156.845924,199.657207 L161.276025,215.49214 C161.338853,215.716714 161.571687,215.847791 161.796074,215.784911 C162.020461,215.72203 162.15143,215.489003 162.088602,215.26443 L157.658501,199.429497 C157.595672,199.204924 157.362839,199.073846 157.138452,199.136726 C156.914065,199.199607 156.783096,199.432634 156.845924,199.657207 Z" id="Path" fill="#014D40" fill-rule="nonzero"></path>
                        <path d="M160.601199,198.137897 L165.495405,215.492984 C165.558699,215.717426 165.791804,215.84802 166.01606,215.784674 C166.240316,215.721328 166.370802,215.488029 166.307508,215.263586 L161.413302,197.9085 C161.350008,197.684058 161.116903,197.553464 160.892647,197.61681 C160.668391,197.680156 160.537905,197.913455 160.601199,198.137897 Z" id="Path" fill="#014D40" fill-rule="nonzero"></path>
                        <path d="M165.411055,200.249338 L169.714582,215.4931 C169.77794,215.717524 170.011082,215.848052 170.23532,215.784641 C170.459558,215.72123 170.589977,215.487894 170.526619,215.26347 L166.223092,200.019708 C166.159734,199.795284 165.926592,199.664756 165.702354,199.728167 C165.478116,199.791578 165.347697,200.024914 165.411055,200.249338 Z" id="Path" fill="#014D40" fill-rule="nonzero"></path>
                        <polygon id="Path" fill="#FFFFFF" fill-rule="nonzero" points="198.494353 62.1565732 256.380991 59.7736785 253.717956 1.27414048 195.287792 3.90724455"></polygon>
                        <path d="M196.03753,2.54288295 C196.03753,2.13478391 196.368085,1.80395427 196.775845,1.80395427 L255.081659,1.80395427 C255.489419,1.80395427 255.819974,2.13478391 255.819974,2.54288295 L255.819974,60.8971359 C255.819974,61.3052349 255.489419,61.6360646 255.081659,61.6360646 L196.775845,61.6360646 C196.368085,61.6360646 196.03753,61.3052349 196.03753,60.8971359 L196.03753,2.54288295 Z M197.514161,60.1582072 L254.343344,60.1582072 L254.343344,3.28181162 L197.514161,3.28181162 L197.514161,60.1582072 Z" id="Rectangle" fill="#014D40" fill-rule="nonzero" transform="translate(225.928752, 31.720009) rotate(-2.751515) translate(-225.928752, -31.720009) "></path>
                        <ellipse id="Oval" fill="#06EC40" fill-rule="nonzero" cx="225.982061" cy="31.7352908" rx="18.7751889" ry="18.7907869"></ellipse>
                        <path d="M227.036847,41.5318359 L225.813296,41.5740624 C225.138233,41.6162889 224.547552,41.0673445 224.547552,40.3917207 L223.703724,23.2477668 C223.661532,22.572143 224.210021,21.9809722 224.885084,21.9809722 L226.108636,21.9387457 C226.783699,21.8965192 227.374379,22.4454635 227.374379,23.1210873 L228.218207,40.2650413 C228.260399,40.8984386 227.71191,41.4896094 227.036847,41.5318359 Z" id="Path" fill="#FFFFFF" fill-rule="nonzero"></path>
                        <path d="M216.193648,32.8331795 L216.151457,31.6086113 C216.109265,30.9329875 216.657754,30.3418167 217.332817,30.3418167 L234.46254,29.497287 C235.137603,29.4550605 235.728283,30.0040048 235.728283,30.6796286 L235.770474,31.9041968 C235.812666,32.5798206 235.264177,33.1709914 234.589114,33.1709914 L217.459391,34.0155211 C216.784328,34.0155211 216.23584,33.5088033 216.193648,32.8331795 Z" id="Path" fill="#FFFFFF" fill-rule="nonzero"></path>
                        <path d="M229.722662,164.68321 L236.365677,165.243102 L235.88765,167.069577 L235.753283,167.599951 C235.021341,170.537562 234.78917,172.351835 234.993035,174.57071 C235.712514,181.738252 237.489314,187.744192 240.004532,192.669128 C241.183195,194.977015 242.448905,196.896878 243.718317,198.448953 C244.116213,198.935448 244.490193,199.355395 244.832963,199.71061 L245.00442,199.88556 L242.973563,203.334727 L242.916104,203.281328 C242.339227,202.74375 241.694807,202.100792 240.999671,201.353825 C239.008353,199.214028 237.015182,196.674082 235.1543,193.745116 C230.541948,186.485427 227.510826,178.092744 226.802736,168.620657 C226.668371,167.040094 228.581807,164.595379 229.722662,164.68321 Z" id="Path" fill="#FFFFFF" fill-rule="nonzero"></path>
                        <path d="M237.351715,163.843496 L229.840607,163.210012 C227.696453,163.044925 225.125883,166.32923 225.330754,168.738454 C226.057482,178.460386 229.171632,187.082962 233.908184,194.538137 C235.819748,197.546876 237.868484,200.157629 239.919072,202.361114 C240.573191,203.064007 241.185714,203.679709 241.743976,204.207333 L241.909814,204.362977 C242.079435,204.521043 242.23425,204.661742 242.373182,204.784999 L242.634802,205.012574 L242.684382,205.054099 C243.034544,205.342934 243.55972,205.250277 243.790093,204.859017 L246.574727,200.129651 C246.745281,199.839985 246.697929,199.474621 246.466848,199.238142 L246.286944,199.073346 L246.135367,198.926908 C246.096819,198.888891 246.055084,198.847211 246.010276,198.801839 C245.665571,198.452804 245.279073,198.023971 244.861008,197.512814 C243.656999,196.040705 242.449288,194.208819 241.319424,191.996482 C238.887525,187.234689 237.163363,181.406676 236.462935,174.429175 C236.261881,172.240617 236.534878,170.441328 237.384105,167.181655 L237.844163,165.422804 L237.951732,164.986667 C237.96911,164.914041 237.987306,164.837168 238.007958,164.749629 C238.11158,164.310395 237.80104,163.881606 237.351715,163.843496 Z M229.722662,164.68321 L236.365677,165.243102 L235.88765,167.069577 L235.753283,167.599951 C235.021341,170.537562 234.78917,172.351835 234.993035,174.57071 C235.712514,181.738252 237.489314,187.744192 240.004532,192.669128 C241.183195,194.977015 242.448905,196.896878 243.718317,198.448953 C244.116213,198.935448 244.490193,199.355395 244.832963,199.71061 L245.00442,199.88556 L242.973563,203.334727 L242.916104,203.281328 C242.339227,202.74375 241.694807,202.100792 240.999671,201.353825 C239.008353,199.214028 237.015182,196.674082 235.1543,193.745116 C230.541948,186.485427 227.510826,178.092744 226.802736,168.620657 C226.668371,167.040094 228.581807,164.595379 229.722662,164.68321 Z" id="Path" fill="#014D40" fill-rule="nonzero"></path>
                        <path d="M219.326307,184.756282 L219.343682,185.221233 C219.607759,190.684672 220.838654,196.516724 222.725033,202.383833 C223.47448,204.714797 224.277418,206.89131 225.080724,208.854842 L225.274557,209.324358 L225.552012,209.981187 C225.64168,210.190466 225.728437,210.389975 225.811997,210.5794 L222.215865,211.738439 L222.020808,211.353661 C221.67544,210.668191 221.294299,209.891259 220.885442,209.032697 L220.74814,208.7435 C219.430291,205.959329 218.112247,202.938721 216.882424,199.789951 C215.11994,195.277389 213.689769,190.884079 212.710244,186.757541 C212.322426,185.123746 212.009349,183.546836 211.776007,182.033349 C211.223919,178.423373 210.903703,174.607162 210.791371,170.664835 L214.830404,170.782503 C216.217708,170.818694 217.791331,170.856275 219.764456,170.901309 L220.342924,170.914466 C219.662696,174.271969 219.166573,179.579442 219.326307,184.756282 Z" id="Path" fill="#FFFFFF" fill-rule="nonzero"></path>
                        <path d="M221.273208,169.457166 L214.708972,169.300889 L212.711234,169.245542 C211.817748,169.21938 210.959802,169.192218 210.058573,169.161385 C209.635025,169.147525 209.286407,169.492204 209.295344,169.916246 C209.387494,174.196625 209.717565,178.341924 210.316443,182.257844 C210.556177,183.812798 210.876905,185.428241 211.273531,187.099143 C212.270493,191.299142 213.721304,195.755855 215.507067,200.328021 C216.750236,203.51096 218.081828,206.562614 219.413614,209.37623 L219.689362,209.955291 C220.006225,210.616638 220.305774,211.227758 220.584226,211.784058 L220.895344,212.400053 L221.194879,212.979549 C221.362491,213.296138 221.732873,213.446779 222.073628,213.336954 L227.052217,211.732347 C227.476859,211.595484 227.684166,211.115885 227.493077,210.71243 L227.300258,210.291124 L227.208695,210.086015 C226.97927,209.568882 226.723261,208.969345 226.447306,208.294825 C225.657801,206.365029 224.867927,204.223928 224.130748,201.93112 C222.333795,196.342146 221.14507,190.793471 220.843002,185.606544 L220.812844,185.026003 C220.608603,179.403847 221.213117,173.555354 221.974724,170.367807 C222.084131,169.909908 221.743507,169.467744 221.273208,169.457166 Z M219.326307,184.756282 L219.343682,185.221233 C219.607759,190.684672 220.838654,196.516724 222.725033,202.383833 C223.47448,204.714797 224.277418,206.89131 225.080724,208.854842 L225.274557,209.324358 L225.552012,209.981187 C225.64168,210.190466 225.728437,210.389975 225.811997,210.5794 L222.215865,211.738439 L222.020808,211.353661 C221.67544,210.668191 221.294299,209.891259 220.885442,209.032697 L220.74814,208.7435 C219.430291,205.959329 218.112247,202.938721 216.882424,199.789951 C215.11994,195.277389 213.689769,190.884079 212.710244,186.757541 C212.322426,185.123746 212.009349,183.546836 211.776007,182.033349 C211.223919,178.423373 210.903703,174.607162 210.791371,170.664835 L214.830404,170.782503 C216.217708,170.818694 217.791331,170.856275 219.764456,170.901309 L220.342924,170.914466 C219.662696,174.271969 219.166573,179.579442 219.326307,184.756282 Z" id="Path" fill="#014D40" fill-rule="nonzero"></path>
                        <path d="M223.397837,163.346804 L223.360071,163.43235 C223.251127,163.68105 223.130392,163.973645 223.000866,164.308789 C222.633286,165.259893 222.266658,166.364904 221.925048,167.613061 C221.60046,168.799026 221.315595,170.053782 221.080613,171.37278 C217.342293,170.584561 213.601165,170.593899 209.861913,171.386184 C209.68363,163.123109 210.604242,154.568861 212.254235,146.250116 C212.782274,143.587909 213.347908,141.147999 213.913254,138.983756 L214.042819,138.492702 L214.167845,138.028411 C214.208729,137.878156 214.248804,137.732436 214.288019,137.591322 L214.458501,136.987654 C214.477729,136.92071 214.496224,136.856732 214.513962,136.795752 L238.518687,135.904449 L238.639698,136.170757 L238.768766,136.462595 C239.112859,137.250953 239.457271,138.119795 239.778579,139.041956 C240.446335,140.958436 240.923505,142.842607 241.12785,144.592345 C241.190276,145.126875 241.226242,145.643099 241.234364,146.138958 L241.237567,146.666129 C241.239897,151.102931 240.607686,154.456699 238.993661,159.998271 L238.080152,163.084283 C237.055645,166.591503 236.493704,169.087577 236.24222,171.748483 C232.691075,171.059712 228.80908,171.1025 225.627105,171.957945 L225.561687,171.55082 L225.495337,171.094618 C225.444249,170.728161 225.389075,170.300381 225.322392,169.766474 C225.08986,167.58701 224.945686,165.525799 224.883581,163.621731 C224.918324,163.485479 224.912517,163.345034 224.871522,163.215958 L224.859202,162.675713 L224.851302,162.134294 C224.805909,157.752148 225.227824,154.343657 226.028901,152.453835 C226.223282,151.995271 225.9179,151.479502 225.422658,151.429937 C224.057169,151.293275 222.632727,151.259598 221.335658,151.34335 C220.928725,151.369625 220.620123,151.721085 220.646376,152.128356 C220.67263,152.535628 221.023798,152.844486 221.430731,152.818211 C222.234005,152.766343 223.094562,152.762744 223.958179,152.803639 L224.32833,152.823879 C223.601451,155.191248 223.2717,158.848935 223.397837,163.346804 Z" id="Path" fill="#06EC40" fill-rule="nonzero"></path>
                        <path d="M223.397837,163.346804 L223.360071,163.43235 C223.251127,163.68105 223.130392,163.973645 223.000866,164.308789 C222.633286,165.259893 222.266658,166.364904 221.925048,167.613061 C221.60046,168.799026 221.315595,170.053782 221.080613,171.37278 C217.342293,170.584561 213.601165,170.593899 209.861913,171.386184 C209.68363,163.123109 210.604242,154.568861 212.254235,146.250116 C212.782274,143.587909 213.347908,141.147999 213.913254,138.983756 L214.042819,138.492702 L214.167845,138.028411 C214.208729,137.878156 214.248804,137.732436 214.288019,137.591322 L214.458501,136.987654 C214.477729,136.92071 214.496224,136.856732 214.513962,136.795752 L238.518687,135.904449 L238.639698,136.170757 L238.768766,136.462595 C239.112859,137.250953 239.457271,138.119795 239.778579,139.041956 C240.446335,140.958436 240.923505,142.842607 241.12785,144.592345 C241.190276,145.126875 241.226242,145.643099 241.234364,146.138958 L241.237567,146.666129 C241.239897,151.102931 240.607686,154.456699 238.993661,159.998271 L238.080152,163.084283 C237.055645,166.591503 236.493704,169.087577 236.24222,171.748483 C232.691075,171.059712 228.80908,171.1025 225.627105,171.957945 L225.561687,171.55082 L225.495337,171.094618 C225.444249,170.728161 225.389075,170.300381 225.322392,169.766474 C225.08986,167.58701 224.945686,165.525799 224.883581,163.621731 C224.918324,163.485479 224.912517,163.345034 224.871522,163.215958 L224.859202,162.675713 L224.851302,162.134294 C224.805909,157.752148 225.227824,154.343657 226.028901,152.453835 C226.223282,151.995271 225.9179,151.479502 225.422658,151.429937 C224.057169,151.293275 222.632727,151.259598 221.335658,151.34335 C220.928725,151.369625 220.620123,151.721085 220.646376,152.128356 C220.67263,152.535628 221.023798,152.844486 221.430731,152.818211 C222.234005,152.766343 223.094562,152.762744 223.958179,152.803639 L224.32833,152.823879 C223.601451,155.191248 223.2717,158.848935 223.397837,163.346804 Z M223.855569,169.936604 L223.976983,170.886595 L224.047682,171.404612 C224.138599,172.046493 224.219507,172.513449 224.331019,173.049153 C224.420695,173.479952 224.864351,173.737331 225.282433,173.601098 C228.566269,172.531054 232.923542,172.486211 236.744222,173.365258 C237.186399,173.466993 237.614787,173.149269 237.646219,172.696273 C237.845066,169.830501 238.392595,167.281525 239.497521,163.499004 L240.316867,160.734994 L240.514345,160.056619 C242.152521,154.378661 242.765467,150.90459 242.710918,146.118417 C242.70191,145.567927 242.662532,145.002743 242.594565,144.420768 C242.376186,142.550854 241.873535,140.566071 241.172931,138.555317 C240.838543,137.595614 240.480425,136.692196 240.121988,135.870974 L239.975437,135.539992 C239.951775,135.487338 239.92851,135.435956 239.905666,135.385872 L239.691365,134.927792 L239.637424,134.817484 C239.507931,134.558282 239.239007,134.398759 238.94965,134.409503 L213.930128,135.338486 C213.637903,135.349336 213.381762,135.531365 213.273331,135.799055 L213.245198,135.881033 L213.106715,136.346274 L213.03928,136.579326 C212.871718,137.162685 212.685234,137.841763 212.484572,138.609934 C211.912033,140.801714 211.339784,143.270158 210.805798,145.962346 C209.075758,154.684665 208.137929,163.665662 208.409692,172.330453 C208.424418,172.799982 208.86741,173.136762 209.323309,173.025021 C213.388452,172.028649 217.445194,172.008143 221.506224,172.9836 C221.924393,173.084044 222.339508,172.806983 222.407577,172.382008 C222.655963,170.831266 222.975519,169.369153 223.349284,168.00351 C223.403797,167.804332 223.45894,167.609051 223.514604,167.417717 L223.598478,167.133682 C223.667867,168.044251 223.75344,168.979512 223.855569,169.936604 Z" id="Path" fill="#014D40" fill-rule="nonzero"></path>
                        <path d="M227.543144,214.17483 C227.647112,214.17483 227.708148,214.107832 227.696074,214.030628 C227.528451,212.632612 227.096883,211.289646 226.308538,210.208276 C225.244466,208.748692 223.63499,207.92531 221.298812,207.92531 C217.234277,207.92531 214.389388,210.390972 212.550522,213.935247 C212.496273,214.043836 212.575349,214.17483 212.691759,214.17483 L227.543144,214.17483 Z" id="Path" fill="#FFFFFF" fill-rule="nonzero"></path>
                        <path d="M227.543144,215.652757 L212.691759,215.652757 C211.46947,215.652757 210.688116,214.358408 211.234839,213.264247 C213.305722,209.272566 216.565428,206.447383 221.298812,206.447383 C224.107909,206.447383 226.160133,207.497267 227.50146,209.337162 C228.461715,210.654341 228.967122,212.22708 229.157469,213.8211 C229.319138,214.791924 228.534913,215.652757 227.543144,215.652757 Z M227.543144,214.17483 C227.647112,214.17483 227.708148,214.107832 227.696074,214.030628 C227.528451,212.632612 227.096883,211.289646 226.308538,210.208276 C225.244466,208.748692 223.63499,207.92531 221.298812,207.92531 C217.234277,207.92531 214.389388,210.390972 212.550522,213.935247 C212.496273,214.043836 212.575349,214.17483 212.691759,214.17483 L227.543144,214.17483 Z" id="Path" fill="#014D40" fill-rule="nonzero"></path>
                        <path d="M248.809571,200.686342 C247.572469,200.044667 246.252942,199.647446 244.936259,199.675147 C243.135486,199.713032 241.545769,200.555482 240.213422,202.460411 C237.869833,205.788536 238.265119,209.48415 240.124388,213.069238 C240.194147,213.191417 240.326694,213.198653 240.39674,213.0974 L248.877219,200.936171 L248.892817,200.907614 C248.920236,200.839502 248.894251,200.749507 248.809571,200.686342 Z" id="Path" fill="#FFFFFF" fill-rule="nonzero"></path>
                        <path d="M250.087571,201.782859 L241.609278,213.940945 C240.917262,214.941355 239.446653,214.861073 238.828038,213.776392 C237.999782,212.179907 237.408932,210.471438 237.214452,208.653199 C236.947896,206.161108 237.481899,203.773915 239.005015,201.610947 C240.607196,199.320216 242.635587,198.245296 244.905225,198.197546 C246.522803,198.163515 248.080871,198.63737 249.529395,199.395182 L249.583753,199.426635 C250.393823,199.942563 250.630181,201.007057 250.087571,201.782859 Z M248.809571,200.686342 C247.572469,200.044667 246.252942,199.647446 244.936259,199.675147 C243.135486,199.713032 241.545769,200.555482 240.213422,202.460411 C237.869833,205.788536 238.265119,209.48415 240.124388,213.069238 C240.194147,213.191417 240.326694,213.198653 240.39674,213.0974 L248.877219,200.936171 L248.892817,200.907614 C248.920236,200.839502 248.894251,200.749507 248.809571,200.686342 Z" id="Path" fill="#014D40" fill-rule="nonzero"></path>
                        <path d="M197.617913,67.0240732 C195.343319,72.6358077 193.974166,76.7701578 193.510455,79.4271236 C190.30684,97.783145 196.72756,108.711037 211.23598,110.804285 C228.89446,113.352019 234.639551,114.200021 228.471255,113.348292 L237.435344,111.455983 L242.09919,110.316678 C260.199756,103.937746 264.724897,90.269152 255.674614,69.3108949 C254.564007,67.1219563 253.844855,65.6390429 253.51716,64.8621547 L247.536559,67.0240732 C253.080297,87.2102306 250.450558,97.7731174 239.64734,98.7127337 C228.844123,99.6523501 221.476267,99.8513763 217.543774,99.3098125 C205.452886,99.4444125 200.087241,93.5787033 201.44684,81.7126847 C202.806438,69.8466661 203.929038,64.9504623 204.814641,67.0240732 L197.617913,67.0240732 Z" id="Path-10" fill="#06B632"></path>
                        <path d="M224.416484,100.501126 L224.274392,100.439455 L224.012226,100.332993 C223.850108,100.269435 223.660415,100.198759 223.442514,100.122158 C222.516602,99.7966636 221.376674,99.4729737 220.011523,99.1720949 C218.014718,98.7319999 215.700681,98.3777407 213.053244,98.1394137 C206.211992,97.5186246 202.787594,93.3863913 202.178017,86.4017956 C201.689821,80.8079899 203.095414,73.6702827 205.620611,66.8718606 C205.776838,66.4512615 205.52552,65.9895218 205.087714,65.892783 L198.590233,64.4570825 C198.254397,64.3828754 197.911845,64.55056 197.764201,64.8614374 C185.833368,89.9829294 191.750357,108.920941 215.372684,112.27499 C215.40752,112.279936 215.442665,112.282316 215.47785,112.282316 L236.868908,112.240088 C236.904201,112.240018 236.939443,112.237416 236.974364,112.232301 C260.430542,108.796838 266.257803,89.8998598 254.36871,64.8614867 C254.221081,64.55058 253.878511,64.382871 253.542656,64.4570825 L247.045174,65.892783 C246.607369,65.9895218 246.356051,66.4512615 246.512277,66.8718606 C249.043424,73.6863028 250.453825,80.8137881 249.970641,86.402392 C249.37274,93.3178407 246.007976,97.4356693 239.284078,98.1197667 L239.079295,98.1394452 C236.432207,98.3777407 234.118171,98.7319999 232.121365,99.1720949 C230.756214,99.4729737 229.616287,99.7966636 228.690375,100.122158 L228.442392,100.211159 L228.221247,100.294014 C228.082709,100.3471 227.9619,100.395783 227.858496,100.439455 L227.716405,100.501126 L224.416484,100.501126 Z M236.812773,110.762269 L215.527995,110.804285 C193.262343,107.616772 187.636377,90.0608078 198.847681,66.027487 L203.94592,67.1540074 C201.534762,73.897754 200.215845,80.9036307 200.706918,86.5303983 C201.36772,94.1019373 205.225676,98.825089 212.69304,99.5894027 L212.920429,99.6113508 C215.506775,99.8441785 217.75894,100.188966 219.693939,100.615439 C221.001279,100.903576 222.083834,101.210975 222.953137,101.516569 L223.198024,101.604757 L223.419108,101.688489 C223.488857,101.715615 223.554674,101.741937 223.61659,101.767394 L223.807739,101.848562 L223.904358,101.892452 C223.911449,101.89583 223.917331,101.898696 223.922012,101.901038 C224.024536,101.952343 224.137587,101.979053 224.252212,101.979053 L227.880676,101.979053 C227.972376,101.979053 228.063069,101.961958 228.14817,101.928853 L228.325149,101.848562 L228.426344,101.804923 C228.629432,101.718907 228.880086,101.621913 229.179751,101.516569 C230.049054,101.210975 231.131609,100.903576 232.43895,100.615439 C234.272106,100.211412 236.389922,99.8806982 238.806417,99.6490794 L239.211935,99.6113982 C246.847422,98.9203817 250.78046,94.1795038 251.441844,86.5298019 C251.927934,80.9075908 250.604083,73.9114044 248.187025,67.1539949 L253.285165,66.027487 C264.457047,89.9806544 258.914936,107.498849 236.812773,110.762269 Z" id="Path" fill="#014D40" fill-rule="nonzero"></path>
                        <path d="M239.64734,56.8017479 C239.638396,55.0389365 240.044801,54.1575308 240.866557,54.1575308 C241.688312,54.1575308 242.403376,54.5982337 243.011749,55.4796394 L245.589936,60.1588622 C247.751465,59.8360441 249.111621,60.0367401 249.670406,60.7609502 C250.22919,61.4851602 250.331117,61.1128748 249.976186,59.6440939 L255.674614,59.6440939 C255.238464,63.2352984 253.773083,65.3630961 251.278474,66.027487 C247.536559,67.0240732 244.404544,67.958127 243.011749,65.4979041 C242.08322,63.8577555 241.44149,62.0780748 241.086559,60.1588622 L239.64734,56.8017479 Z" id="Path-12" fill="#FFFFFF"></path>
                        <path d="M246.174008,59.5111247 L245.843956,59.5649345 L245.660657,59.191262 L245.263448,58.3896614 L244.868576,57.6048673 L244.525167,56.9340557 L244.273089,56.4503453 L244.114752,56.151248 C243.857516,55.6687705 243.633949,55.267251 243.449574,54.9597037 C242.638038,53.5740923 241.331756,52.9903749 240.14505,53.3690594 C238.958086,53.7478261 238.341502,54.9820184 238.900429,56.1629554 C239.605419,57.6623093 239.919724,58.6087043 240.307607,60.2108095 L240.48066,60.9337441 L240.587158,61.3654152 C240.86354,62.4637402 241.088846,63.1691133 241.498647,64.1878527 C242.815218,67.4820187 246.467603,69.1596926 250.722565,67.7819437 C254.69326,66.5155133 256.380991,63.9762947 256.380991,59.7736785 C256.380991,59.3655602 256.05042,59.034715 255.642641,59.034715 C255.234861,59.034715 254.90429,59.3655602 254.90429,59.7736785 C254.90429,63.3575715 253.605781,65.3112003 250.271096,66.3747851 C246.747045,67.5158589 243.895751,66.2061553 242.869113,63.6374301 L242.751763,63.3409344 L242.624404,63.0051314 C242.362446,62.2953457 242.18456,61.6804765 241.957588,60.7568212 L241.800249,60.1025278 C241.363889,58.2650424 241.024858,57.2101569 240.235777,55.5319667 C239.836984,54.6893654 241.244657,54.2228503 242.131621,55.6347225 L242.288567,55.8988966 L242.419478,56.1283528 C242.601458,56.451797 242.812782,56.8444097 243.048831,57.2960849 L243.360421,57.8984958 C243.613993,58.3933396 243.877145,58.9169815 244.13948,59.44644 L244.767285,60.7281205 C244.911235,61.026802 245.234526,61.1905013 245.556001,61.1356234 L245.762578,61.0880614 C245.886597,61.0604309 246.026943,61.0325942 246.179946,61.0065366 C246.724184,60.9138486 247.274399,60.8686034 247.77437,60.8955898 C248.232873,60.9203379 248.613985,61.0054138 248.89141,61.1484486 C249.273041,61.3394825 249.592133,61.5956007 249.861775,61.9056592 C250.074469,62.1502338 250.244338,62.4140438 250.373934,62.6766928 C250.4275,62.7852541 250.464644,62.8728623 250.486849,62.9315917 L250.506418,62.987698 C250.625578,63.3780025 251.038319,63.5977278 251.428299,63.4784681 C251.81828,63.3592083 252.037823,62.9461249 251.918662,62.5558203 C251.78773,62.1269597 251.493703,61.5310609 250.975657,60.9353639 C250.584299,60.4853456 250.114255,60.1080664 249.559743,59.8305797 C249.08114,59.5837617 248.503829,59.4548882 247.853895,59.4198074 C247.308065,59.3903457 246.738957,59.4278511 246.174008,59.5111247 Z" id="Path" fill="#014D40" fill-rule="nonzero"></path>
                        <path d="M198.168357,63.6050688 L200.061678,63.6050688 L202.51289,62.4682523 C204.208237,61.5303364 205.451009,61.0613785 206.241206,61.0613785 C207.031404,61.0613785 207.353292,60.6015837 207.206872,59.681994 L207.864609,55.454755 L208.738259,53.9041968 C210.220704,53.5225064 210.961927,54.0393591 210.961927,55.454755 C210.961927,56.8701508 210.827234,59.6521103 210.557848,63.8006335 C208.925572,67.7556456 206.671684,69.4886009 203.796183,68.9994995 C200.920683,68.5103982 198.499437,67.2681207 196.532445,65.272667 L198.168357,63.6050688 Z" id="Path-14" fill="#FFFFFF" fill-rule="nonzero"></path>
                        <path d="M206.086468,59.5856358 L205.892447,60.4465939 L205.689481,60.4612184 C205.171813,60.503148 204.656312,60.5812498 204.167619,60.7059654 C203.431236,60.8938921 202.809638,61.1730888 202.338451,61.5772989 C201.994184,61.8758971 201.706418,62.2157259 201.467993,62.5898054 C201.165524,63.0643673 200.956905,63.5683104 200.823372,64.0721268 C200.74207,64.3788763 200.703031,64.6249233 200.690586,64.7826988 C200.658493,65.1895511 200.962021,65.5454085 201.368536,65.5775284 C201.754725,65.6080423 202.094929,65.335406 202.1555,64.959241 L202.170918,64.8280097 L202.187566,64.7277848 C202.201729,64.6518609 202.222272,64.5583549 202.250709,64.4510613 C202.347471,64.0859833 202.49855,63.721032 202.712964,63.3846257 C202.877081,63.1271321 203.072639,62.8961939 203.302531,62.6967885 C203.572034,62.4656083 203.997026,62.2747191 204.532489,62.1380678 C204.932321,62.0360295 205.368068,61.970011 205.8086,61.9343292 L206.009623,61.9201018 L206.18907,61.9111081 C206.244987,61.9089031 206.296854,61.9074512 206.344217,61.9066334 L206.477552,61.9060175 C206.829351,61.9117747 207.136365,61.6682717 207.211116,61.3241304 L207.42694,60.3522531 C207.558456,59.7685172 207.692976,59.1848577 207.82561,58.6265267 L207.972921,58.0139275 L208.067197,57.6306554 C208.253642,56.8802541 208.41593,56.2740683 208.545443,55.8528015 C209.064842,54.1893676 210.588235,54.3058346 210.405992,55.2406046 C210.051578,56.9391764 209.95518,58.0255841 209.944362,59.7413328 L209.940404,60.7568846 L209.934232,61.1845482 C209.917753,62.0016965 209.874786,62.6095165 209.774913,63.3633967 L209.725044,63.72042 C209.341165,66.4524108 206.870265,68.3924001 203.169353,68.1154666 C199.791083,67.8663342 197.404059,66.1732549 196.50333,63.8551722 C196.355532,63.474804 195.927625,63.2863683 195.547572,63.4342893 C195.16752,63.5822102 194.979241,64.0104732 195.127039,64.3908413 C196.238542,67.2513677 199.125724,69.2992008 203.060045,69.5893389 C207.473525,69.9195933 210.616499,67.4982214 211.167547,64.0581964 L211.186769,63.9303256 C211.361516,62.7353043 211.410041,61.9437943 211.418482,60.585087 L211.420039,60.0195459 C211.422328,58.2325935 211.502087,57.2173525 211.85344,55.533156 C212.103377,54.2515 211.218469,53.2036615 209.984458,53.1093184 C208.747316,53.014736 207.614655,53.8789078 207.135003,55.4150684 L207.068353,55.6375692 L206.990512,55.9100072 C206.883615,56.2922544 206.76439,56.7497741 206.634139,57.274004 L206.48928,57.8657334 L206.328634,58.539766 C206.247923,58.8826152 206.166858,59.2330235 206.086468,59.5856358 Z" id="Path" fill="#014D40" fill-rule="nonzero"></path>
                        <path d="M242.09919,108.778856 C239.827815,114.819171 238.692127,120.155421 238.692127,124.787604 C238.692127,129.419788 239.010532,132.855933 239.64734,135.096041 C227.64965,138.916453 218.898515,139.185923 213.393935,135.904449 C213.393935,132.338033 213.393935,127.055961 213.393935,120.058235 L211.895839,109.21473 L242.09919,108.778856 Z" id="Path-9" fill="#06B632"></path>
                        <path d="M214.0712,135.929279 C214.881844,127.266272 214.575242,117.050154 212.690809,109.506162 C212.591908,109.110229 212.191033,108.869504 211.795428,108.968487 C211.399824,109.06747 211.159299,109.468679 211.2582,109.864612 C213.135316,117.379315 213.409523,127.716365 212.547753,136.341224 C212.515276,136.666265 212.699891,136.974082 213.001783,137.098251 C219.833201,139.908015 232.965458,139.527258 239.991405,135.888718 C240.308127,135.724697 240.462454,135.357559 240.358144,135.016262 C239.126979,130.987953 238.754046,126.349079 239.535907,121.803064 L239.595434,121.460448 L239.669346,121.059992 C239.877659,119.962083 240.175077,118.625899 240.546616,117.097784 L240.682435,116.543946 C240.803256,116.055301 240.93014,115.552466 241.062398,115.037529 C241.36793,113.847963 241.691041,112.636125 242.017674,111.444434 L242.38332,110.123739 L242.80835,108.624317 C242.921874,108.232333 242.696402,107.822461 242.304743,107.708843 C241.933699,107.601204 241.546613,107.79807 241.410368,108.152383 L241.382961,108.237313 L241.019734,109.516677 L240.840356,110.159214 C240.428551,111.641597 240.016733,113.172407 239.632194,114.66958 L239.436305,115.439009 L239.248973,116.188923 L239.112189,116.746672 L238.918756,117.553091 C238.546252,119.128903 238.260891,120.479755 238.080138,121.55512 C237.316317,125.996215 237.600143,130.515928 238.683852,134.536411 L238.768788,134.844685 C232.185296,137.944787 220.467479,138.291482 214.0712,135.929279 Z" id="Path" fill="#014D40" fill-rule="nonzero"></path>
                        <path d="M229.054116,95.9316935 L230.002384,101.7558 C227.150021,103.042221 223.322514,102.982247 221.564096,101.667948 L223.109517,96.3486418 L229.054116,95.9316935 Z" id="Path" fill="#FFFFFF" fill-rule="nonzero"></path>
                        <path d="M222.237376,95.9595411 L220.634102,101.280079 C220.556504,101.53759 220.624835,101.816962 220.812506,102.009484 C222.720532,103.966836 227.378677,104.056203 230.543074,102.401787 C230.82664,102.253532 230.982546,101.939372 230.92923,101.623658 L229.916635,95.6274972 C229.853434,95.2532457 229.517217,94.9877759 229.138835,95.0133634 L222.894503,95.4356283 C222.587859,95.4563647 222.326119,95.6650441 222.237376,95.9595411 Z M228.571908,96.5329981 L229.380377,101.320415 C226.948524,102.377853 223.685286,102.328554 222.186103,101.2482 L223.50369,96.8757297 L228.571908,96.5329981 Z" id="Path" fill="#014D40" fill-rule="nonzero"></path>
                        <path d="M239.053463,87.2680097 L238.985788,87.4711391 C238.111959,90.0770884 237.212654,91.6977261 236.086315,92.6505352 L235.621707,93.0264152 L235.133835,93.4151579 C234.807057,93.6728987 234.551019,93.8678376 234.249002,94.0896443 C230.249793,97.0267365 226.273279,98.0814678 220.688852,96.6565289 C217.805773,95.922556 215.252912,91.7916962 215.612597,89.3782143 L215.644706,89.171856 L215.730765,88.6678811 C216.159405,86.2520027 217.349889,80.5389319 217.773474,79.0300841 L217.820254,78.8352383 L217.866116,78.6608127 L217.885257,78.5911815 C217.976652,78.2622086 218.093491,77.8938201 218.237887,77.4960976 C218.65097,76.358311 219.199769,75.2206476 219.898983,74.1634598 C222.585496,70.1015419 226.615867,68.3370025 232.466476,70.0938979 C236.852764,71.4099121 239.142704,74.2565947 239.831159,78.2527894 C240.231879,80.578799 240.055368,83.094967 239.514448,85.5328322 C239.414671,85.9825137 239.308928,86.3973816 239.202592,86.7711399 L239.149399,86.9545641 C239.112706,87.0786899 239.08037,87.1835848 239.053463,87.2680097 Z" id="Path" fill="#FFFFFF" fill-rule="nonzero"></path>
                        <path d="M239.853175,87.6035181 L239.921296,87.3861776 C239.938154,87.3308598 239.956098,87.2709296 239.97501,87.2065218 C240.101889,86.7743933 240.228378,86.2863336 240.346264,85.7514252 C240.896659,83.2539946 241.076604,80.6714245 240.659929,78.2363526 C239.917208,73.8958586 237.372917,70.7114818 232.650693,69.2850448 C226.437572,67.4066051 221.96366,69.3786481 219.077894,73.7714939 C218.346299,74.8851616 217.776858,76.0736418 217.348327,77.2620043 C217.223194,77.6090099 217.117558,77.9359735 217.030033,78.2374957 L216.97968,78.4153129 C216.925612,78.611252 216.889279,78.7590651 216.868901,78.8515332 L216.813921,79.0571247 L216.723154,79.4177435 C216.163002,81.7039288 215.012753,87.3579291 214.788092,88.8868931 C214.33961,91.9166584 217.205726,96.5859339 220.693719,97.4799427 C226.457192,98.960566 230.667742,97.8361659 234.790878,94.7874733 L235.199786,94.4800815 L235.558808,94.2008767 C235.811064,94.0019182 236.09979,93.7690877 236.488908,93.453019 C237.789161,92.4035609 238.756119,90.7530827 239.645891,88.2133381 L239.724206,87.9869278 L239.853175,87.6035181 Z M238.467282,87.0889558 L238.403137,87.2828 C237.574882,89.7696303 236.72248,91.3161879 235.654885,92.2254436 L235.214508,92.584142 L234.752081,92.9551151 C234.442346,93.2010745 234.199661,93.3871027 233.913396,93.5987705 C230.122763,96.4016068 226.353643,97.4081259 221.06047,96.0483216 C218.327757,95.3478989 215.908038,91.4058626 216.248964,89.102702 L216.279398,88.9057765 L216.360969,88.4248385 C216.767254,86.119391 217.895649,80.6674672 218.297142,79.2275895 L218.341481,79.0416501 L218.384952,78.8751976 L218.403094,78.8087493 C218.489723,78.4948139 218.600468,78.1432645 218.737334,77.7637222 C219.128873,76.6779442 219.649049,75.592284 220.311795,74.5834207 C222.858194,70.7071748 226.678363,69.0232934 232.223837,70.6998803 C236.38136,71.9557389 238.55187,74.6722984 239.204418,78.4858252 C239.584239,80.7055119 239.416933,83.1066647 238.904225,85.433094 C238.809652,85.8622204 238.709424,86.2581245 238.608634,86.6147981 L238.558215,86.789838 C238.523436,86.9082899 238.492786,87.00839 238.467282,87.0889558 Z" id="Path" fill="#014D40" fill-rule="nonzero"></path>
                        <path d="M220.215677,80.4199433 C222.17012,80.2460708 223.523499,80.8510822 223.986833,82.3040686 C224.209971,83.0299876 224.141752,83.346985 223.755414,83.9753059 L223.504688,84.3629126 C222.522122,85.8660584 221.772591,86.8152408 220.860163,87.6933044 C220.401944,88.1517321 220.275464,88.8690486 220.563989,89.4465777 C221.105343,90.5846376 221.993785,91.2859632 223.343046,91.5187876 C223.687489,91.5782237 224.014858,91.3469478 224.074245,91.0022184 C224.133632,90.657489 223.902548,90.3298481 223.558104,90.270412 C222.623209,90.1090893 222.075167,89.6764712 221.701441,88.8909951 C221.654435,88.7966428 221.677328,88.6668067 221.74632,88.5977577 C222.808769,87.575492 223.662515,86.4675165 224.827205,84.6490908 C225.394741,83.7262837 225.540342,83.0497167 225.194629,81.9252172 C224.517448,79.8015076 222.584519,78.9374153 220.103609,79.1581239 C219.755456,79.1890965 219.49831,79.4966726 219.529257,79.8451145 C219.560204,80.1935563 219.867525,80.4509159 220.215677,80.4199433 Z" id="Path" fill="#014D40" fill-rule="nonzero"></path>
                        <path d="M229.210423,83.8337956 C230.919273,83.5426858 233.439024,84.5087652 234.330437,85.7354763 C234.536018,86.0183849 234.931826,86.0809329 235.2145,85.8751812 C235.497174,85.6694295 235.55967,85.2732921 235.354089,84.9903836 C234.173545,83.3657875 231.171335,82.2147315 228.998032,82.5849626 C228.653463,82.6436615 228.421679,82.9708071 228.480329,83.3156628 C228.538979,83.6605184 228.865854,83.8924944 229.210423,83.8337956 Z" id="Path" fill="#014D40" fill-rule="nonzero"></path>
                        <path d="M224.276053,93.4019427 C224.75708,93.3721531 225.267251,93.3214689 225.787738,93.2557798 L226.130699,93.2105158 C226.18656,93.2028206 226.241728,93.1950625 226.296138,93.187261 C226.288145,93.3438116 226.263315,93.4989538 226.21781,93.6443266 C226.048354,94.1856827 225.624131,94.5137928 224.719637,94.5695002 C223.69037,94.646321 223.112942,94.3120021 222.783465,93.6873904 C222.751006,93.625855 222.721685,93.5625012 222.695378,93.497844 L222.658163,93.3999451 C223.108449,93.4427679 223.652214,93.4405765 224.276053,93.4019427 Z M221.276365,93.0499108 C221.318523,93.4075844 221.432368,93.8394417 221.664131,94.2788104 C222.22432,95.3407976 223.27277,95.9478284 224.805608,95.8333424 C226.222409,95.7461361 227.098376,95.0686301 227.425668,94.0230403 C227.581922,93.5238601 227.594683,93.01311 227.525949,92.5390559 C227.511029,92.4361533 227.495219,92.3569099 227.482645,92.3057321 C227.403122,91.9820714 227.086581,91.7754659 226.758578,91.8331359 L226.50592,91.8746845 L226.44431,91.8843309 C226.193135,91.9233765 225.918367,91.9624665 225.629379,91.9989388 C225.133754,92.0614902 224.649543,92.1095953 224.197881,92.1375663 L223.903442,92.1530454 C223.28295,92.1795233 222.77846,92.1598946 222.439027,92.0899533 C221.918393,91.9882473 221.572689,91.8178942 221.354536,91.6081502 C221.251179,91.5087767 221.185916,91.4092936 221.148294,91.3152347 L221.128086,91.2621149 L221.128031,91.2663543 C221.100158,90.9176527 220.795118,90.6575885 220.446706,90.6854846 C220.098294,90.7133807 219.838446,91.0186735 219.866319,91.3673751 C219.874884,91.4745266 219.90607,91.6181781 219.973209,91.7860322 C220.075843,92.0426263 220.240617,92.2937964 220.477656,92.5216991 C220.694593,92.730274 220.960258,92.9078375 221.276365,93.0499108 Z" id="Path" fill="#014D40" fill-rule="nonzero"></path>
                        <path d="M229.948056,90.5567879 C231.695683,90.5567879 233.112414,89.1388797 233.112414,87.3898014 C233.112414,85.640723 231.695683,84.2228148 229.948056,84.2228148 C228.20043,84.2228148 226.783699,85.640723 226.783699,87.3898014 C226.783699,89.1388797 228.20043,90.5567879 229.948056,90.5567879 Z M229.948056,89.7122582 C228.666463,89.7122582 227.627527,88.6724588 227.627527,87.3898014 C227.627527,86.1071439 228.666463,85.0673445 229.948056,85.0673445 C231.229649,85.0673445 232.268585,86.1071439 232.268585,87.3898014 C232.268585,88.6724588 231.229649,89.7122582 229.948056,89.7122582 Z" id="Oval" fill="#014D40" fill-rule="nonzero"></path>
                        <path d="M231.255991,84.9828916 C231.255991,84.9828916 231.255991,84.9828916 231.255991,84.9828916 C230.623119,84.6450797 229.905865,84.5184002 229.18861,84.7295326 C227.754102,85.1517975 226.910273,86.6719511 227.332187,88.1076516 C227.332187,88.1076516 227.332187,88.1076516 227.332187,88.1076516 C227.965059,88.4454635 228.682313,88.5299165 229.399568,88.3187841 C230.876268,87.9387457 231.677905,86.4608186 231.255991,84.9828916 Z" id="Path" fill="#014D40" fill-rule="nonzero"></path>
                        <ellipse id="Oval" fill="#014D40" fill-rule="nonzero" cx="229.18861" cy="85.9541008" rx="1" ry="1"></ellipse>
                        <path d="M220.708132,87.6009338 C222.455758,87.6009338 223.872489,86.1830256 223.872489,84.4339472 C223.872489,82.6848688 222.455758,81.2669607 220.708132,81.2669607 C218.960505,81.2669607 217.543774,82.6848688 217.543774,84.4339472 C217.543774,86.1830256 218.960505,87.6009338 220.708132,87.6009338 Z M220.708132,86.756404 C219.426539,86.756404 218.387603,85.7166047 218.387603,84.4339472 C218.387603,83.1512898 219.426539,82.1114904 220.708132,82.1114904 C221.989725,82.1114904 223.028661,83.1512898 223.028661,84.4339472 C223.028661,85.7166047 221.989725,86.756404 220.708132,86.756404 Z" id="Oval" fill="#014D40" fill-rule="nonzero"></path>
                        <path d="M222.058258,82.0692639 C222.016066,82.0692639 222.016066,82.0692639 222.058258,82.0692639 C221.425386,81.731452 220.708132,81.6047726 219.990877,81.815905 C218.556369,82.2381699 217.71254,83.7583234 218.134454,85.194024 C218.134454,85.194024 218.134454,85.194024 218.134454,85.194024 C218.767326,85.5318359 219.48458,85.6162889 220.201835,85.4051564 C221.636343,85.0251181 222.480172,83.547191 222.058258,82.0692639 Z" id="Path" fill="#014D40" fill-rule="nonzero"></path>
                        <ellipse id="Oval" fill="#014D40" fill-rule="nonzero" cx="219.948686" cy="82.9982467" rx="1" ry="1"></ellipse>
                        <path d="M221.805109,71.681548 C224.083447,69.6969031 227.458762,68.4723349 232.39516,69.9924885 C243.997804,73.497287 239.061406,87.5164808 239.061406,87.5164808 C238.808258,88.2765576 238.555109,88.9099549 238.301961,89.5433522 C236.951835,89.4166728 235.770474,89.2899933 235.770474,89.2899933 L236.403346,87.0942159 C236.403346,87.0942159 236.740877,86.0385538 237.078409,84.6450797 C237.41594,83.2516056 236.740877,83.2516056 235.601709,81.4358666 C235.011029,80.4646574 234.884454,79.2400893 234.884454,78.353333 C234.884454,77.5510298 234.335966,76.875406 233.57652,76.6642735 C229.315185,75.5241584 225.433573,73.7928724 221.805109,71.681548 L221.805109,71.681548 Z" id="Path" fill="#014D40" fill-rule="nonzero"></path>
                        <path d="M209.653976,54.3264616 C209.534515,54.4858744 209.364304,54.7565823 209.195281,55.1119315 C208.83579,55.867716 208.658795,56.6547411 208.772445,57.4282057 C208.844724,57.9832356 209.184705,58.3768589 209.676041,58.6145608 C209.988342,58.7656482 210.29194,58.8285773 210.510967,58.8436952 C210.743432,58.8597405 210.944878,58.6841414 210.96091,58.4514836 C210.975797,58.2354442 210.825577,58.0461724 210.617917,58.007389 L210.493477,57.9915497 L210.412956,57.97663 C210.285214,57.950152 210.15805,57.9097289 210.043281,57.8542049 C209.787947,57.7306776 209.640544,57.5600174 209.60824,57.3121533 C209.521666,56.722573 209.6633,56.0927867 209.957183,55.4749346 C210.040558,55.2996473 210.129915,55.1392346 210.218826,54.997828 L210.274519,54.9115737 L210.329039,54.8331795 C210.468849,54.6466111 210.431069,54.3819349 210.244656,54.2420087 C210.058242,54.1020824 209.793786,54.1398933 209.653976,54.3264616 Z" id="Path" fill="#014D40" fill-rule="nonzero"></path>
                        <ellipse id="Oval" fill="#FFFFFF" cx="236.482982" cy="90.6813614" rx="3.16435768" ry="3.378119"></ellipse>
                        <path d="M234.272888,91.6521552 L234.272545,91.62286 C234.278309,91.216516 233.95489,90.8814344 233.548444,90.8736228 C233.161125,90.8661788 232.837746,91.1586065 232.799664,91.5377138 L232.795923,91.6075476 C232.794506,91.7528494 232.808761,91.9579208 232.851849,92.2046874 C232.920619,92.5985284 233.046788,92.9920434 233.247333,93.3653557 C233.689898,94.1891891 234.427645,94.7876736 235.474789,95.0342651 C237.434915,95.5078048 239.546303,94.3933399 240.513104,91.7850137 C241.522094,89.0921514 240.241667,86.756269 238.305506,86.2912042 C237.274942,86.0590579 236.353113,86.2311784 235.57282,86.6578035 C235.245713,86.8366495 235.009966,87.0214361 234.868659,87.1628606 C234.580315,87.4514439 234.580315,87.9193297 234.868659,88.2079129 C235.140041,88.4795206 235.57012,88.4954975 235.860173,88.2558437 L235.912844,88.2079129 C235.960919,88.1597974 236.087889,88.0602739 236.280782,87.9548099 C236.76402,87.6905995 237.326577,87.5855608 237.971118,87.730703 C239.042976,87.9882396 239.824437,89.4138594 239.129513,91.2685297 C238.422886,93.1749208 237.056673,93.8960565 235.817147,93.596612 C235.192437,93.4494868 234.796646,93.1284077 234.547965,92.6654906 C234.428248,92.4426382 234.349701,92.1976542 234.306504,91.9502648 L234.28818,91.8300665 L234.277418,91.7297069 C234.274943,91.6998901 234.273507,91.6738746 234.272888,91.6521552 Z" id="Path" fill="#014D40" fill-rule="nonzero"></path>
                        <path d="M196.463767,63.7565382 L196.433806,63.6727907 C196.382213,63.523619 196.329664,63.344803 196.279998,63.1376927 C196.134967,62.5328927 196.047238,61.8304756 196.047238,61.0404731 L196.049382,60.0708457 C196.06774,56.0698932 196.205718,53.5913157 196.529224,52.360972 C196.65365,51.9074858 196.758896,51.7769648 196.786037,51.7718716 C196.795418,51.7701111 196.888795,51.8057895 197.012046,51.8985551 C197.086028,51.9542384 197.146341,52.0106084 197.180369,52.0463415 L197.19753,52.0651344 C197.46428,52.37382 197.930555,52.4076361 198.238984,52.1406647 C198.547413,51.8736934 198.581201,51.4070312 198.314452,51.0983455 C198.223769,50.9934066 198.083634,50.855881 197.899601,50.7173668 C197.477293,50.399514 197.01912,50.2244504 196.513898,50.3192582 C195.831413,50.4473304 195.363733,51.0273292 195.103174,51.9772946 C194.705843,53.4882439 194.570537,56.3126862 194.570537,61.0404731 C194.570537,61.9500868 194.67267,62.7678232 194.844074,63.4826009 L194.901975,63.7109069 C194.988806,64.0346791 195.074224,64.2739473 195.140472,64.4231282 C195.306087,64.7960715 195.742423,64.9640327 196.115057,64.7982801 C196.447312,64.6504884 196.616738,64.2872877 196.532154,63.9459406 L196.513295,63.882252 L196.463767,63.7565382 Z" id="Path" fill="#014D40" fill-rule="nonzero"></path>
                        <path d="M240.197577,54.625048 L240.259172,54.6911187 L240.355462,54.8035176 C240.481953,54.9564873 240.608947,55.1312499 240.727268,55.3236813 C241.058849,55.8629472 241.255361,56.4283889 241.255361,56.9867303 C241.255361,57.2667875 241.120472,57.464468 240.867631,57.6181061 C240.769041,57.6780138 240.66032,57.7254245 240.551393,57.7604659 L240.483759,57.7807092 L240.421747,57.7956093 C240.192358,57.8366055 240.039609,58.0559499 240.080571,58.2855287 C240.121533,58.5151075 240.340696,58.6679839 240.570084,58.6269877 C240.764509,58.5922401 241.032133,58.5061466 241.30556,58.3399995 C241.791069,58.0449811 242.09919,57.5934294 242.09919,56.9867303 C242.09919,56.2518856 241.852692,55.5426152 241.445922,54.8810654 C241.2052,54.4895672 240.963462,54.1972237 240.794254,54.0278753 C240.629486,53.8629706 240.362344,53.8629706 240.197577,54.0278753 C240.032809,54.19278 240.032809,54.4601433 240.197577,54.625048 Z" id="Path" fill="#014D40" fill-rule="nonzero"></path>
                    </g>
                </g>
            </g>
        </g>
    </g>
</svg>