<?xml version="1.0" encoding="UTF-8"?>
<svg width="20px" height="20px" viewBox="0 0 20 20" version="1.1" xmlns="http://www.w3.org/2000/svg" xmlns:xlink="http://www.w3.org/1999/xlink">
    <!-- Generator: sketchtool 57.1 (101010) - https://sketch.com -->
    <title>126E4742-7DD4-4143-8DA6-F7245226BF9A@1.00x</title>
    <desc>Created with sketchtool.</desc>
    <g id="Business-LP" stroke="none" stroke-width="1" fill="none" fill-rule="evenodd">
        <g id="Footer-Mobile" transform="translate(-209.000000, -631.000000)" fill="#FFFFFF">
            <path d="M211.874286,640.835714 C212.575714,640.757143 214.028571,640.65 214.714286,641 C215.901429,641.604286 217.191429,643.068571 217.191429,643.068571 L214.342857,646.375714 C215.595714,647.462857 217.211429,648.142857 219,648.142857 C222.945714,648.142857 226.142857,644.944286 226.142857,641 C226.142857,640.324286 226.02,639.682857 225.844286,639.064286 C225.262857,639.742857 224.084286,640.612857 224.084286,640.612857 C223.084286,640.501429 223.57,641.738571 223.57,641.738571 C223.991429,644.475714 222.54,644.812857 222.54,644.812857 C220.561429,646.845714 219,642.428571 219,642.428571 C218.634286,639.97 218.422857,639.182857 218.422857,639.182857 C215.89,637.6 218.385714,637.022857 218.922857,636.931429 C218.928571,636.93 218.931429,636.932857 218.938571,636.931429 C219.067143,636.912857 219.035714,636.911429 218.922857,636.931429 C218.205714,637.03 218.342857,636.594286 217.908571,635.805714 C217.47,635.01 216.934286,635.94 216.878571,635.805714 C216.824286,635.672857 216.571429,637.262857 215.85,637.494286 C215.128571,637.725714 215.335714,635.805714 215.335714,635.805714 C213.942857,637.938571 213.487143,637.394286 213.341429,636.692857 C212.461429,637.852857 211.91,639.275714 211.874286,640.835714 M219,651 C213.477143,651 209,646.522857 209,641 C209,635.477143 213.477143,631 219,631 C224.522857,631 229,635.477143 229,641 C229,646.522857 224.522857,651 219,651" id="Network-Icon"></path>
        </g>
    </g>
</svg>