<?xml version="1.0" encoding="UTF-8"?>
<svg width="298px" height="280px" viewBox="0 0 298 280" version="1.1" xmlns="http://www.w3.org/2000/svg" xmlns:xlink="http://www.w3.org/1999/xlink">
    <!-- Generator: sketchtool 58 (101010) - https://sketch.com -->
    <title>1D3564D7-293E-455E-A464-F6DCCB2A8B25@1.00x</title>
    <desc>Created with sketchtool.</desc>
    <defs>
        <polygon id="path-1" points="0 290 0 0 402 0 402 290"></polygon>
    </defs>
    <g id="Business-LP" stroke="none" stroke-width="1" fill="none" fill-rule="evenodd">
        <g id="Terms" transform="translate(0.000000, -10.000000)">
            <g id="bgl" transform="translate(-104.000000, 0.000000)">
                <mask id="mask-2" fill="white">
                    <use xlink:href="#path-1"></use>
                </mask>
                <g id="Mask"></g>
                <path d="M64.3014006,-219 L66.236585,-218.494964 L-4.271,51.673 L-4.271,53.064 L34.412,198.836 L217.943,198.836 L257.445,175.195 L224.614,51.48 L156.344611,10.7684005 C155.85846,10.4784894 155.923186,10.2544956 156.470463,10.2569352 L261.488597,10.7250749 C261.989921,10.7273096 262.15892,11.0241289 261.880187,11.4032299 L261.813564,11.4856479 L226.662,51.397 L259.231,174.126 L259.253866,174.113904 L266.947,198.836 L318.168073,198.836676 L400.919163,167.275616 L401.63188,169.144315 L319.615,200.425 L391.47535,437.962957 L389.561031,438.542079 L317.65,200.836 L33.71,200.836 L5.348,235.713 L5.47645281,277.250846 C5.47815238,277.804054 5.11261377,277.990229 4.6681446,277.672502 L-44.7090843,242.375391 C-45.1572002,242.055057 -45.0807405,241.730167 -44.5272328,241.648086 L3.769,234.486 L32.395,199.282 L32.395,199.033 L-6.291,53.252 L-25.5204698,53.2525179 L-25.5204698,51.2525179 L-6.229,51.252 L64.3014006,-219 Z" id="gopher1" fill="#06B632" mask="url(#mask-2)"></path>
            </g>
        </g>
    </g>
</svg>