<?xml version="1.0" encoding="UTF-8"?>
<svg width="298px" height="271px" viewBox="0 0 298 271" version="1.1" xmlns="http://www.w3.org/2000/svg" xmlns:xlink="http://www.w3.org/1999/xlink">
    <!-- Generator: sketchtool 58 (101010) - https://sketch.com -->
    <title>23037DCA-0374-4C00-8B99-8A35048A05AF@1.00x</title>
    <desc>Created with sketchtool.</desc>
    <defs>
        <polygon id="path-1" points="1.8189894e-12 290 1.8189894e-12 0 402 0 402 290"></polygon>
    </defs>
    <g id="Business-LP" stroke="none" stroke-width="1" fill="none" fill-rule="evenodd">
        <g id="Terms" transform="translate(-1302.000000, 0.000000)">
            <g id="bgr" transform="translate(1302.000000, 0.000000)">
                <mask id="mask-2" fill="white">
                    <use xlink:href="#path-1"></use>
                </mask>
                <g id="Mask"></g>
                <path d="M185.306381,-260 L187.24206,-259.496862 L108.25,44.399 L108.25,45.8 L146.933,191.571 L330.461,191.571 L369.966,167.93 L337.136,44.216 L268.865081,3.5030704 C268.37893,3.21315934 268.443656,2.98916556 268.990933,2.99160516 L374.009067,3.4597448 C374.510391,3.46197955 374.67939,3.75879879 374.400657,4.13789981 L374.334034,4.22031778 L339.182,44.132 L371.751,166.862 L371.774336,166.848574 L379.467,191.571 L402.392049,191.571346 L402.392049,193.571346 L146.23,193.571 L117.868,228.448 L117.996923,269.985516 C117.998622,270.538724 117.633084,270.724899 117.188614,270.407172 L67.8113856,235.110061 C67.3632697,234.789727 67.4397293,234.464837 67.9932371,234.382756 L116.29,227.22 L144.915,192.019 L144.915,191.764 L106.23,45.987 L0,45.9871879 L0,43.9871879 L106.291,43.987 L185.306381,-260 Z" id="gopher2" fill="#06B632" mask="url(#mask-2)"></path>
            </g>
        </g>
    </g>
</svg>