<?xml version="1.0" encoding="UTF-8"?>
<svg width="378px" height="345px" viewBox="0 0 378 345" version="1.1" xmlns="http://www.w3.org/2000/svg" xmlns:xlink="http://www.w3.org/1999/xlink">
    <!-- Generator: sketchtool 59 (101010) - https://sketch.com -->
    <title>ABEF7D19-06EB-4DC3-B70B-9CE660F435E2@1.00x</title>
    <desc>Created with sketchtool.</desc>
    <g id="Business-LP" stroke="none" stroke-width="1" fill="none" fill-rule="evenodd">
        <g id="Features" transform="translate(-854.000000, -830.000000)">
            <g id="Illustrations/illust-feat/link-system" transform="translate(814.000000, 827.000000)">
                <rect id="Rectangle-Copy-4" x="0" y="0" width="458" height="349" rx="5"></rect>
                <path d="M159.446182,324.956106 L159.491742,325.063671 L159.991742,326.463671 C160.177495,326.98378 159.906446,327.555996 159.386336,327.741749 C158.903377,327.914234 158.375491,327.692844 158.153818,327.243908 L158.108258,327.136343 L157.608258,325.736343 C157.422505,325.216234 157.693554,324.644019 158.213664,324.458265 C158.696623,324.28578 159.224509,324.50717 159.446182,324.956106 Z M157.241257,318.846299 L157.287994,318.953357 L158.420188,322.016941 C158.611638,322.534981 158.346884,323.110136 157.828844,323.301585 C157.347807,323.47936 156.817523,323.263775 156.590937,322.817299 L156.5442,322.710241 L155.412006,319.646657 C155.220556,319.128617 155.48531,318.553462 156.00335,318.362013 C156.484387,318.184238 157.014671,318.399822 157.241257,318.846299 Z M155.546182,314.356106 L155.591742,314.463671 L156.091742,315.863671 C156.277495,316.38378 156.006446,316.955996 155.486336,317.141749 C155.003377,317.314234 154.475491,317.092844 154.253818,316.643908 L154.208258,316.536343 L153.708258,315.136343 C153.522505,314.616234 153.793554,314.044019 154.313664,313.858265 C154.796623,313.68578 155.324509,313.90717 155.546182,314.356106 Z M89.5899401,310.527334 C89.9328695,310.904557 89.9335873,311.472465 89.6102482,311.849803 L89.5226728,311.939947 L88.4226728,312.939947 C88.0140152,313.311454 87.3815669,313.281337 87.0100599,312.87268 C86.6671305,312.495457 86.6664127,311.927549 86.9897518,311.550211 L87.0773272,311.460067 L88.1773272,310.460067 C88.5859848,310.08856 89.2184331,310.118677 89.5899401,310.527334 Z M93.7755081,306.977855 C94.109778,307.362772 94.0975918,307.93055 93.7657626,308.300444 L93.6761616,308.388575 L91.5937803,310.196959 C91.1767871,310.559085 90.5451863,310.514606 90.1830606,310.097612 C89.8487907,309.712695 89.8609768,309.144918 90.192806,308.775023 L90.282407,308.686893 L92.3647883,306.878509 C92.7817816,306.516383 93.4133823,306.560862 93.7755081,306.977855 Z M100.074415,208.325416 L100.1865,208.358323 L209.8865,247.558323 C210.406577,247.744167 210.677527,248.316429 210.491684,248.836507 C210.319115,249.319436 209.813358,249.587556 209.325585,249.474598 L209.2135,249.441691 L150.318993,228.395735 L138.800993,268.759735 L153.488423,308.654518 C153.665602,309.135775 153.449361,309.665792 153.002605,309.891825 L152.895489,309.93843 C152.414232,310.115609 151.884215,309.899368 151.658182,309.452612 L151.611577,309.345496 L146.667993,295.917735 L116.406993,288.699735 L109.106497,295.054335 C108.72194,295.389019 108.154149,295.377442 107.783899,295.046011 L107.695672,294.956504 C107.360988,294.571947 107.372565,294.004156 107.703996,293.633906 L107.793503,293.545679 L136.869778,268.240388 L148.431993,227.721735 L99.5135005,210.241691 C99.0305714,210.069122 98.762451,209.563365 98.8754088,209.075592 L98.9083164,208.963508 C99.0808854,208.480578 99.5866418,208.212458 100.074415,208.325416 Z M97.9402706,303.361088 C98.2745405,303.746005 98.2623544,304.313782 97.9305252,304.683677 L97.8409241,304.771808 L95.7585429,306.580191 C95.3415496,306.942317 94.7099488,306.897838 94.3478231,306.480845 C94.0135532,306.095928 94.0257393,305.52815 94.3575685,305.158256 L94.4471696,305.070125 L96.5295508,303.261741 C96.9465441,302.899616 97.5781449,302.944095 97.9402706,303.361088 Z M102.105033,299.74432 C102.439303,300.129237 102.427117,300.697015 102.095288,301.066909 L102.005687,301.15504 L99.9233054,302.963424 C99.5063121,303.32555 98.8747114,303.281071 98.5125856,302.864077 C98.1783157,302.479161 98.1905018,301.911383 98.5223311,301.541488 L98.6119321,301.453358 L100.694313,299.644974 C101.111307,299.282848 101.742907,299.327327 102.105033,299.74432 Z M105.323957,296.966769 C105.646783,297.361334 105.617933,297.928509 105.275388,298.288502 L105.183238,298.373964 L104.083238,299.273964 C103.655793,299.623692 103.02577,299.56069 102.676043,299.133245 C102.353217,298.73868 102.382067,298.171505 102.724612,297.811512 L102.816762,297.72605 L103.916762,296.82605 C104.344207,296.476322 104.97423,296.539324 105.323957,296.966769 Z M137.093503,268.045679 L136.869778,268.240388 L136.788389,268.525591 C136.841923,268.340729 136.945398,268.175573 137.089538,268.048789 L137.093503,268.045679 Z M228.779141,108.615488 L228.859152,108.712408 L258.755929,149.880936 L310.6416,110.106376 C311.046194,109.796213 311.61217,109.843017 311.961131,110.196796 L312.043631,110.291607 C312.353794,110.696201 312.30699,111.262178 311.953211,111.611138 L311.8584,111.693638 L259.372929,151.927936 L240.775804,197.47801 C240.581951,197.952796 240.064782,198.198182 239.582508,198.063666 L239.471997,198.025811 C238.997211,197.831958 238.751825,197.314789 238.886341,196.832515 L238.924196,196.722004 L257.413816,151.437267 L227.240848,109.887606 C226.916326,109.440723 227.015519,108.815376 227.462401,108.490855 C227.874908,108.191296 228.439479,108.252772 228.779141,108.615488 Z M73.1044414,41.1802762 L73.1591315,41.283498 L92.7567553,84.0600372 L144.062452,123.809499 C144.499037,124.147747 144.578756,124.775873 144.240508,125.212459 C143.928279,125.615461 143.369053,125.714387 142.94148,125.46118 L142.837548,125.390515 L113.738727,102.845764 L83.6337275,111.460764 L62.6937559,171.23065 C62.5241903,171.714642 62.0201093,171.985899 61.5316433,171.875974 L61.419357,171.843763 C60.9353651,171.674197 60.6641081,171.170116 60.7740335,170.68165 L60.8062441,170.569364 L90.8727275,84.7487641 L71.3408685,42.1165162 C71.1272677,41.6502809 71.3021825,41.1052278 71.7302691,40.8455657 L71.8334909,40.7908755 C72.2997261,40.5772747 72.8447792,40.7521896 73.1044414,41.1802762 Z" id="Combined-Shape" fill="#014D40" fill-rule="nonzero"></path>
                <g id="Group-4" stroke-width="1" fill-rule="evenodd" transform="translate(177.397202, 176.650007)">
                    <rect id="Rectangle" fill="#E2FFE9" fill-rule="nonzero" x="26.9527975" y="7.15" width="158.1" height="150.8"></rect>
                    <path d="M25.2027975,7.15 C25.2027975,6.18350169 25.9862992,5.4 26.9527975,5.4 L185.052798,5.4 C186.019296,5.4 186.802798,6.18350169 186.802798,7.15 L186.802798,157.95 C186.802798,158.916498 186.019296,159.7 185.052798,159.7 L26.9527975,159.7 C25.9862992,159.7 25.2027975,158.916498 25.2027975,157.95 L25.2027975,7.15 Z M28.7027975,8.9 L28.7027975,156.2 L183.302798,156.2 L183.302798,8.9 L28.7027975,8.9 Z" id="Rectangle" fill="#014D40" fill-rule="nonzero"></path>
                    <path d="M68.3527975,104.15 C111.452798,96.95 152.252798,121.45 148.152798,143.65 C146.352798,153.55 138.152798,159.75 122.252798,159.75 L23.5527975,159.75 L23.5527975,123.95 C23.5527975,123.95 34.0527975,109.95 68.3527975,104.15 Z" id="Path" fill="#06EC40" fill-rule="nonzero"></path>
                    <path d="M21.8027975,123.95 C21.8027975,123.571352 21.9256088,123.202918 22.1527975,122.9 L22.3656893,122.6279 C22.9522964,121.905473 23.9490451,120.870641 25.4079001,119.611913 L25.9811102,119.125919 C29.2242519,116.422625 33.4177806,113.733534 38.6631648,111.23466 C46.6595807,107.425208 56.4045467,104.395561 68.0644499,102.423919 C88.7330138,98.9711659 110.206366,102.537532 126.773132,111.329183 C142.895888,119.885206 152.037192,132.25328 149.87457,143.96305 C147.81947,155.266101 138.286916,161.5 122.252798,161.5 L23.5527975,161.5 C22.5862992,161.5 21.8027975,160.716498 21.8027975,159.75 L21.8027975,123.95 Z M25.3027975,158 L122.252798,158 C136.737962,158 144.713296,152.784458 146.4319,143.332177 C148.259256,133.43771 140.05799,122.341495 125.132463,114.420817 C109.241469,105.987786 88.546887,102.55076 68.6445739,105.875505 C57.3021481,107.793466 47.867498,110.726638 40.1684587,114.394421 C35.1875282,116.76731 31.2410734,119.297966 28.2220865,121.814418 C27.2961095,122.586259 26.5222294,123.304238 25.8911999,123.953331 L25.528562,124.335474 L25.3027975,124.583851 L25.3027975,158 Z" id="Path" fill="#014D40" fill-rule="nonzero"></path>
                    <path d="M90.9819098,145.198564 L92.1556091,145.236025 L92.697713,145.249684 C97.4142451,145.36053 102.615152,145.311283 107.532601,144.985043 L108.53672,144.914549 C117.784196,144.228253 123.542978,142.737163 125.123333,139.521958 C126.016963,137.645649 125.42526,135.965869 124.064458,134.791044 C123.587501,134.379271 123.120409,134.107839 122.75759,133.948199 C121.87294,133.558953 120.840242,133.960557 120.450996,134.845207 C120.082237,135.683297 120.423271,136.65426 121.212382,137.08511 L121.348005,137.151801 C121.419213,137.183133 121.603163,137.290028 121.777248,137.440322 C122.057072,137.681903 122.08516,137.761643 121.972792,137.997616 C121.194554,139.580621 115.555362,140.945091 107.300909,141.49272 C102.940746,141.781988 98.3261395,141.848227 94.0515335,141.776291 L92.2507841,141.737319 L91.1236853,141.701436 C90.1579802,141.662286 89.3433841,142.413407 89.3042339,143.379112 C89.2650837,144.344817 90.0162048,145.159413 90.9819098,145.198564 Z" id="Path" fill="#014D40" fill-rule="nonzero"></path>
                    <path d="M81.1527975,98.6576883 L83.7527975,107.65 C83.1297572,108.390913 86.3204247,108.386541 87.5527975,111.749998 C88.5086496,114.358759 87.5161845,119.908405 87.5527975,123.582835 C87.6180486,130.131337 83.189661,139.453527 81.3527975,139.550167 C78.9335288,139.677448 71.8707706,128.32177 67.2495511,119.450116 C64.8124079,114.771375 62.8527975,109.65 62.8527975,109.65 L63.7528544,97.9499929 L76.1587283,99.4177035 L81.1527975,98.6576883 Z" id="Path" fill="#FFFFFF" fill-rule="nonzero"></path>
                    <path d="M79.1527975,93.6 C79.8828463,93.6 80.5361927,94.0532005 80.7919206,94.7369946 L85.3919206,107.036995 C85.6130903,107.628383 85.4985454,108.293056 85.0921812,108.7763 C80.9307896,113.724982 69.9423882,114.640682 62.1550268,111.254873 C61.4587939,110.952163 61.0371515,110.235067 61.1111244,109.479487 L62.5111244,95.1794866 C62.5988616,94.283314 63.3523404,93.6 64.2527975,93.6 L79.1527975,93.6 Z M65.8398356,97.1 L64.7231656,108.505986 C70.6754032,110.612204 78.3815891,109.998899 81.7198301,107.2099 L77.938892,97.1 L65.8398356,97.1 Z" id="Path" fill="#014D40" fill-rule="nonzero"></path>
                    <path d="M39.9527975,69.25 C39.9527975,69.25 35.1527975,34.35 63.7527975,31.75 C93.7527975,28.95 93.9527975,59.75 93.9527975,59.75 C94.2527975,64.15 94.2527975,80.35 94.0527975,83.85 C93.7527975,89.35 86.3527975,98.95 77.9527975,99.35 C58.6527975,100.35 50.2527975,90.05 44.6527975,83.15 C41.9527975,80.05 40.7527975,75.55 39.9527975,69.25" id="Path" fill="#FFFFFF" fill-rule="nonzero"></path>
                    <path d="M38.1152098,68.5513201 L38.170365,69.0912937 L38.2178822,69.4794548 C39.1376191,76.7168478 40.54219,81.0949253 43.3331547,84.2993663 L44.1494005,85.298584 C48.2731003,90.3089561 51.0082286,93.0086988 55.2266823,95.6894907 C61.4464529,99.6421027 68.8746351,101.572719 78.0433496,101.097656 C86.5300153,100.693544 95.4036297,91.2157686 95.8002,83.9453129 L95.8230059,83.4830108 L95.8438176,82.9336408 C96.0155599,77.8141813 95.9632218,63.6276846 95.7021877,59.6822355 L95.6849939,59.163285 L95.666074,58.8155063 C95.6584576,58.6901098 95.6494773,58.5553568 95.6389704,58.4115886 C95.5649806,57.3991687 95.4368052,56.2754129 95.2412438,55.067253 C94.6821712,51.6133546 93.6928991,48.1563679 92.1596828,44.9122506 C87.2342558,34.4905885 77.9653821,28.6658864 63.590171,30.0075728 C50.7227326,31.1773348 43.0766358,38.5598297 39.7405743,49.9309285 C37.9744908,55.950695 37.6179597,62.2603719 38.0565535,67.8666986 L38.1152098,68.5513201 Z M41.7542017,69.5326289 L41.6449772,68.6623973 C41.61141,68.3566659 41.5776002,67.999031 41.545892,67.5937209 C41.1376015,62.374746 41.4716328,56.4632564 43.0990228,50.9162326 C46.0575433,40.8319972 52.5931248,34.5217322 63.9112351,33.4928131 C76.761385,32.2934709 84.6749885,37.2665004 88.9952918,46.4077872 C90.3754436,49.3280367 91.276206,52.4757285 91.7862137,55.6265088 C91.9393138,56.5723468 92.0468919,57.4588855 92.1165662,58.2684248 L92.1482799,58.6666959 C92.1679354,58.9356454 92.1812776,59.1636711 92.1898542,59.34728 L92.2068511,59.8690418 L92.2488757,60.6152354 L92.2849184,61.4926256 C92.4864547,67.1110858 92.4984008,80.3769833 92.3056477,83.7501629 C92.0037235,89.2853322 84.5134273,97.2856061 77.8695585,97.6019808 C69.4157,98.0399892 62.7073874,96.2964704 57.1039127,92.7355093 C53.021923,90.1414391 50.4193828,87.4782236 46.0115992,82.0472044 C43.8070618,79.5144997 42.5917085,75.8355906 41.7542017,69.5326289 Z" id="Path" fill="#014D40" fill-rule="nonzero"></path>
                    <path d="M26.9527975,19.55 L185.052798,19.55 C185.605082,19.55 186.052798,19.1022847 186.052798,18.55 C186.052798,17.9977153 185.605082,17.55 185.052798,17.55 L26.9527975,17.55 C26.4005128,17.55 25.9527975,17.9977153 25.9527975,18.55 C25.9527975,19.1022847 26.4005128,19.55 26.9527975,19.55 Z" id="Path" fill="#014D40" fill-rule="nonzero"></path>
                    <path d="M173.152798,33.95 C173.152798,16.15 157.652798,1.75 138.452798,1.75 C119.252798,1.75 103.752798,16.15 103.752798,33.95 C103.752798,44.95 109.652798,54.65 118.752798,60.45 L118.752798,75.95 C118.752798,75.95 126.152798,77.55 138.352798,77.55 C150.552798,77.55 158.352798,75.95 158.352798,75.95 L158.352798,60.45 C167.152798,54.55 173.152798,44.85 173.152798,33.95 Z" id="Path" fill="#FFFFFF" fill-rule="nonzero"></path>
                    <path d="M117.002798,75.95 C117.002798,76.7739805 117.577595,77.4863407 118.382965,77.6604748 L118.855396,77.7552598 L119.585051,77.8873009 L119.807032,77.9253584 C120.940904,78.117676 122.265875,78.3093534 123.771832,78.4878372 C128.057191,78.9957317 132.944502,79.3 138.352798,79.3 C143.759608,79.3 148.719844,78.9959242 153.127915,78.4885203 C154.482269,78.3326235 155.700409,78.1667006 156.773488,77.9991613 L157.697767,77.8484312 L158.70445,77.6643047 C159.518453,77.4973297 160.102798,76.7809524 160.102798,75.95 L160.102798,61.3695429 C169.262226,54.8926908 174.902798,44.7816885 174.902798,33.95 C174.902798,15.1474317 158.585178,1.13686838e-13 138.452798,1.13686838e-13 C118.320417,1.13686838e-13 102.002798,15.1474317 102.002798,33.95 C102.002798,44.821028 107.485319,54.7788988 116.580463,61.1053571 L117.002798,61.3947591 L117.002798,75.95 Z M156.602798,60.45 L156.602798,74.4823811 L155.734143,74.6172463 L154.797947,74.751122 C154.151567,74.8397969 153.46095,74.9270745 152.72768,75.0114797 C148.448251,75.5040758 143.620987,75.8 138.352798,75.8 C133.086093,75.8 128.335904,75.5042683 124.183763,75.0121628 L123.166908,74.8860075 L122.213888,74.7567725 C121.60001,74.6698231 121.029264,74.5815217 120.502798,74.4932711 L120.502798,60.45 C120.502798,59.8521162 120.197562,59.2956081 119.693379,58.9742605 C110.848762,53.3370325 105.502798,44.0775145 105.502798,33.95 C105.502798,17.1410145 120.197624,3.5 138.452798,3.5 C156.707971,3.5 171.402798,17.1410145 171.402798,33.95 C171.402798,43.8735485 166.056563,53.178053 157.378264,58.9964581 C156.893615,59.3213929 156.602798,59.8665047 156.602798,60.45 Z" id="Path" fill="#014D40" fill-rule="nonzero"></path>
                    <path d="M158.152798,82.35 C158.152798,82.35 159.352798,80.95 159.352798,79.25 C159.352798,77.55 158.152798,75.95 158.152798,75.95 C158.152798,75.95 150.252798,77.75 138.152798,77.75 C126.052798,77.75 118.552798,75.95 118.552798,75.95 C118.552798,75.95 117.352798,77.35 117.352798,79.15 C117.352798,80.95 118.552798,82.35 118.552798,82.35 C118.552798,82.35 117.352798,83.75 117.352798,85.55 C117.352798,87.25 118.452798,88.65 118.552798,88.75 C118.452798,88.85 117.352798,90.25 117.352798,91.85 C117.352798,92.25 117.352798,92.55 117.452798,92.85 C117.752798,94.15 118.752798,95.15 119.952798,95.35 C122.652798,95.85 129.052798,96.85 138.152798,96.85 C147.252798,96.85 153.952798,95.85 156.752798,95.35 C157.952798,95.15 159.052798,94.05 159.252798,92.55 C159.252798,92.35 159.252798,92.15 159.252798,91.95 C159.252798,90.35 158.152798,88.85 158.052798,88.65 C158.152798,88.55 159.252798,87.15 159.252798,85.55 C159.352798,83.95 158.152798,82.35 158.152798,82.35 Z" id="Path" fill="#FFFFFF" fill-rule="nonzero"></path>
                    <path d="M157.919797,74.2155516 C158.543668,74.1315719 159.170209,74.3898818 159.552798,74.9 C159.763857,75.1814128 160.045795,75.6238988 160.324407,76.192732 C160.806892,77.1778056 161.102798,78.2011444 161.102798,79.25 C161.102798,80.3160539 160.796483,81.3243404 160.296915,82.2610294 L160.296915,82.2610294 L160.221963,82.3985564 L160.275113,82.5046197 C160.770472,83.5085465 161.057011,84.5451377 161.0025,85.6045638 C160.990336,86.7229678 160.606489,87.8573739 160.124175,88.7319203 L160.124175,88.7319203 L160.218061,88.9151999 C160.70654,89.9036917 161.002798,90.9082391 161.002798,91.95 L161.002798,91.95 L161.002798,92.55 C161.002798,92.62735 160.997669,92.704615 160.987446,92.7812865 C160.695131,94.9736538 159.065935,96.7386162 157.060431,97.0727483 C152.045396,97.9682902 145.652493,98.6 138.152798,98.6 C130.659667,98.6 124.526198,97.97668 119.665099,97.0761894 C117.77066,96.7604494 116.244436,95.2557436 115.76681,93.3238337 C115.624439,92.8710952 115.602798,92.5515887 115.602798,91.85 C115.602798,90.7466054 115.969285,89.6232465 116.439481,88.7452492 C115.967771,87.8515287 115.602798,86.7000767 115.602798,85.55 C115.602798,84.4499456 115.905479,83.4157825 116.401274,82.4655095 L116.401274,82.4655095 L116.46266,82.35 L116.401274,82.2344905 C115.905479,81.2842175 115.602798,80.2500544 115.602798,79.15 C115.602798,78.0499456 115.905479,77.0157825 116.401274,76.0655095 C116.694,75.5044517 116.993553,75.0800852 117.224098,74.8111151 C117.651609,74.3123534 118.322431,74.0950177 118.9612,74.2483222 C119.006519,74.2591986 119.108883,74.2825122 119.266868,74.3165109 L119.266868,74.3165109 L119.966715,74.4594635 L120.654373,74.5886491 C121.644164,74.7680652 122.777166,74.9467198 124.045745,75.1152396 C128.205906,75.6678808 132.938604,76 138.152798,76 C143.368648,76 148.178667,75.6676378 152.466348,75.1143887 C153.961933,74.92141 155.283608,74.7150774 156.41682,74.5093851 L156.41682,74.5093851 L157.067839,74.3870635 L157.727098,74.2519881 Z M157.265386,77.9121182 L156.58641,78.0341258 C155.502987,78.2229524 154.275727,78.4099364 152.914247,78.5856113 C148.483178,79.1573622 143.524447,79.5 138.152798,79.5 C132.779491,79.5 127.893439,79.1571192 123.58485,78.5847604 C122.070592,78.3836045 120.734723,78.1675609 119.588503,77.9507628 L119.588503,77.9507628 L119.393317,77.9135052 C119.20774,78.3280577 119.102798,78.7491411 119.102798,79.15 C119.102798,79.6249456 119.250116,80.1282825 119.504321,80.6155095 C119.661595,80.9169517 119.812042,81.1300852 119.881497,81.2111151 L119.881497,81.2111151 L119.980239,81.3374951 C120.441037,81.9861365 120.408123,82.8744877 119.881497,83.4888849 L119.881497,83.4888849 L119.846988,83.5315723 C119.768918,83.6326123 119.639127,83.8261115 119.504321,84.0844905 C119.250116,84.5717175 119.102798,85.0750544 119.102798,85.55 C119.102798,85.9979536 119.240616,86.4875184 119.480545,86.9673762 C119.628567,87.2634194 119.816015,87.5383441 119.790234,87.5125631 C120.473652,88.1959806 120.473652,89.3040194 119.790234,89.9874369 C119.818621,89.9590499 119.822981,89.9575005 119.814884,89.9708366 L119.814884,89.9708366 L119.666113,90.1940708 C119.600296,90.2993101 119.534988,90.4137555 119.473558,90.5339444 C119.237212,90.9963604 119.102798,91.4557779 119.102798,91.85 C119.102798,92.208046 119.108594,92.2834045 119.112993,92.2966014 L119.112993,92.2966014 L119.19694,92.598642 C119.374016,93.1543019 119.80037,93.5504784 120.271454,93.6292565 C124.96318,94.4980948 130.885928,95.1 138.152798,95.1 C145.433102,95.1 151.623031,94.488347 156.465099,93.6238106 C156.917812,93.5483585 157.380107,93.0666449 157.502798,92.4143229 L157.502798,92.4143229 L157.502798,91.95 C157.502798,91.5283012 157.351025,91.0136736 157.080278,90.4657849 C157.051473,90.4074953 157.012071,90.3339055 156.967166,90.2529618 L156.967166,90.2529618 L156.821037,89.9960153 L156.48755,89.4326238 C156.150685,88.7588936 156.28273,87.9451936 156.815361,87.4125631 C156.786974,87.4409501 156.782615,87.4424995 156.790711,87.4291634 L156.790711,87.4291634 L156.939482,87.2059292 C157.005299,87.1006899 157.070607,86.9862445 157.132037,86.8660556 C157.368383,86.4036396 157.502798,85.9442221 157.502798,85.55 L157.502798,85.55 L157.506206,85.440838 C157.529285,85.0715715 157.393817,84.5750203 157.136402,84.0533259 C157.070325,83.9194105 157.004786,83.7994255 156.945307,83.6978225 L156.945307,83.6978225 L156.836064,83.5204449 L156.661323,83.2655411 C156.266857,82.623772 156.325891,81.7923573 156.824098,81.2111151 L156.824098,81.2111151 L156.914265,81.093962 C156.99377,80.9829084 157.099973,80.8177962 157.20868,80.6139706 C157.459112,80.1444096 157.602798,79.6714461 157.602798,79.25 C157.602798,78.8596607 157.480773,78.3946735 157.265386,77.9121182 L157.265386,77.9121182 Z M124.511833,87.7516488 L124.627831,87.7654375 C133.512658,89.3449624 143.195455,89.3449624 152.281456,87.7647882 C152.825574,87.6701591 153.34338,88.0345414 153.438009,88.5786588 C153.532638,89.1227763 153.168256,89.6405826 152.624139,89.7352118 C143.31014,91.3550376 133.392937,91.3550376 124.277764,89.7345625 C123.734005,89.6378943 123.371567,89.1187255 123.468235,88.5749667 C123.564903,88.0312078 124.084072,87.6687693 124.627831,87.7654375 Z M124.511833,82.3516488 L124.627831,82.3654375 C133.512658,83.9449624 143.195455,83.9449624 152.281456,82.3647882 C152.825574,82.2701591 153.34338,82.6345414 153.438009,83.1786588 C153.532638,83.7227763 153.168256,84.2405826 152.624139,84.3352118 C143.31014,85.9550376 133.392937,85.9550376 124.277764,84.3345625 C123.734005,84.2378943 123.371567,83.7187255 123.468235,83.1749667 C123.564903,82.6312078 124.084072,82.2687693 124.627831,82.3654375 Z" id="Combined-Shape" fill="#014D40" fill-rule="nonzero"></path>
                    <path d="M148.507254,39.9792582 L147.941426,40.1100475 L148.049613,38.6297452 C148.19871,36.7660331 148.714458,36.15 149.652798,36.15 C150.776273,36.15 152.052798,37.1428525 152.052798,38.15 C152.052798,38.6641827 150.835354,39.4073035 148.507254,39.9792582 Z M138.352798,40.975 C135.647072,40.975 133.023804,40.800532 130.794861,40.4741446 L130.649613,38.4702548 C130.424754,35.6595197 129.16097,34.15 127.052798,34.15 C124.91913,34.15 122.652798,35.9127031 122.652798,38.15 C122.652798,40.1053162 125.05808,41.4475933 128.911383,42.2107495 L130.95507,72.2173707 C130.992277,72.7684007 131.469138,73.1849358 132.020168,73.147728 C132.571198,73.1105202 132.987733,72.6336593 132.950526,72.0826293 L130.939215,42.5422264 C133.12091,42.8322123 135.633595,42.975 138.352798,42.975 C141.072,42.975 143.584685,42.8322123 145.76638,42.5422264 L143.75507,72.0826293 C143.717862,72.6336593 144.134397,73.1105202 144.685427,73.147728 C145.236457,73.1849358 145.713318,72.7684007 145.750526,72.2173707 L147.794212,42.2107495 C151.647515,41.4475933 154.052798,40.1053162 154.052798,38.15 C154.052798,35.9127031 151.786465,34.15 149.652798,34.15 C147.612631,34.15 146.363254,35.5637021 146.08098,38.2023172 L146.035666,38.7344603 L145.910734,40.4741446 C143.681791,40.800532 141.058523,40.975 138.352798,40.975 Z M128.635431,38.4032338 L128.764169,40.1100475 L128.471891,40.0444706 C125.965691,39.4648053 124.652798,38.683959 124.652798,38.15 C124.652798,37.1428525 125.929322,36.15 127.052798,36.15 C127.952039,36.15 128.463173,36.7157665 128.635431,38.4032338 Z" id="Path" fill="#014D40" fill-rule="nonzero"></path>
                    <path d="M64.5922841,85.918333 C64.9248409,85.2020568 65.7558027,84.8663021 66.4926056,85.1504975 L66.4926056,85.1504975 L67.3818278,85.4791061 L68.266061,85.790693 C68.9365244,86.0219658 69.6313019,86.2502926 70.3325772,86.4666861 C71.1009203,86.7037748 71.8439728,86.9160755 72.5485813,87.0972606 C74.1865811,87.5184606 75.5372279,87.75 76.4527975,87.75 C77.94412,87.75 78.9087724,87.419262 79.5016105,86.9111151 C79.7144385,86.7286911 79.8329335,86.5711627 79.8836671,86.4873849 L79.8836671,86.4873849 L79.9127975,86.43 C80.1447571,85.63471 80.9775075,85.1780404 81.7727975,85.41 C82.5680876,85.6419596 83.0247571,86.47471 82.7927975,87.27 C82.6291463,87.8310899 82.2202139,88.5321169 81.4539846,89.1888849 C80.7202147,89.8178305 79.7841151,90.2768533 78.6405494,90.5285558 L78.6405494,90.5285558 L78.5528283,90.7835131 C78.332083,91.3903193 77.9973878,92.0769303 77.5170045,92.7691225 C75.7665112,95.2914371 72.9374153,96.4437313 69.1345822,95.3905193 C66.3999684,94.5965992 64.7462173,93.0259421 64.1520016,90.9350653 C63.7692198,89.5881646 63.8640679,88.2097872 64.2405566,86.8984281 C64.365014,86.4649265 64.4938547,86.1303348 64.5922841,85.918333 Z M66.9560853,88.5114047 C66.8787473,89.0700968 66.8967452,89.6188751 67.037729,90.1149573 C67.3401219,91.1789923 68.19947,91.9951618 69.9531162,92.504405 C72.4605821,93.1987802 74.0031875,92.5704752 75.0523847,91.0586696 C75.1373135,90.9362943 75.216794,90.8105176 75.2908966,90.6823726 L75.2908966,90.6823726 L74.9501126,90.6418534 C74.0252282,90.5215357 72.9718095,90.3036869 71.8014582,90.0027394 C71.0477334,89.8089245 70.2595359,89.5837252 69.4480178,89.3333139 C68.5967109,89.0706249 67.7573443,88.7920782 66.9560853,88.5114047 Z M74.9234594,62.9551187 C77.3861361,58.2439111 82.2365658,57.1151947 87.9778168,58.8114734 C88.772293,59.0462051 89.2260557,59.8805429 88.9913241,60.6750192 C88.7565925,61.4694955 87.9222546,61.9232582 87.1277783,61.6885266 C82.6103013,60.3538174 79.2609562,61.1332248 77.5717355,64.3644247 C76.7614655,65.8603078 76.705911,66.6504643 77.203615,68.0220063 C78.3203222,65.2819003 81.0109501,63.35 84.1527975,63.35 C88.2949332,63.35 91.6527975,66.7078644 91.6527975,70.85 C91.6527975,74.9921356 88.2949332,78.35 84.1527975,78.35 C83.3972097,78.35 82.6677186,78.2382662 81.9799459,78.0304201 L82.0890179,78.1985096 L82.0890179,78.1985096 L82.2733977,78.4781427 L82.3899078,78.6522066 C83.1649068,79.8898749 83.0875546,81.5175013 82.1359121,82.673535 L82.1359121,82.673535 L81.9507303,82.9190723 C80.2591615,85.0914266 77.8931772,86.25 74.7527975,86.25 C73.9243704,86.25 73.2527975,85.5784271 73.2527975,84.75 C73.2527975,83.9215729 73.9243704,83.25 74.7527975,83.25 C77.0607842,83.25 78.5929307,82.4555536 79.7367787,80.8717642 L79.7367787,80.8717642 L79.8139126,80.7738129 C79.9435575,80.6225606 79.9504727,80.3874428 79.8047221,80.1820503 C77.9010735,77.3265775 76.505937,74.4289862 74.5600825,69.507086 L74.5600825,69.507086 L74.4545659,69.2358681 C73.6098801,66.9991755 73.6358813,65.3318561 74.9234594,62.9551187 Z M61.2527975,65.75 C65.3949332,65.75 68.7527975,69.1078644 68.7527975,73.25 C68.7527975,77.3921356 65.3949332,80.75 61.2527975,80.75 C57.1106619,80.75 53.7527975,77.3921356 53.7527975,73.25 C53.7527975,69.1078644 57.1106619,65.75 61.2527975,65.75 Z M58.8693541,68.2924099 L58.7807883,68.3355018 C56.9847469,69.2406924 55.7527975,71.1014776 55.7527975,73.25 C55.7527975,76.2875661 58.2152314,78.75 61.2527975,78.75 C63.0630191,78.75 64.6689824,77.8754662 65.6712403,76.5258459 C64.495655,76.6287519 63.2985851,76.3945055 62.1527975,75.75 C59.33588,74.3415412 57.9912814,71.1508015 58.8693541,68.2924099 Z M81.6518835,65.9503141 L81.4970305,66.0325236 C79.8012497,66.9693646 78.6527975,68.7755646 78.6527975,70.85 C78.6527975,71.1578803 78.678095,71.4598521 78.7267247,71.7539501 C79.1409467,72.7120125 79.5353592,73.5738193 79.9261543,74.3698152 C80.9342779,75.5794012 82.4535462,76.35 84.1527975,76.35 C85.9679285,76.35 87.5776918,75.4707163 88.5793814,74.1148547 C87.3691808,74.2427438 86.1337499,74.0142857 84.9527975,73.35 C82.1548866,71.9510445 80.8094933,68.7937783 81.6518835,65.9503141 Z M63.7527975,68.65 C62.8691419,68.65 62.1527975,69.3663444 62.1527975,70.25 C62.1527975,71.1336556 62.8691419,71.85 63.7527975,71.85 C64.6364531,71.85 65.3527975,71.1336556 65.3527975,70.25 C65.3527975,69.8120607 65.1768498,69.4152161 64.8917874,69.1262995 C64.8149212,69.0579925 64.7362081,68.9922855 64.655677,68.9287815 C64.3989482,68.7530198 64.0879036,68.65 63.7527975,68.65 Z M86.5527975,66.25 C85.6691419,66.25 84.9527975,66.9663444 84.9527975,67.85 C84.9527975,68.7336556 85.6691419,69.45 86.5527975,69.45 C87.4364531,69.45 88.1527975,68.7336556 88.1527975,67.85 C88.1527975,66.9663444 87.4364531,66.25 86.5527975,66.25 Z M49.8293202,65.1534171 C53.3039746,61.9104063 60.8263818,60.67433 65.7828984,62.5467919 C66.5578688,62.8395585 66.9487723,63.7051304 66.6560057,64.4801009 C66.3632391,65.2550713 65.4976671,65.6459748 64.7226967,65.3532081 C60.8013265,63.8718016 54.4877011,64.9092518 51.8762749,67.3465829 C51.2706489,67.9118338 50.3214656,67.8791034 49.7562146,67.2734774 C49.1909637,66.6678514 49.2236942,65.718668 49.8293202,65.1534171 Z" id="Combined-Shape" fill="#014D40" fill-rule="nonzero"></path>
                    <path d="M87.5527975,40.75 C83.2527975,35.15 75.9527975,30.65 63.7527975,31.75 C35.1527975,34.35 39.9527975,69.25 39.9527975,69.25 C40.1527975,71.05 40.4527975,72.75 40.7527975,74.25 C43.9527975,74.55 46.7527975,74.85 46.7527975,74.85 L46.3527975,69.55 C46.3527975,69.55 46.0527975,66.95 45.9527975,63.55 C45.7527975,60.15 47.4527975,60.55 50.8527975,56.75 C52.6527975,54.75 53.5527975,51.95 54.0527975,49.85 C54.4527975,48.05 55.9527975,46.65 57.8527975,46.55 C68.3527975,46.05 78.2527975,43.85 87.5527975,40.75 L87.5527975,40.75 Z" id="Path" fill="#014D40" fill-rule="nonzero"></path>
                    <path d="M48.4527975,71.45 C48.4527975,71.45 46.4527975,68.45 42.3527975,68.55 C39.7527975,68.55 35.2527975,71.55 36.3527975,78.25 C37.4527975,84.85 41.7527975,86.75 44.7527975,86.65 C50.0527975,86.45 50.9527975,81.35 50.9527975,81.35" id="Path" fill="#FFFFFF" fill-rule="nonzero"></path>
                    <path d="M49.9088856,70.4792747 C49.5630178,69.960473 48.9450857,69.2695469 48.0314638,68.592653 C46.4602918,67.4285862 44.5423922,66.7460748 42.3101273,66.8005203 C37.6521527,66.8 33.5200626,71.7978613 34.6259166,78.5335178 C35.7185096,85.0891068 39.9975151,88.5594814 44.8110985,88.3990286 C47.6716369,88.2911007 49.8060826,87.0178804 51.2179239,85.0094032 C52.0875847,83.7722288 52.5183866,82.5482236 52.6761688,81.6541243 C52.844132,80.7023327 52.2087135,79.794592 51.2569219,79.6266288 C50.3552245,79.4675057 49.4930632,80.0294233 49.2619931,80.8982929 L49.1910684,81.2082329 L49.107339,81.4843464 C49.095324,81.5205761 49.0823732,81.5585276 49.0684549,81.5980729 C48.8998087,82.0772346 48.6635523,82.5570864 48.3545742,82.9966368 C47.5442533,84.1493946 46.3916932,84.8369093 44.6868068,84.9012447 C41.6280675,85.0031857 38.8811674,82.7753848 38.0789869,77.9623018 C37.3201506,73.3402672 39.8337574,70.3 42.3527975,70.3 C43.800975,70.265199 44.9721425,70.6819754 45.9478951,71.4049014 C46.441623,71.7706998 46.7773685,72.125411 46.9427159,72.3449688 L46.9967095,72.4207253 C47.5328263,73.2249005 48.6193477,73.4422048 49.4235229,72.906088 C50.2276981,72.3699712 50.4450024,71.2834499 49.9088856,70.4792747 Z" id="Path" fill="#014D40" fill-rule="nonzero"></path>
                    <path d="M14.9527975,104.55 C14.9527975,104.55 6.75279754,137.55 10.1527975,153.45 C14.2527975,172.15 37.1527975,165.25 34.6527975,151.25 C30.6527975,128.45 33.0527975,104.15 33.0527975,104.15 L14.9527975,104.55 Z" id="Path" fill="#06EC40" fill-rule="nonzero"></path>
                    <path d="M13.2544444,104.127985 L13.0078481,105.153725 C12.8137168,105.97642 12.5976267,106.920557 12.3650678,107.972286 C11.7012105,110.974527 11.037552,114.240285 10.418026,117.659126 C9.457414,122.960242 8.69288844,128.136297 8.19716574,133.00778 C7.32747905,141.55422 7.33354831,148.634703 8.44148597,153.815941 C10.5064761,163.23442 17.4771427,167.815259 25.2077425,166.331115 C32.4613735,164.93854 37.5751675,158.656494 36.4285322,151.260029 L36.3755458,150.942366 C36.1504758,149.65942 35.9419641,148.347934 35.7505358,147.014444 C34.0256313,134.998759 33.7600779,122.227468 34.3713632,110.453819 L34.4428626,109.14983 C34.5105379,107.977817 34.5823852,106.915936 34.6546761,105.975189 L34.7466791,104.845958 L34.7943242,104.322003 C34.8975204,103.277141 34.0638224,102.37723 33.0141329,102.399988 L14.9141329,102.800427 C14.1247686,102.817872 13.4448472,103.36173 13.2544444,104.127985 Z M16.3409438,106.26975 L31.1470626,105.942543 L31.0795524,106.878982 L30.9806796,108.406858 C30.9699205,108.58464 30.9592504,108.765056 30.9486829,108.948066 C30.2358931,121.29229 30.4588277,134.783345 32.2860515,147.511786 C32.4170577,148.424375 32.5559276,149.327363 32.7027985,150.220386 L32.9291227,151.552399 C33.9171752,157.085539 30.1259431,161.822986 24.5478525,162.893885 C18.6786561,164.020672 13.5185103,160.629633 11.8621935,153.075213 C10.8491345,148.33756 10.8433386,141.575989 11.6791838,133.362111 C12.1648608,128.589347 12.9164652,123.500772 13.8619391,118.283196 C14.4051217,115.285654 14.9828866,112.406495 15.5643543,109.724364 L15.7825179,108.727954 C15.982464,107.823714 16.1698271,107.001213 16.3409438,106.26975 Z" id="Path" fill="#014D40" fill-rule="nonzero"></path>
                    <path d="M29.9527975,81.85 L32.1527975,81.85 L31.0527975,93.55 L18.2527975,92.75 L18.2527975,79.75 C18.2527975,79.75 18.3527975,63.25 18.6527975,59.55 C18.9527975,55.15 24.9527975,54.05 25.9527975,59.75 C26.9527975,65.45 27.8527975,80.75 27.8527975,80.75 L29.9527975,81.85" id="Path" fill="#FFFFFF" fill-rule="nonzero"></path>
                    <path d="M30.2305503,83.6 L29.4692363,91.6976128 L20.0027975,91.1059604 L20.0076824,79.0396337 L20.02874,76.4957637 C20.043793,74.8628513 20.0615954,73.2299933 20.082309,71.6457762 L20.1297973,68.4282269 L20.1994874,64.8737581 C20.2572846,62.3925806 20.3233709,60.6004254 20.3970734,59.6914278 C20.4812427,58.4590615 21.255073,57.6696376 22.1584484,57.608507 C23.0904895,57.5454365 23.9185428,58.2820932 24.2291227,60.0523991 L24.3103008,60.5381229 L24.3960311,61.0995992 C24.6685543,62.961422 24.9506591,65.6124754 25.2328228,68.8529851 L25.2753491,69.3458253 C25.490497,71.8616286 25.6924119,74.5595643 25.8751442,77.25784 L26.0149138,79.383741 L26.1058174,80.8527635 C26.1418833,81.4658837 26.4967253,82.0152214 27.0407853,82.3002052 L29.1108422,83.3845207 C29.1987259,83.4328431 29.2912088,83.4738353 29.3874676,83.506674 L29.559784,83.5556945 C29.6440062,83.5750211 29.7305476,83.5882702 29.818922,83.5949556 L29.9865997,83.6 C30.6041408,83.5875174 31.1961571,83.2478084 31.5030027,82.6620122 C31.9514647,81.8058576 31.6209645,80.7482568 30.7648098,80.2997948 L30.3833833,80.1 L29.9527975,80.1 C28.9862992,80.1 28.2027975,80.8835017 28.2027975,81.85 C28.2027975,82.4561873 28.5110109,82.9903875 28.9792765,83.3044397 L29.1407853,83.4002052 C29.2259068,83.4447926 29.3130196,83.4816801 29.401327,83.5111165 L29.5597813,83.5557357 L29.701785,83.5823863 L29.8442915,83.597068 L30.2305503,83.6 Z M29.539192,79.6578045 L29.3671458,77.0213551 L29.2048005,74.6963143 L29.0337589,72.3961912 C28.9753834,71.6364235 28.9156904,70.8849896 28.8548116,70.14607 L28.7626204,69.047599 C28.399811,64.8051338 28.0364096,61.4992431 27.6764723,59.4476009 C27.0716285,55.9999912 24.7400986,53.9258045 21.9221467,54.116493 C19.3312486,54.2918169 17.2272046,56.3697103 16.9280427,59.1876365 L16.9068511,59.4309582 C16.7873413,60.903131 16.6920189,64.3643255 16.6160053,69.2576412 L16.5826175,71.5992842 L16.5407297,75.2361536 L16.5027975,79.7393941 L16.5027975,92.75 C16.5027975,93.6741107 17.2213244,94.4389476 18.1436355,94.496592 L30.9436355,95.296592 C31.8869555,95.3555495 32.706643,94.6548184 32.7951141,93.7138075 L33.8951141,82.0138075 C33.9916392,80.9871322 33.1840004,80.1 32.1527975,80.1 L30.3833833,80.1 L29.539192,79.6578045 Z" id="Path" fill="#014D40" fill-rule="nonzero"></path>
                    <path d="M23.5527975,106.85 C33.8527975,106.85 37.4527975,100.05 37.8527975,95.25 C38.4527975,87.55 36.7527975,85.25 37.9527975,76.55 C38.4527975,72.75 32.1527975,71.65 30.7527975,77.65 C29.9527975,81.35 28.6527975,90.05 28.6527975,90.05 C28.6527975,90.05 23.1527975,90.35 20.8527975,92.85 C18.2527975,95.45 16.9527975,98.55 16.9527975,98.55 L6.75279754,97.55 C8.35279754,100.95 11.5527975,106.85 23.5527975,106.85 Z" id="Path" fill="#FFFFFF" fill-rule="nonzero"></path>
                    <path d="M27.7265554,84.6401719 L27.4139371,86.5987622 L27.1253386,88.4540513 L27.0269655,88.4681695 C25.9043016,88.6315443 24.7789878,88.8772084 23.7119438,89.2266458 C21.9876614,89.7913168 20.5692791,90.5734545 19.5649183,91.6651511 C19.2297894,91.9981344 18.8594139,92.404123 18.5038605,92.828052 C17.5844001,93.9243317 16.8012824,95.0914782 16.1483267,96.2592644 C16.0642885,96.4095635 15.9859614,96.5532668 15.9133247,96.6897008 L6.92354753,95.8083501 C5.57198864,95.6758443 4.59111594,97.066366 5.16936481,98.2951448 C6.51269131,101.149714 7.85236622,103.088717 10.1939018,104.868284 C13.3755974,107.286372 17.7362991,108.6 23.5527975,108.6 C33.3000854,108.6 38.9831838,102.758156 39.5967526,95.3953296 C39.8031593,92.7467348 39.7839438,90.9886395 39.5750349,88.1082592 L39.4743507,86.8017585 C39.1565125,82.807605 39.1599571,80.605714 39.6863845,76.7891154 C40.0697316,73.8759387 37.8751174,71.675 35.0652975,71.675 C32.2666083,71.675 29.8591343,73.7785243 29.0485754,77.2523482 L28.8774592,78.0766563 L28.7351546,78.8058317 C28.6376108,79.3172187 28.5347307,79.8787867 28.4265848,80.4883814 L28.0386244,82.7440418 L27.7265554,84.6401719 Z M16.7820475,100.29165 C17.4951548,100.361562 18.1730784,99.990069 18.5016835,99.3646161 L18.7116602,98.9112465 C18.8468681,98.62913 19.0108366,98.311441 19.2032174,97.9673753 C19.7552193,96.9801412 20.4180507,95.9922675 21.1855309,95.0771949 C21.3798225,94.8455396 21.5786718,94.6213428 21.7819683,94.4052996 L22.0902344,94.0874369 C22.672688,93.4565759 23.5956454,92.94763 24.8012084,92.5528302 C25.6575112,92.2724067 26.5929263,92.0681988 27.5309912,91.9316877 C27.7783983,91.895684 28.0120018,91.8664969 28.2279939,91.8434294 L28.6014963,91.8079757 L28.7481104,91.7974025 C29.5256658,91.7549904 30.174842,91.2056289 30.3540975,90.4602254 L30.3928742,90.2465798 L30.7176011,88.126001 L31.0260275,86.1671687 C31.1294702,85.5189735 31.2332361,84.8778839 31.3363933,84.2509702 L31.6537625,82.3577598 L31.9381545,80.7335204 L32.1890653,79.3776071 C32.2879981,78.8609975 32.3796859,78.4064197 32.4632723,78.0198324 C33.2836134,74.5051073 36.4567785,74.5051073 36.2177525,76.3217046 C35.6827156,80.2004861 35.651132,82.5931864 35.935153,86.4266445 L36.0822009,88.3337023 L36.1519644,89.3707972 C36.2818901,91.5081955 36.272956,92.9982212 36.1080863,95.1140485 C35.6399266,100.731661 31.3902923,105.1 23.5527975,105.1 C18.4656877,105.1 14.8499408,104.010784 12.3116933,102.081716 C11.4462103,101.423949 10.7546821,100.732358 10.1451209,99.926591 L9.92019799,99.6189196 L16.7820475,100.29165 Z" id="Path" fill="#014D40" fill-rule="nonzero"></path>
                    <path d="M82.2527975,169.25 C67.1527975,169.25 68.4527975,156.85 68.4527975,156.85 C68.4527975,156.85 65.0527975,156.25 65.5527975,152.15 C66.0527975,148.15 70.7527975,148.15 70.7527975,148.15 C70.7527975,148.15 71.0527975,140.95 81.2527975,140.95 C91.3527975,140.95 97.5527975,147.05 97.5527975,155.15 C97.5527975,163.25 97.3527975,169.25 82.2527975,169.25 Z" id="Path" fill="#FFFFFF" fill-rule="nonzero"></path>
                    <path d="M69.3786555,146.203293 C69.6755304,145.279021 70.1307267,144.362761 70.7777975,143.5 C72.8086725,140.792167 76.2583671,139.2 81.2527975,139.2 C92.0008907,139.2 99.3027975,145.787943 99.3027975,155.15 L99.3000648,155.990425 C99.2627619,161.439985 98.8264311,163.874287 96.951107,166.306159 C94.4727449,169.520035 89.8717654,171 82.2527975,171 C75.0024028,171 70.3863148,168.318993 68.1275786,163.837661 C67.1296733,161.857817 66.7217516,159.840036 66.6750405,158.045579 C66.4300587,157.913582 66.1790887,157.755127 65.9275185,157.566398 C64.342471,156.377293 63.5077578,154.463012 63.8163113,151.932939 C64.1064569,149.611774 65.4595532,148.021272 67.4139432,147.142895 C67.9510639,146.901492 68.4803333,146.7304 68.9791953,146.613759 L69.2746832,146.550181 L69.3786555,146.203293 Z M82.2527975,167.5 C88.8955644,167.5 92.5063289,166.338551 94.1794881,164.168841 C95.4236288,162.555471 95.7673817,160.611428 95.8001199,155.952104 L95.8027975,155.15 C95.8027975,147.805835 90.1436206,142.7 81.2527975,142.7 C77.322228,142.7 74.9219226,143.807833 73.5777975,145.6 C73.1260035,146.202392 72.8241155,146.849295 72.6452039,147.493377 L72.580147,147.748838 C72.5352312,147.943726 72.5125431,148.091703 72.5044476,148.178344 L72.4891112,148.369135 C72.3869605,149.185031 71.72634,149.821183 70.9079889,149.893201 L70.6325197,149.904889 L70.4425398,149.92185 C70.3687086,149.929898 70.2849289,149.940531 70.1928695,149.954323 C69.7261688,150.02424 69.2627835,150.149198 68.848728,150.335291 C67.937192,150.74497 67.4153735,151.358343 67.2899278,152.361845 C67.1349456,153.6327 67.4356893,154.322407 68.0278795,154.766669 C68.2911071,154.964143 68.5590454,155.075253 68.7031294,155.114276 L68.9050871,155.159369 C69.6807782,155.366121 70.2175761,156.078384 70.2026078,156.881016 L70.1774271,157.339385 C70.1631156,157.821704 70.1895257,158.416559 70.2825127,159.081154 C70.4369014,160.184598 70.7499978,161.26435 71.2530165,162.262339 C72.9005303,165.531007 76.2906923,167.5 82.2527975,167.5 Z" id="Path" fill="#014D40" fill-rule="nonzero"></path>
                    <path d="M84.6836799,146.204901 C80.6847378,145.904981 75.4240577,145.987609 70.5043978,146.406303 C69.5413808,146.488262 68.8271421,147.335383 68.909101,148.2984 C68.9910599,149.261417 69.8381803,149.975655 70.8011972,149.893697 C75.5455823,149.489919 80.6228775,149.410171 84.4219151,149.695099 C85.3857066,149.767383 86.225612,149.044674 86.2978963,148.080882 C86.3701807,147.117091 85.6474714,146.277186 84.6836799,146.204901 Z" id="Path" fill="#014D40" fill-rule="nonzero"></path>
                    <path d="M82.2337807,154.42926 C78.2348385,154.129339 72.9741584,154.211968 68.0544985,154.630662 C67.0914816,154.712621 66.3772428,155.559741 66.4592017,156.522758 C66.5411606,157.485775 67.388281,158.200014 68.351298,158.118055 C73.095683,157.714278 78.1729782,157.634529 81.9720158,157.919457 C82.9358073,157.991742 83.7757127,157.269032 83.847997,156.305241 C83.9202814,155.341449 83.1975721,154.501544 82.2337807,154.42926 Z" id="Path-Copy" fill="#014D40" fill-rule="nonzero"></path>
                    <path d="M85.2083159,103.61416 L90.3018841,107.957723 C91.0357139,108.590187 91.6978219,109.165706 92.161003,109.577783 L92.2771241,109.681403 C93.7811642,111.027948 95.0930865,112.271587 96.2384815,113.450885 C97.8356921,115.095371 99.0713255,116.577803 99.9105261,117.889054 C100.89506,119.366169 101.068931,121.825198 100.045789,124.028889 C99.7911661,124.585834 99.4338007,125.200055 98.9834065,125.863583 C98.4955946,126.582234 97.9085544,127.344571 97.2438863,128.133864 C96.6531809,128.835327 96.0272183,129.527875 95.3941411,130.191622 L94.7140126,130.891202 L94.1523537,131.448173 C94.0152003,131.581653 93.9184386,131.673979 93.8688564,131.720463 C93.4659441,132.098193 93.4455301,132.731029 93.8232603,133.133941 C94.2009906,133.536853 94.8338264,133.557267 95.2367387,133.179537 L95.5472413,132.881452 L96.1341371,132.29948 L96.3471561,132.08328 C97.1735616,131.239658 98.0000906,130.340807 98.7737087,129.422136 C99.4800159,128.583396 100.108158,127.767683 100.638192,126.986831 C101.147076,126.237135 101.559057,125.529042 101.862272,124.86576 C103.174561,122.039333 102.948388,118.840611 101.584848,116.7953 C100.672677,115.36971 99.3562367,113.790331 97.6731669,112.057444 C96.6231688,110.976367 95.4441665,109.849203 94.1161834,108.646106 L93.3721876,107.978668 C91.3674301,106.203867 86.3588288,101.965003 86.5084842,102.094967 C86.0914909,101.732841 85.4598902,101.77732 85.0977644,102.194313 C84.7913503,102.547154 84.7760556,103.053648 85.0312273,103.420527 L85.1075099,103.516902 L85.2083159,103.61416 Z" id="Path" fill="#014D40" fill-rule="nonzero"></path>
                    <path d="M86.5832358,123.488572 L87.7119474,124.85853 L88.4622319,125.781911 C92.2389175,130.460106 94.4849837,133.730381 95.9460764,136.871731 C96.4369262,137.99433 96.344758,141.343106 95.8793804,143.320961 C95.7528854,143.858564 96.0861547,144.396922 96.6237582,144.523417 C97.1613617,144.649912 97.6997198,144.316643 97.8262147,143.779039 C98.3821357,141.416375 98.4848218,137.685448 97.7689549,136.049181 C95.9760392,132.193788 93.1654395,128.288986 88.1223592,122.211428 C87.7696854,121.78641 87.1392423,121.727764 86.7142251,122.080438 C86.2892079,122.433112 86.230562,123.063555 86.5832358,123.488572 Z" id="Path" fill="#014D40" fill-rule="nonzero"></path>
                    <path d="M69.3430868,123.157376 C66.6782834,125.207225 63.8259094,128.059599 60.9808673,131.514293 C58.6062694,134.341121 58.1884347,138.390904 59.9772199,141.633077 C61.6908917,144.657336 63.4992985,147.671347 65.4079785,150.685052 C65.7034796,151.151633 66.3212689,151.29032 66.7878496,150.994819 C67.2544303,150.699318 67.3931177,150.081529 67.0976166,149.614948 C65.2062966,146.628653 63.4147033,143.642664 61.7228197,140.656987 C60.3412306,138.152723 60.6667535,134.997655 62.5185024,132.793192 C65.2796856,129.440401 68.0273117,126.692775 70.5625083,124.742624 C71.0002624,124.40589 71.0821555,123.778043 70.7454215,123.340289 C70.4086876,122.902535 69.7808409,122.820642 69.3430868,123.157376 Z" id="Path" fill="#014D40" fill-rule="nonzero"></path>
                    <path d="M63.1314851,108.972603 C62.867826,108.487317 62.2606861,108.307653 61.7754003,108.571312 C61.2901146,108.834972 61.1104507,109.442111 61.3741099,109.927397 L68.2741099,122.627397 C68.5931536,123.214623 69.3873461,123.329665 69.8599043,122.857107 L79.2599043,113.457107 C79.6504286,113.066582 79.6504286,112.433418 79.2599043,112.042893 C78.86938,111.652369 78.2362151,111.652369 77.8456908,112.042893 L69.3923536,120.49623 L63.1314851,108.972603 Z" id="Path" fill="#014D40" fill-rule="nonzero"></path>
                    <path d="M78.5927143,114.124297 L86.5918733,121.244427 L83.9614428,141.118791 C83.8889782,141.666301 84.2740787,142.16889 84.8215888,142.241355 C85.3690989,142.313819 85.8716877,141.928719 85.9441523,141.381209 L88.6441523,120.981209 C88.687663,120.652461 88.5653724,120.323525 88.3176707,120.103044 L79.2176707,112.003044 C78.8219786,111.650834 78.2202731,111.668311 77.8456908,112.042893 L68.4456908,121.442893 C68.1518569,121.736727 68.0703584,122.181657 68.2409654,122.560563 L76.8409654,141.660563 C77.0677132,142.164154 77.6597697,142.38858 78.1633607,142.161832 C78.6669517,141.935084 78.8913775,141.343028 78.6646297,140.839437 L70.348071,122.36894 L78.5927143,114.124297 Z" id="Path" fill="#014D40" fill-rule="nonzero"></path>
                    <path d="M77.5527975,140.75 C79.0527975,140.25 80.6527975,140.25 82.1527975,140.35 C83.1527975,140.35 84.0527975,140.45 84.9527975,140.65 L86.2527975,130.95 L82.0527975,124.65 L83.3527975,117.25 L78.4527975,112.85 L73.5527975,117.75 L76.9527975,124.85 L73.4527975,131.95 L77.5527975,140.75 Z" id="Path" fill="#014D40" fill-rule="nonzero"></path>
                    <path d="M58.0002744,105.292231 C55.9008556,107.100064 54.0580656,109.659633 51.9727491,113.358484 L51.3975447,114.395594 L50.5747017,115.926057 L49.1710129,118.578348 C48.0662889,120.786949 48.4446426,123.435426 50.1217423,125.232318 C54.180596,129.639106 57.3127398,132.237625 60.7466591,133.763812 C61.2513433,133.988116 61.842305,133.760823 62.0666091,133.256138 C62.2909132,132.751454 62.0636202,132.160493 61.558936,131.936188 C58.4293938,130.545281 55.4824371,128.100398 51.5883426,123.872524 C50.4778199,122.682647 50.2281951,120.935273 50.9472247,119.497214 L52.6841896,116.220707 L53.3005952,115.084822 L53.4482379,114.817661 C55.5412155,111.044916 57.338237,108.501646 59.3053207,106.807769 C59.7238248,106.44739 59.7709449,105.815981 59.4105663,105.397477 C59.0501878,104.978973 58.4187786,104.931853 58.0002744,105.292231 Z" id="Path" fill="#014D40" fill-rule="nonzero"></path>
                    <path d="M83.1051491,107.011939 C86.552483,109.942173 87.7949466,115.140235 86.6722169,120.753884 C86.5639049,121.295444 86.9151217,121.822269 87.4566814,121.930581 C87.9982412,122.038893 88.5250663,121.687676 88.6333782,121.146116 C89.8866485,114.879765 88.4682636,108.945706 84.400446,105.488061 C83.9796385,105.130374 83.3485446,105.181544 82.9908582,105.602352 C82.6331719,106.023159 82.6843417,106.654253 83.1051491,107.011939 Z" id="Path" fill="#014D40" fill-rule="nonzero"></path>
                    <path d="M15.7527975,77.65 C18.4527975,80.15 20.8527975,85.05 21.7527975,87.15 C22.4557454,88.9952381 20.147554,91.5353545 17.8132762,90.8355067 C17.8630936,90.9095175 17.9093852,90.9812638 17.9527975,91.05 C18.9580206,92.6416031 17.4370602,95.4261262 15.2121551,95.5239644 L15.1527975,95.45 C16.3515736,96.8332031 14.9143151,99.8320403 12.5660923,99.6633623 L12.5527975,99.65 C13.8527975,100.75 12.9527975,103.75 10.5527975,103.55 C8.65279754,103.35 4.75279754,102.35 3.15279754,101.55 C0.555702152,100.11712 1.64785296,96.0376064 4.20270533,95.7037977 C4.0757652,95.6161355 3.95936897,95.5314958 3.85279754,95.45 C1.52805863,93.6502021 2.74627386,90.1632832 4.97704589,89.2065722 C2.67180743,86.0869355 6.04104412,81.4748341 9.46536306,82.7188263 C7.55617291,78.9914799 12.6449078,74.7363534 15.7527975,77.65 Z" id="Combined-Shape" fill="#FFFFFF" fill-rule="nonzero"></path>
                    <path d="M5.36649442,94.7731 L5.68353496,94.8496143 C8.125576,95.4846612 11.3678802,97.3374248 13.1987398,98.8866137 C15.3776647,100.730319 13.6619398,104.812561 10.4481128,104.544505 C8.32541793,104.321064 4.3457699,103.26452 2.6697202,102.425578 C-1.21866417,100.280262 1.01485093,93.821178 5.36649442,94.7731 Z M4.80199792,96.7022879 C2.83506407,96.4268828 1.77102754,99.6455621 3.60001114,100.655573 C5.00888179,101.360008 8.75924692,102.35568 10.635843,102.553454 C11.8949972,102.658384 12.5941311,100.994927 11.9068553,100.413386 C10.2969979,99.0511993 7.32319319,97.3517479 5.218841,96.7952145 L4.93748298,96.7265464 L4.80199792,96.7022879 Z" id="Path" fill="#014D40" fill-rule="nonzero"></path>
                    <path d="M7.8685573,88.3405255 L8.18136368,88.4921054 C10.7577905,89.7877782 14.0309273,92.5521356 15.7142636,94.5581325 L16.0123716,94.9216911 C17.9027527,97.3583692 15.0617791,101.514149 11.6495939,100.502926 C9.29787769,99.7546524 5.00802476,97.5922876 3.24062435,96.2407237 C-0.777851302,93.1296458 3.26360145,86.2354029 7.8685573,88.3405255 Z M6.90155653,90.1026962 C4.53021112,89.1983216 2.34735093,93.0198291 4.46024765,94.6556422 C6.03206573,95.8576207 10.1158685,97.9161229 12.2368859,98.5912019 C13.7942623,99.0526468 15.167103,96.9933858 14.3719287,96.074695 C12.9086365,94.2455798 9.70570465,91.505917 7.31614531,90.2955877 L7.03346696,90.157843 L6.90155653,90.1026962 Z" id="Path" fill="#014D40" fill-rule="nonzero"></path>
                    <path d="M10.975128,82.3819821 C13.7687453,84.1593438 17.0829805,87.8001059 18.7982864,90.516007 C20.6492207,93.4466528 17.0418762,97.7754662 13.4540714,96.1670701 C11.098665,95.1429803 6.49219506,92.0956233 4.63489715,90.3461458 C0.705722202,86.2941842 5.69778732,79.418285 10.5014222,82.0961614 L10.6669759,82.1923081 L10.975128,82.3819821 Z M9.64225879,83.9098547 L9.49735287,83.8271305 C6.73969013,82.3546187 3.72370333,86.5335405 6.03816224,88.9218 C7.69592429,90.4820466 12.1087,93.4012675 14.2618534,94.3374907 C16.0268988,95.1287179 17.9150571,92.862928 17.1073086,91.583993 C15.4820815,89.0107167 12.1857153,85.420032 9.64225879,83.9098547 Z" id="Path" fill="#014D40" fill-rule="nonzero"></path>
                    <path d="M16.7034201,77.1755355 C18.9435109,79.38407 21.1478811,83.2000196 22.6872853,86.7940047 C23.9277759,90.0502924 19.472617,93.5030405 16.2715593,91.1637335 C14.1307436,89.6345794 10.3370001,85.7712259 8.80730864,83.583993 C5.83838377,78.8831953 12.1983726,73.2199139 16.2941591,76.7915098 L16.4344777,76.9183444 L16.7034201,77.1755355 Z M15.0733895,78.3837607 L14.9505715,78.2746447 C12.5982864,76.3041418 8.75102442,79.7495439 10.4720295,82.4765377 C11.8468697,84.4405952 15.4804549,88.1408517 17.4428141,89.5426089 C19.0361709,90.706985 21.3535545,88.9110127 20.8336525,87.5439193 C19.3505795,84.0834157 17.1443611,80.301327 15.0733895,78.3837607 Z" id="Path" fill="#014D40" fill-rule="nonzero"></path>
                    <path d="M16.7628575,85.7148272 C18.0610218,84.2868465 19.9336282,83.9685956 21.7753596,85.0973987 C22.2462383,85.3860018 22.3940018,86.0016834 22.1053988,86.4725621 C21.8167957,86.9434407 21.2011142,87.0912043 20.7302355,86.8026013 C19.7272064,86.1878415 18.9094171,86.3268254 18.2427376,87.0601728 C17.5828918,87.7860031 17.2473028,88.9605649 17.431778,89.8460457 L17.431778,89.8460457 L17.448977,89.9615877 C17.4938604,90.460254 17.158808,90.9243854 16.6567518,91.0289804 C16.2784647,91.1077902 15.9055908,90.9616019 15.6771549,90.6815006 C14.167837,91.3247293 13.5584978,92.5188339 13.842747,94.5085786 C13.8435165,94.5139652 13.8442416,94.5193478 13.8449225,94.5247262 C13.8478485,94.5461201 13.8498313,94.5675235 13.8511216,94.5889279 C13.8521169,94.6071596 13.8527473,94.6252152 13.8528924,94.6431898 C13.8530191,94.6607967 13.8526543,94.6784848 13.8518236,94.6961348 C13.8510174,94.715907 13.8495698,94.7352233 13.8475709,94.7544071 C13.8461247,94.7663116 13.8445911,94.7786764 13.8428288,94.7910047 C13.8396773,94.8148278 13.8355252,94.8380026 13.8305781,94.8609231 C13.8270091,94.8761671 13.8233791,94.8912739 13.8194007,94.9062907 C13.8134856,94.9295342 13.8065638,94.9522456 13.7988622,94.9746308 C13.7954426,94.9840719 13.7919423,94.9938096 13.7882907,95.0034946 C13.7793114,95.0275372 13.7694756,95.0507612 13.758797,95.0735482 C13.7520702,95.0880028 13.7447341,95.1027913 13.7370255,95.1174074 C13.7276871,95.1348205 13.7181472,95.1516212 13.7081371,95.1681247 C13.6972326,95.1865287 13.6854154,95.2047204 13.6729791,95.2225529 C13.6644004,95.2343854 13.6559616,95.2459286 13.6472803,95.2572871 C13.6350422,95.2737597 13.6218337,95.2899756 13.6080724,95.3058129 C13.5970123,95.3181731 13.5860342,95.3302161 13.5747632,95.3419914 C13.5618941,95.3556663 13.5488306,95.368534 13.535362,95.3810812 C13.5234523,95.3920953 13.5109099,95.4032622 13.4980796,95.414118 C13.4621673,95.444359 13.4237267,95.4724169 13.3827965,95.4979983 L13.4442912,95.456553 C13.4279192,95.4685815 13.4111495,95.480132 13.3939999,95.4911808 L13.3827965,95.4979983 C12.0545072,96.3281791 11.5882027,97.2940956 11.7486907,99.0594643 C11.7986923,99.6094809 11.3933499,100.095892 10.8433333,100.145893 C10.7354729,100.155699 10.6300586,100.147993 10.5299018,100.125119 C9.99777511,100.835796 9.77887479,101.791634 9.85125789,103.09453 C9.88189314,103.645964 9.45970199,104.117825 8.90826756,104.14846 C8.35683313,104.179096 7.88497243,103.756904 7.85433719,103.20547 C7.7352239,101.061431 8.26845626,99.4024858 9.58012475,98.2100599 C9.62667302,98.1677433 9.67612486,98.1306375 9.72776388,98.0987085 C9.80955248,96.4147961 10.4834637,95.1514159 11.7957568,94.1630919 C11.6019579,91.3495845 12.9503054,89.4241206 15.5495939,88.5970742 L15.4298848,88.636939 C15.5753584,87.5670065 16.0460542,86.5033108 16.7628575,85.7148272 Z" id="Combined-Shape" fill="#014D40" fill-rule="nonzero"></path>
                </g>
                <g id="Group-7" stroke-width="1" fill-rule="evenodd" transform="translate(136.800000, 61.250007)">
                    <rect id="Rectangle" fill="#FFFFFF" fill-rule="nonzero" x="1.75" y="36.65" width="65.8" height="50.9"></rect>
                    <path d="M-3.41060513e-13,36.65 C-3.41060513e-13,35.6835017 0.783501688,34.9 1.75,34.9 L67.55,34.9 C68.5164983,34.9 69.3,35.6835017 69.3,36.65 L69.3,87.55 C69.3,88.5164983 68.5164983,89.3 67.55,89.3 L1.75,89.3 C0.783501688,89.3 -3.41060513e-13,88.5164983 -3.41060513e-13,87.55 L-3.41060513e-13,36.65 Z M3.5,85.8 L65.8,85.8 L65.8,38.4 L3.5,38.4 L3.5,85.8 Z" id="Rectangle" fill="#014D40" fill-rule="nonzero"></path>
                    <path d="M28.45,42.3 C31.8164983,42.3 34.5,44.9835017 34.5,48.35 L34.5,54.1 L51.75,54.1 C52.7164983,54.1 53.5,54.8835017 53.5,55.85 L53.5,78.15 C53.5,79.1164983 52.7164983,79.9 51.75,79.9 L24.15,79.9 C23.1835017,79.9 22.4,79.1164983 22.4,78.15 L22.4,48.35 C22.4,45.0113056 25.1550364,42.3 28.45,42.3 Z M31,55.95 L31,48.35 C31,46.9164983 29.8835017,45.8 28.45,45.8 C27.0756088,45.8 25.9,46.9569483 25.9,48.35 L25.9,76.4 L50,76.4 L50,57.6 L33.3619227,57.6012195 C32.3401616,57.9442541 31,57.3938476 31,55.95 Z" id="Path" fill="#014D40" fill-rule="nonzero"></path>
                    <path d="M38.85,64.35 L51.85,64.35 C52.4022847,64.35 52.85,63.9022847 52.85,63.35 C52.85,62.7977153 52.4022847,62.35 51.85,62.35 L38.85,62.35 C38.2977153,62.35 37.85,62.7977153 37.85,63.35 C37.85,63.9022847 38.2977153,64.35 38.85,64.35 Z" id="Path" fill="#014D40" fill-rule="nonzero"></path>
                    <path d="M38.85,71.15 L51.85,71.15 C52.4022847,71.15 52.85,70.7022847 52.85,70.15 C52.85,69.5977153 52.4022847,69.15 51.85,69.15 L38.85,69.15 C38.2977153,69.15 37.85,69.5977153 37.85,70.15 C37.85,70.7022847 38.2977153,71.15 38.85,71.15 Z" id="Path" fill="#014D40" fill-rule="nonzero"></path>
                    <path d="M14.4,61.15 C14.4,60.1835017 15.1835017,59.4 16.15,59.4 L24.25,59.4 C25.2164983,59.4 26,60.1835017 26,61.15 L26,78.15 C26,79.1164983 25.2164983,79.9 24.25,79.9 L16.15,79.9 C15.1835017,79.9 14.4,79.1164983 14.4,78.15 L14.4,61.15 Z M17.9,76.4 L22.5,76.4 L22.5,62.9 L17.9,62.9 L17.9,76.4 Z" id="Rectangle" fill="#014D40" fill-rule="nonzero"></path>
                    <rect id="Rectangle" fill="#E2FFE9" fill-rule="nonzero" x="55.05" y="1.75" width="65.8" height="50.9"></rect>
                    <path d="M53.3,1.75 C53.3,0.783501688 54.0835017,5.68434189e-14 55.05,5.68434189e-14 L120.85,5.68434189e-14 C121.816498,5.68434189e-14 122.6,0.783501688 122.6,1.75 L122.6,52.65 C122.6,53.6164983 121.816498,54.4 120.85,54.4 L55.05,54.4 C54.0835017,54.4 53.3,53.6164983 53.3,52.65 L53.3,1.75 Z M56.8,50.9 L119.1,50.9 L119.1,3.5 L56.8,3.5 L56.8,50.9 Z" id="Rectangle" fill="#014D40" fill-rule="nonzero"></path>
                    <path d="M94.85,12.7 C93.110861,12.7 91.7088803,13.2189163 90.5811726,14.0858011 C90.2684279,14.3262123 89.9965536,14.579375 89.7656859,14.832464 L89.6002261,15.0220666 C89.4966161,15.1463117 89.4151803,15.2558046 89.375915,15.3118017 L89.2642572,15.4812595 C89.079926,15.7360332 88.8426891,15.9230746 88.5806771,16.0423818 L88.399694,16.1114567 L88.3418423,16.13046 L88.1962179,16.1659182 L88.0577794,16.1878059 L87.8846825,16.1996539 L87.7474967,16.1970441 L87.653285,16.1893304 C87.215282,16.1405559 86.7925962,15.9286793 86.4908598,15.553509 L86.4356009,15.4810671 L86.3748237,15.3921795 L86.3423971,15.3386554 L86.2576854,15.220979 L86.0992407,15.0214272 C85.8361791,14.7060758 85.5090271,14.3856598 85.1180508,14.0852041 C83.990448,13.2186694 82.5887148,12.7 80.85,12.7 C76.1996326,12.7 73.8803205,16.3836132 74.4889518,21.2536667 C75.0273633,26.0224548 77.5988616,30.874242 81.5748798,35.5438866 C83.1813677,37.4306305 84.9066487,39.1551559 86.6309313,40.6776429 C87.0601078,41.0565921 87.4667492,41.4029356 87.845433,41.7149687 L88.1357008,41.4718231 C88.4310792,41.2222393 88.7415324,40.9534249 89.0647487,40.6661326 C90.7900473,39.132593 92.5162951,37.3988917 94.1236644,35.506194 C98.1008474,30.8230108 100.673133,25.979632 101.209819,21.2648744 C101.728734,16.3870801 99.4441013,12.7 94.85,12.7 Z" id="Path" fill="#FFFFFF" fill-rule="nonzero"></path>
                    <path d="M94.85,9.2 C101.862034,9.2 105.404815,14.9175585 104.688773,21.6479091 C104.058913,27.1816794 101.17744,32.6072298 96.7914421,37.7717982 C95.0705069,39.7982211 93.230714,41.6459578 91.389972,43.2821098 C90.8734818,43.7411945 90.3856646,44.1577169 89.9340694,44.5294332 L89.3416204,45.0082063 L88.8950755,45.3536799 C88.2773144,45.8136188 87.4314728,45.8156119 86.811551,45.3585892 L86.47766,45.1043251 C86.370057,45.0206347 86.244873,44.9220013 86.1032703,44.8087634 L85.7712357,44.5404058 C85.3193105,44.1713694 84.8311649,43.7576073 84.3143479,43.3012742 C82.47259,41.6750602 80.6318304,39.8351068 78.9100137,37.8129149 C74.5228507,32.6604 71.6405908,27.2222819 71.0135137,21.6670608 C70.1730537,14.9433806 73.7892563,9.2 80.85,9.2 C83.3954326,9.2 85.5354131,9.99183565 87.2507208,11.3100071 C87.4655668,11.475111 87.6652009,11.6409795 87.8500032,11.805656 L88.0393968,11.6409662 C88.168963,11.5310033 88.3051553,11.4207971 88.4480857,11.3109244 C90.1635543,9.99221953 92.3039314,9.2 94.85,9.2 Z M94.85,12.7 C93.110861,12.7 91.7088803,13.2189163 90.5811726,14.0858011 C90.2684279,14.3262123 89.9965536,14.579375 89.7656859,14.832464 L89.6002261,15.0220666 C89.4966161,15.1463117 89.4151803,15.2558046 89.375915,15.3118017 L89.2642572,15.4812595 C89.079926,15.7360332 88.8426891,15.9230746 88.5806771,16.0423818 L88.399694,16.1114567 L88.3418423,16.13046 L88.1962179,16.1659182 L88.0577794,16.1878059 L87.8846825,16.1996539 L87.7474967,16.1970441 L87.653285,16.1893304 C87.215282,16.1405559 86.7925962,15.9286793 86.4908598,15.553509 L86.4356009,15.4810671 L86.3748237,15.3921795 L86.3423971,15.3386554 L86.2576854,15.220979 L86.0992407,15.0214272 C85.8361791,14.7060758 85.5090271,14.3856598 85.1180508,14.0852041 C83.990448,13.2186694 82.5887148,12.7 80.85,12.7 C76.1996326,12.7 73.8803205,16.3836132 74.4889518,21.2536667 C75.0273633,26.0224548 77.5988616,30.874242 81.5748798,35.5438866 C83.1813677,37.4306305 84.9066487,39.1551559 86.6309313,40.6776429 C87.0601078,41.0565921 87.4667492,41.4029356 87.845433,41.7149687 L88.1357008,41.4718231 C88.4310792,41.2222393 88.7415324,40.9534249 89.0647487,40.6661326 C90.7900473,39.132593 92.5162951,37.3988917 94.1236644,35.506194 C98.1008474,30.8230108 100.673133,25.979632 101.209819,21.2648744 C101.728734,16.3870801 99.4441013,12.7 94.85,12.7 Z" id="Path" fill="#014D40" fill-rule="nonzero"></path>
                </g>
                <g id="Group-3" stroke-width="1" fill-rule="evenodd" transform="translate(297.900000, 46.150007)">
                    <rect id="Rectangle" fill="#E2FFE9" fill-rule="nonzero" x="1.75" y="27.25" width="116" height="77.9"></rect>
                    <path d="M0,27.25 C0,26.2835017 0.783501688,25.5 1.75,25.5 L117.75,25.5 C118.716498,25.5 119.5,26.2835017 119.5,27.25 L119.5,105.15 C119.5,106.116498 118.716498,106.9 117.75,106.9 L1.75,106.9 C0.783501688,106.9 0,106.116498 0,105.15 L0,27.25 Z M3.5,103.4 L116,103.4 L116,29 L3.5,29 L3.5,103.4 Z" id="Rectangle" fill="#014D40" fill-rule="nonzero"></path>
                    <rect id="Rectangle" fill="#FFFFFF" fill-rule="nonzero" x="30.25" y="1.75" width="38.7" height="103.4"></rect>
                    <path d="M28.5,1.75 C28.5,0.783501688 29.2835017,5.68434189e-14 30.25,5.68434189e-14 L68.95,5.68434189e-14 C69.9164983,5.68434189e-14 70.7,0.783501688 70.7,1.75 L70.7,105.15 C70.7,106.116498 69.9164983,106.9 68.95,106.9 L30.25,106.9 C29.2835017,106.9 28.5,106.116498 28.5,105.15 L28.5,1.75 Z M32,103.4 L67.2,103.4 L67.2,3.5 L32,3.5 L32,103.4 Z" id="Rectangle" fill="#014D40" fill-rule="nonzero"></path>
                    <rect id="Rectangle" fill="#014D40" fill-rule="nonzero" x="30.25" y="9.55" width="38.7" height="4.5"></rect>
                    <rect id="Rectangle" fill="#014D40" fill-rule="nonzero" x="30.25" y="21.35" width="38.7" height="4.5"></rect>
                    <rect id="Rectangle" fill="#014D40" fill-rule="nonzero" x="30.25" y="33.15" width="38.7" height="4.5"></rect>
                    <rect id="Rectangle" fill="#014D40" fill-rule="nonzero" x="30.25" y="45.05" width="38.7" height="4.5"></rect>
                    <rect id="Rectangle" fill="#014D40" fill-rule="nonzero" x="30.25" y="56.85" width="38.7" height="4.5"></rect>
                    <rect id="Rectangle" fill="#014D40" fill-rule="nonzero" x="30.25" y="68.65" width="38.7" height="4.5"></rect>
                    <rect id="Rectangle" fill="#014D40" fill-rule="nonzero" x="30.25" y="80.45" width="38.7" height="4.5"></rect>
                    <rect id="Rectangle" fill="#014D40" fill-rule="nonzero" x="30.25" y="92.25" width="38.7" height="4.5"></rect>
                    <rect id="Rectangle" fill="#FFFFFF" fill-rule="nonzero" x="58.15" y="37.45" width="32.4" height="67.7"></rect>
                    <path d="M56.4,37.45 C56.4,36.4835017 57.1835017,35.7 58.15,35.7 L90.55,35.7 C91.5164983,35.7 92.3,36.4835017 92.3,37.45 L92.3,105.15 C92.3,106.116498 91.5164983,106.9 90.55,106.9 L58.15,106.9 C57.1835017,106.9 56.4,106.116498 56.4,105.15 L56.4,37.45 Z M59.9,103.4 L88.8,103.4 L88.8,39.2 L59.9,39.2 L59.9,103.4 Z" id="Rectangle" fill="#014D40" fill-rule="nonzero"></path>
                    <rect id="Rectangle" fill="#014D40" fill-rule="nonzero" x="65.35" y="46.75" width="18.2" height="6"></rect>
                    <rect id="Rectangle" fill="#014D40" fill-rule="nonzero" x="65.35" y="60.15" width="18.2" height="6"></rect>
                    <rect id="Rectangle" fill="#014D40" fill-rule="nonzero" x="65.35" y="73.55" width="18.2" height="6"></rect>
                    <rect id="Rectangle" fill="#014D40" fill-rule="nonzero" x="65.35" y="87.05" width="18.2" height="6"></rect>
                    <rect id="Rectangle" fill="#FFFFFF" fill-rule="nonzero" x="79.05" y="43.25" width="28" height="61.8"></rect>
                    <path d="M77.3,43.25 C77.3,42.2835017 78.0835017,41.5 79.05,41.5 L107.05,41.5 C108.016498,41.5 108.8,42.2835017 108.8,43.25 L108.8,105.05 C108.8,106.016498 108.016498,106.8 107.05,106.8 L79.05,106.8 C78.0835017,106.8 77.3,106.016498 77.3,105.05 L77.3,43.25 Z M80.8,103.3 L105.3,103.3 L105.3,45 L80.8,45 L80.8,103.3 Z" id="Rectangle" fill="#014D40" fill-rule="nonzero"></path>
                    <rect id="Rectangle" fill="#FFFFFF" fill-rule="nonzero" x="13.35" y="55.05" width="24.9" height="50.1"></rect>
                    <path d="M11.6,55.05 C11.6,54.0835017 12.3835017,53.3 13.35,53.3 L38.25,53.3 C39.2164983,53.3 40,54.0835017 40,55.05 L40,105.15 C40,106.116498 39.2164983,106.9 38.25,106.9 L13.35,106.9 C12.3835017,106.9 11.6,106.116498 11.6,105.15 L11.6,55.05 Z M15.1,103.4 L36.5,103.4 L36.5,56.8 L15.1,56.8 L15.1,103.4 Z" id="Rectangle" fill="#014D40" fill-rule="nonzero"></path>
                    <rect id="Rectangle" fill="#014D40" fill-rule="nonzero" x="18.95" y="63.45" width="5.2" height="5.2"></rect>
                    <rect id="Rectangle" fill="#014D40" fill-rule="nonzero" x="26.85" y="63.45" width="5.2" height="5.2"></rect>
                    <rect id="Rectangle" fill="#014D40" fill-rule="nonzero" x="18.95" y="74.85" width="5.2" height="5.2"></rect>
                    <rect id="Rectangle" fill="#014D40" fill-rule="nonzero" x="26.85" y="74.85" width="5.2" height="5.2"></rect>
                    <rect id="Rectangle" fill="#014D40" fill-rule="nonzero" x="18.95" y="86.35" width="5.2" height="5.2"></rect>
                    <rect id="Rectangle" fill="#014D40" fill-rule="nonzero" x="26.85" y="86.35" width="5.2" height="5.2"></rect>
                    <rect id="Rectangle" fill="#014D40" fill-rule="nonzero" x="85.45" y="54.35" width="6.3" height="6.3"></rect>
                    <rect id="Rectangle" fill="#014D40" fill-rule="nonzero" x="94.85" y="54.35" width="6.3" height="6.3"></rect>
                    <rect id="Rectangle" fill="#014D40" fill-rule="nonzero" x="85.45" y="68.15" width="6.3" height="6.3"></rect>
                    <rect id="Rectangle" fill="#014D40" fill-rule="nonzero" x="94.85" y="68.15" width="6.3" height="6.3"></rect>
                    <rect id="Rectangle" fill="#014D40" fill-rule="nonzero" x="85.45" y="81.85" width="6.3" height="6.3"></rect>
                    <rect id="Rectangle" fill="#014D40" fill-rule="nonzero" x="94.85" y="81.85" width="6.3" height="6.3"></rect>
                </g>
                <g id="Group-10" stroke-width="1" fill-rule="evenodd" transform="translate(49.349781, 3.000000)">
                    <rect id="Rectangle" fill="#FFFFFF" fill-rule="nonzero" x="1.75" y="1.75" width="49.6" height="49.6"></rect>
                    <path d="M51.35,-1.13686838e-13 C52.3164983,-1.13686838e-13 53.1,0.783501688 53.1,1.75 L53.1,51.35 C53.1,52.3164983 52.3164983,53.1 51.35,53.1 L1.75,53.1 C0.783501688,53.1 4.54747351e-13,52.3164983 4.54747351e-13,51.35 L4.54747351e-13,1.75 C4.54747351e-13,0.783501688 0.783501688,-1.13686838e-13 1.75,-1.13686838e-13 L51.35,-1.13686838e-13 Z M49.6,3.5 L3.5,3.5 L3.5,49.6 L49.6,49.6 L49.6,3.5 Z M24.45,38.75 C25.8307119,38.75 26.95,39.8692881 26.95,41.25 C26.95,42.6307119 25.8307119,43.75 24.45,43.75 C23.0692881,43.75 21.95,42.6307119 21.95,41.25 C21.95,39.8692881 23.0692881,38.75 24.45,38.75 Z M27.9914912,11.2246981 C31.9881865,12.3487687 34.65,15.7869445 34.6492701,19.8040343 C34.5379372,23.9233455 32.0265994,26.7977683 27.9444272,28.8388544 C27.0310692,29.2955334 26.520834,29.9750321 26.456862,30.6951367 L26.45,30.85 L26.45,33.65 C26.45,34.7545695 25.5545695,35.65 24.45,35.65 C23.3956382,35.65 22.5318349,34.8341222 22.4554857,33.7992623 L22.45,33.65 L22.45,30.85 C22.45,28.5561613 23.786294,26.544036 25.9157322,25.3862443 L26.1555728,25.2611456 L26.4506031,25.1100951 C29.1586302,23.6899733 30.5890708,21.9782891 30.65,19.75 C30.65,17.5963888 29.1963496,15.7187571 26.8938838,15.0711285 C24.2257597,14.2987768 21.5037797,15.3359826 20.3194386,17.3069552 L20.2129599,17.4944428 L20.1338482,17.6293756 C19.5764569,18.5009862 18.4328485,18.8097231 17.5055572,18.3129678 C16.5319013,17.7913586 16.1654387,16.5792131 16.6870401,15.6055572 C18.7125808,11.8245478 23.4675442,9.91507432 27.9914912,11.2246981 Z" id="Combined-Shape" fill="#014D40" fill-rule="nonzero"></path>
                </g>
                <g id="Group-6" stroke-width="1" fill-rule="evenodd" transform="translate(40.000000, 165.050007)">
                    <rect id="Rectangle" fill="#FFFFFF" fill-rule="nonzero" x="1.75" y="1.75" width="69.5" height="76.9"></rect>
                    <path d="M0,1.75 C0,0.783501688 0.783501688,5.68434189e-14 1.75,5.68434189e-14 L71.25,5.68434189e-14 C72.2164983,5.68434189e-14 73,0.783501688 73,1.75 L73,78.65 C73,79.6164983 72.2164983,80.4 71.25,80.4 L1.75,80.4 C0.783501688,80.4 0,79.6164983 0,78.65 L0,1.75 Z M3.5,76.9 L69.5,76.9 L69.5,3.5 L3.5,3.5 L3.5,76.9 Z" id="Rectangle" fill="#014D40" fill-rule="nonzero"></path>
                    <path d="M59.85,60.05 C59.9138863,60.05 59.9763733,60.0559909 60.03693,60.0674415 L60.0744275,60.0754749 L60.0744275,60.0754749 C60.0944732,60.0798787 60.1143166,60.0850853 60.1339094,60.0908759 C60.1494448,60.0957495 60.1647304,60.1006835 60.1798896,60.1059804 C60.2423859,60.127489 60.3024659,60.1555587 60.3589671,60.1890318 L60.3761746,60.1994718 L60.3761746,60.1994718 C60.428809,60.2321173 60.4779305,60.2692891 60.5232432,60.3105697 C60.5320937,60.3182755 60.5404832,60.3261834 60.5487463,60.3342497 L60.5571068,60.3428932 C60.6863671,60.4721535 60.7804051,60.636636 60.8235893,60.8207092 C60.8412991,60.8972819 60.8496537,60.9697588 60.8501982,61.0417336 C60.8499865,61.0439341 60.85,61.0469655 60.85,61.05 L60.85,78.45 C60.85,79.0022847 60.4022847,79.45 59.85,79.45 L14.35,79.45 C13.7977153,79.45 13.35,79.0022847 13.35,78.45 L13.3497887,61.0437325 C13.3501923,60.9711008 13.3585473,60.8979461 13.3752903,60.8255357 C13.4179332,60.63955 13.512489,60.4732974 13.6428932,60.3428932 L13.6512537,60.3342497 C13.6595168,60.3261834 13.6679063,60.3182755 13.676417,60.3105277 C13.7220695,60.2692891 13.771191,60.2321173 13.8235324,60.1996432 C13.8293534,60.1960592 13.8349122,60.1927018 13.840501,60.1894001 C13.8968404,60.155883 13.9572506,60.1276158 14.0205611,60.1055345 C14.0352696,60.1006835 14.0505552,60.0957495 14.0659531,60.0911834 C14.0856834,60.0850853 14.1055268,60.0798787 14.1256007,60.0752762 L14.1631896,60.0675428 L14.1631896,60.0675428 C14.21308,60.0579852 14.2644064,60.0522524 14.3167503,60.0505424 L14.3326221,60.0499623 L14.3326221,60.0499623 L59.85,60.05 Z M15.35,62.6498671 L15.35,77.45 L23.918,77.4498671 L34.817,72.1378671 L15.35,62.6498671 Z M58.85,62.6498671 L39.383,72.1378671 L50.281,77.4498671 L58.85,77.45 L58.85,62.6498671 Z M37.1,73.2508671 L28.484,77.4498671 L45.715,77.4498671 L37.1,73.2508671 Z M55.515,62.0498671 L18.684,62.0498671 L37.1,71.0258671 L55.515,62.0498671 Z M54.55,49.85 C55.1022847,49.85 55.55,50.2977153 55.55,50.85 C55.55,51.4022847 55.1022847,51.85 54.55,51.85 L54.55,51.85 L14.35,51.85 C13.7977153,51.85 13.35,51.4022847 13.35,50.85 C13.35,50.2977153 13.7977153,49.85 14.35,49.85 L14.35,49.85 Z M50.05,39.85 C50.6022847,39.85 51.05,40.2977153 51.05,40.85 C51.05,41.4022847 50.6022847,41.85 50.05,41.85 L50.05,41.85 L14.35,41.85 C13.7977153,41.85 13.35,41.4022847 13.35,40.85 C13.35,40.2977153 13.7977153,39.85 14.35,39.85 L14.35,39.85 Z M58.05,29.75 C58.6022847,29.75 59.05,30.1977153 59.05,30.75 C59.05,31.3022847 58.6022847,31.75 58.05,31.75 L58.05,31.75 L14.35,31.75 C13.7977153,31.75 13.35,31.3022847 13.35,30.75 C13.35,30.1977153 13.7977153,29.75 14.35,29.75 L14.35,29.75 Z M48.15,19.75 C48.7022847,19.75 49.15,20.1977153 49.15,20.75 C49.15,21.3022847 48.7022847,21.75 48.15,21.75 L48.15,21.75 L14.35,21.75 C13.7977153,21.75 13.35,21.3022847 13.35,20.75 C13.35,20.1977153 13.7977153,19.75 14.35,19.75 L14.35,19.75 Z M71.25,8.95 C71.8022847,8.95 72.25,9.39771525 72.25,9.95 C72.25,10.5022847 71.8022847,10.95 71.25,10.95 L71.25,10.95 L1.75,10.95 C1.19771525,10.95 0.75,10.5022847 0.75,9.95 C0.75,9.39771525 1.19771525,8.95 1.75,8.95 L1.75,8.95 Z" id="Combined-Shape" fill="#014D40" fill-rule="nonzero"></path>
                </g>
            </g>
        </g>
    </g>
</svg>