<?xml version="1.0" encoding="UTF-8"?>
<svg width="368px" height="300px" viewBox="0 0 368 300" version="1.1" xmlns="http://www.w3.org/2000/svg" xmlns:xlink="http://www.w3.org/1999/xlink">
    <!-- Generator: sketchtool 59 (101010) - https://sketch.com -->
    <title>80B566CC-9A50-4D0F-BB39-DA09DA398EFC@1.00x</title>
    <desc>Created with sketchtool.</desc>
    <g id="Business-LP" stroke="none" stroke-width="1" fill="none" fill-rule="evenodd">
        <g id="Features" transform="translate(-869.000000, -1744.000000)">
            <g id="Illustrations/illust-feat/Show-video-contents" transform="translate(814.000000, 1725.000000)">
                <rect id="Rectangle-Copy-4" x="0" y="0" width="458" height="349" rx="5"></rect>
                <path d="M170.826618,253.617888 C171.788881,253.510306 172.656163,254.203162 172.763745,255.165426 C173.397828,260.836952 174.519048,266.032227 176.13079,270.753825 C176.471768,270.989438 176.730078,271.347931 176.834119,271.783601 C176.905579,272.08284 176.895663,272.382483 176.818658,272.659277 C179.910126,280.794551 184.542352,287.443555 190.733669,292.62199 C194.433481,285.426866 195.511602,278.534118 194.333013,270.646637 C194.189919,269.68901 194.850229,268.7967 195.807856,268.653606 C196.765483,268.510512 197.657793,269.170822 197.800887,270.128449 C198.395272,274.106257 198.45929,277.874697 197.958809,281.551855 C202.369608,282.72091 206.658397,282.199697 210.987652,279.951814 C211.846978,279.505626 212.905306,279.84054 213.351494,280.699866 C213.797683,281.559192 213.462769,282.61752 212.603443,283.063709 C207.584754,285.669566 202.486352,286.313856 197.31568,285.00714 C196.53937,288.286294 195.293573,291.521818 193.553411,294.800248 C197.076003,297.317987 201.038795,299.422339 205.443235,301.11621 C206.006656,300.893511 206.669581,300.970621 207.177272,301.374893 C207.366635,301.525682 207.516474,301.70771 207.625293,301.907769 C213.81516,304.033428 220.825408,305.397819 228.66197,306.00758 C229.627311,306.082693 230.348984,306.926148 230.273871,307.891489 C230.198758,308.85683 229.355303,309.578502 228.389962,309.503389 C220.174434,308.864141 212.798859,307.409523 206.267757,305.142527 L205.90087,305.506276 C204.668424,306.704213 203.217909,307.898234 201.554127,309.012006 C199.413635,310.444897 197.07247,311.640072 194.511203,312.526447 C192.748075,313.106717 190.795461,313.458504 188.684965,313.610896 C185.292783,313.855833 181.694854,313.583363 178.165668,312.981368 C177.246655,312.824606 176.402223,312.656424 175.649826,312.487721 L175.649826,312.487721 L175.289307,312.405259 L174.678117,312.254834 C173.742409,312.005884 173.185682,311.045529 173.434632,310.109821 C173.683582,309.174114 174.643936,308.617386 175.579644,308.866336 L175.579644,308.866336 L175.959241,308.960714 L176.844913,309.159834 C177.429517,309.284404 178.069431,309.407931 178.755257,309.524917 C181.143223,309.932247 183.561493,310.176654 185.888055,310.192946 C181.750734,306.743976 179.299498,303.476633 178.150514,299.416888 C177.886835,298.485223 178.428345,297.516206 179.360009,297.252528 C180.291674,296.988849 181.260691,297.530359 181.524369,298.462023 C182.672511,302.518789 185.598702,305.798133 191.085185,309.782362 C191.905126,309.631793 192.675558,309.4393 193.389639,309.204393 C195.629129,308.429185 197.703399,307.370262 199.603587,306.098235 C200.724654,305.347768 201.73588,304.557068 202.63289,303.758337 C198.153683,301.902583 194.116389,299.623406 190.520156,296.923409 L190.388382,296.855091 C190.205865,296.750796 190.049207,296.618665 189.920698,296.467098 C182.647465,290.832873 177.229746,283.431132 173.681348,274.270099 C166.911617,275.384473 160.61247,273.609312 154.960798,268.81976 C154.222118,268.193759 154.130773,267.087467 154.756773,266.348787 C155.382773,265.610106 156.489066,265.518761 157.227746,266.144762 C161.912754,270.115107 166.970782,271.647086 172.488022,270.904176 C170.968267,266.209869 169.898224,261.092909 169.27908,255.555015 C169.171498,254.592752 169.864354,253.725471 170.826618,253.617888 Z M195.225879,141.140662 C195.56443,140.23352 196.574265,139.772585 197.481408,140.111136 C198.388551,140.449687 198.849486,141.459521 198.510935,142.366664 C198.474231,142.465012 198.401857,142.66479 198.29891,142.958483 L198.29891,142.958483 L197.965286,143.934138 L197.72162,144.67453 C197.121472,146.52538 196.520736,148.57245 195.96009,150.755047 C194.683264,155.725738 193.807776,160.634544 193.514513,165.197632 C193.249053,169.328112 193.477269,172.999838 194.262709,176.096862 C194.809753,178.313831 195.513112,180.1557 196.644632,182.566401 L196.644632,182.566401 L197.901376,185.212191 L198.241284,185.957218 C198.547922,186.646846 198.818146,187.304577 199.053707,187.94523 C199.370346,187.685004 199.702073,187.409733 200.044472,187.120824 C202.324231,185.197209 204.604106,183.072053 206.727041,180.81182 C208.442286,178.985644 209.961754,177.170978 211.253885,175.38566 C211.32369,175.254283 211.410294,175.133731 211.510037,175.026025 C213.401172,172.35742 214.776046,169.757183 215.529715,167.285504 C210.306557,163.066258 206.727337,156.894804 204.399433,148.747141 C204.133432,147.816137 204.672523,146.845772 205.603527,146.579771 C206.534531,146.31377 207.504896,146.852861 207.770897,147.783865 C209.706875,154.559789 212.518457,159.743327 216.431414,163.423805 C217.800222,156.630674 218.182094,150.239545 217.99508,145.105669 L217.99508,145.105669 L217.983895,144.822841 C217.974811,144.611589 217.966547,144.461882 217.960784,144.377091 L217.960784,144.377091 L217.956833,144.23324 C217.968712,143.329353 218.673334,142.571434 219.591063,142.509064 C220.557093,142.443412 221.393437,143.173312 221.45909,144.139342 L221.45909,144.139342 L221.480545,144.528167 L221.518361,145.577646 C221.686153,151.62434 221.112476,159.1732 219.210835,167.107632 C218.613081,169.601711 217.489706,172.144206 215.919553,174.715361 C221.942972,175.070766 226.590783,174.380698 230.411933,172.361976 C231.268061,171.909682 232.328747,172.237054 232.781041,173.093182 C233.233335,173.94931 232.905963,175.009996 232.049835,175.46229 C227.11427,178.069758 221.251565,178.750729 213.642426,178.06038 C212.361736,179.770151 210.90084,181.489711 209.282832,183.212361 C207.059492,185.579492 204.682643,187.795041 202.305678,189.800677 C201.750701,190.268956 201.221741,190.703592 200.724508,191.102338 L200.724508,191.102338 L200.053653,191.633853 C200.207551,192.548 200.295858,193.487405 200.323906,194.497189 C200.538041,201.649296 199.88317,205.917221 198.084797,211.940741 L198.084797,211.940741 L197.150896,215.049298 C195.682885,220.070892 194.950842,224.006793 194.611834,230.007078 C194.475942,232.561837 194.658324,235.19351 195.132906,237.802913 C195.153427,237.86255 195.169462,237.925212 195.182144,237.989389 C195.196695,238.063029 195.206405,238.136503 195.211494,238.209481 C196.591201,245.344333 200.151504,252.273226 205.355809,256.963526 C208.058287,259.400582 211.361855,261.186581 215.14612,262.391401 C220.740065,264.172379 226.701819,264.539799 231.961575,264.096151 C232.164443,264.079039 232.355337,264.061364 232.533726,264.043442 L232.533726,264.043442 L233.030851,263.989254 L233.377983,263.944774 C234.33576,263.802686 235.227376,264.463933 235.369464,265.421709 C235.511552,266.379486 234.850305,267.271102 233.892528,267.41319 C233.580553,267.459472 233.024178,267.525349 232.256283,267.590119 L232.256283,267.590119 L231.645165,267.638067 C226.121293,268.038979 219.965812,267.605671 214.082385,265.732528 C209.84744,264.384223 206.105791,262.361386 203.007995,259.567837 C197.58419,254.679717 193.796581,247.695617 192.087334,240.376715 C181.622715,242.320933 172.474807,242.853572 164.615938,241.991975 C161.350057,244.645502 156.211225,246.935081 148.988866,249.123674 C148.062219,249.404476 147.083388,248.880915 146.802586,247.954268 C146.521783,247.027621 147.045344,246.04879 147.971992,245.767987 C152.851423,244.289372 156.684875,242.779481 159.50777,241.198425 C156.521886,240.588654 153.753404,239.745017 151.198491,238.66888 C150.826691,238.630258 150.492194,238.475738 150.228685,238.243977 C141.789079,234.411423 135.780047,227.931156 132.127049,218.846727 C131.765808,217.948379 132.20122,216.92728 133.099569,216.566039 C133.997917,216.204798 135.019016,216.64021 135.380257,217.538559 C138.373642,224.982634 143.112618,230.512654 149.728796,234.079195 C149.816916,229.269305 149.464697,224.601768 148.657075,219.998325 C148.489761,219.044632 149.127247,218.135876 150.08094,217.968561 C151.034633,217.801246 151.94339,218.438732 152.110704,219.392426 C153.044781,224.716662 153.397501,230.11792 153.194742,235.696709 C162.625588,239.487988 175.278105,239.935646 191.440395,236.931875 C191.101219,234.545618 190.986326,232.153729 191.110725,229.815062 C191.189971,228.412413 191.290305,227.114218 191.415413,225.885352 L190.807667,225.704427 L189.9149,225.420028 C188.946266,225.10259 187.891065,224.728521 186.768226,224.295964 C183.026044,222.854345 179.283,221.05967 175.778324,218.883892 C171.349851,216.134602 167.621108,212.968308 164.824863,209.345899 C164.112507,208.423075 163.42855,207.508804 162.772388,206.603993 C154.150675,208.11035 146.202471,207.489046 138.936363,204.702046 C138.032324,204.355291 137.580556,203.341323 137.92731,202.437284 C138.274065,201.533245 139.288034,201.081477 140.192072,201.428231 C146.390337,203.805648 153.15993,204.464059 160.543561,203.409507 C158.585844,200.490928 156.926239,197.688644 155.541744,195.035029 C154.731578,193.482211 154.073552,192.088744 153.555044,190.87349 L153.555044,190.87349 L153.46647,190.664488 L153.238392,190.110909 L152.786544,189.925297 C151.86298,189.533482 150.938573,189.062875 150.065371,188.507201 C148.716643,187.64892 147.608185,186.663623 146.829799,185.516527 C145.891121,184.134586 144.804665,182.189779 143.588058,179.763426 C143.112924,178.815837 142.621977,177.802503 142.118111,176.732238 C141.017647,174.394742 139.905549,171.894471 138.837022,169.39476 L138.837022,169.39476 L138.689223,169.048335 L137.818712,166.978743 L137.438781,166.055878 C137.074699,165.158677 137.506878,164.136206 138.404079,163.772124 C139.30128,163.408043 140.323751,163.840221 140.687833,164.737422 L140.687833,164.737422 L140.857511,165.151741 L141.433197,166.534858 L142.061185,168.016558 C143.114363,170.48036 144.209991,172.943602 145.290501,175.238718 C145.782581,176.283944 146.261028,177.27148 146.722481,178.191784 C147.875835,180.491987 148.8957,182.317593 149.730785,183.547024 C150.206325,184.24782 150.970364,184.926966 151.947858,185.549007 C152.451918,185.869773 152.987954,186.160303 153.533104,186.418204 C153.653128,186.018169 153.770837,185.588596 153.884332,185.131992 C154.953407,180.830959 155.216751,176.115361 154.179637,171.374195 C153.487895,168.146066 152.390336,164.859321 150.997799,161.611821 C150.118254,159.560655 149.175447,157.650848 148.23384,155.935821 C148.168177,155.816223 148.103485,155.69935 148.039829,155.585254 L148.039829,155.585254 L147.670836,154.934416 L147.3298,154.352747 L147.0028,153.817428 C146.481694,153.001356 146.720811,151.917359 147.536883,151.396253 C148.352955,150.875147 149.436952,151.114264 149.958058,151.930336 C150.031872,152.045931 150.162092,152.25651 150.340673,152.555718 L150.340673,152.555718 L150.706929,153.180333 C150.89726,153.510418 151.098009,153.866867 151.307436,154.248315 C152.301143,156.058236 153.29365,158.068718 154.220397,160.229963 C155.696911,163.673305 156.864952,167.171114 157.606597,170.6322 C158.769577,175.948681 158.476771,181.191858 157.287163,185.977808 C157.001689,187.126309 156.713231,188.058342 156.468917,188.740492 L156.510901,188.849303 L156.780131,189.497452 C157.263444,190.630218 157.88274,191.941668 158.650443,193.413099 C160.269649,196.516576 162.288626,199.843854 164.746727,203.336078 C164.963265,203.520335 165.134655,203.756289 165.241217,204.030001 C165.987092,205.074072 166.773768,206.132358 167.600476,207.203321 C170.115157,210.460976 173.530995,213.361565 177.627739,215.904911 C180.929249,217.954558 184.478547,219.656338 188.028707,221.023984 C189.271049,221.502577 190.423144,221.904648 191.454281,222.232472 C191.600516,222.278964 191.739819,222.322517 191.87193,222.363152 C192.345595,219.366109 193.022607,216.612454 193.970921,213.437729 L193.970921,213.437729 L194.891061,210.374865 C194.900783,210.341519 194.910467,210.308231 194.920112,210.275 C193.950649,209.802089 192.545966,208.961175 190.838825,207.683929 C187.942146,205.516697 185.055699,202.708785 182.328684,199.18526 C177.882241,200.645869 172.628457,199.361939 166.594809,195.64119 C165.770655,195.132961 165.514547,194.052853 166.022775,193.228699 C166.531003,192.404545 167.611112,192.148437 168.435266,192.656665 C173.10743,195.537833 176.989334,196.677316 180.128002,196.125804 C177.907062,192.808852 175.91757,189.072478 174.205886,184.890754 C172.067672,179.627459 171.30887,175.578579 171.348953,170.328832 C163.932924,166.833646 158.87305,160.638414 155.935797,151.931557 C155.626293,151.014097 156.119138,150.019446 157.036597,149.709942 C157.954057,149.400438 158.948708,149.893283 159.258212,150.810742 C161.71736,158.10036 165.720427,163.30984 171.496692,166.472504 C171.542913,165.755294 171.598281,165.012829 171.662332,164.240437 L171.662332,164.240437 L171.780248,162.80303 L171.876598,161.476855 C171.977741,159.90914 171.739999,157.80668 171.213486,155.326342 C170.897578,153.838139 170.486995,152.255606 170.004402,150.622025 C169.583084,149.195858 169.131115,147.811219 168.679381,146.524108 L168.679381,146.524108 L168.451756,145.88408 L168.084238,144.89152 C167.734474,143.988642 168.182862,142.973174 169.085741,142.62341 C169.98862,142.273646 171.004088,142.722034 171.353851,143.624913 L171.353851,143.624913 L171.749778,144.693399 L171.987903,145.362924 C172.458065,146.702542 172.927992,148.142193 173.36711,149.628614 C173.874007,151.344467 174.307032,153.013498 174.643435,154.59825 C175.230664,157.364614 175.50121,159.757176 175.375699,161.702603 L175.375699,161.702603 L175.367651,161.826424 L175.065263,165.695556 C174.519559,173.105578 174.942966,177.388982 177.452679,183.566753 C179.347808,188.196624 181.594708,192.235236 184.118447,195.724928 L184.118447,195.724928 L184.186787,195.817862 C184.322777,195.954663 184.438333,196.116413 184.525972,196.300455 L184.486648,196.22761 C187.19785,199.882074 190.074586,202.733002 192.939376,204.876376 C193.975695,205.651727 194.932011,206.273861 195.782623,206.756051 C195.799572,206.765658 195.816333,206.775131 195.832907,206.78447 C196.679612,203.0304 196.968578,199.594602 196.818992,194.598337 C196.790619,193.576925 196.689251,192.644587 196.502736,191.724339 C196.375185,191.472737 196.315206,191.200561 196.317342,190.930591 C195.996968,189.674126 195.508329,188.398868 194.823251,186.90849 L194.823251,186.90849 L194.773728,186.801508 C194.496311,186.205408 193.791517,184.732035 193.543339,184.209994 L193.543339,184.209994 L193.1964,183.4653 C192.130261,181.137572 191.422149,179.221369 190.861191,176.947872 C189.978374,173.467049 189.728161,169.441429 190.015357,164.972746 C190.042403,164.551919 190.074074,164.128726 190.110243,163.703339 C185.041736,159.968049 181.34886,154.196209 178.200534,145.988075 C177.85378,145.084037 178.305548,144.070068 179.209587,143.723313 C180.113626,143.376559 181.127594,143.828327 181.474349,144.732366 C184.040561,151.422848 186.930133,156.271746 190.590407,159.571351 C191.049454,156.405741 191.723558,153.154402 192.563968,149.882681 C193.143613,147.626121 193.764616,145.509992 194.386208,143.593006 C194.429838,143.458452 194.472859,143.326784 194.515231,143.198063 L194.515231,143.198063 L194.761349,142.46156 L194.989933,141.798597 Z" id="Combined-Shape" fill="#014D40" fill-rule="nonzero"></path>
                <path d="M313.892526,62.5795784 L314.03631,62.5855032 C315.001349,62.6644057 315.719704,63.5106872 315.640801,64.4757258 C315.017589,72.0980891 313.157862,79.3219082 310.084065,86.1652384 C314.974502,85.8588431 318.513159,84.4319807 320.991329,81.6096204 C321.630188,80.8820318 322.737912,80.8101016 323.4655,81.4489599 C324.193089,82.0878182 324.265019,83.1955423 323.626161,83.9231309 C320.099449,87.9396634 315.084108,89.669 308.352873,89.7328415 C307.363386,91.6322063 306.275945,93.5014055 305.092054,95.3407821 C305.068122,95.4574235 305.031643,95.5737235 304.982115,95.6876395 C304.848812,95.9942359 304.638406,96.2434762 304.383481,96.4225239 C303.188461,98.208563 301.90159,99.967366 300.52306,101.698111 C303.566409,102.392415 307.994939,103.053261 310.787798,103.053261 C311.756057,103.053261 312.540986,103.83819 312.540986,104.806448 C312.540986,105.774707 311.756057,106.559636 310.787798,106.559636 C307.148149,106.559636 301.259215,105.592675 298.027583,104.682025 C286.510594,117.860016 269.489057,129.361445 247.18847,139.365969 C246.305039,139.762295 245.267591,139.367419 244.871264,138.483988 C244.474938,137.600557 244.869815,136.563108 245.753246,136.166782 C271.462109,124.633232 289.85703,111.187498 300.715542,95.5594054 C296.893742,93.1426937 294.434141,88.9923776 293.052832,83.1711468 C292.829284,82.2290476 293.411784,81.2841031 294.353883,81.0605541 C295.295982,80.8370051 296.240927,81.4195052 296.464476,82.3616044 C297.656633,87.3856957 299.648252,90.7485167 302.645802,92.6294321 C308.134812,83.8367424 311.313562,74.3724171 312.146088,64.1899945 C312.22499,63.2249559 313.071272,62.5066007 314.03631,62.5855032 Z M307.771572,19.1515421 C308.656378,18.7582949 309.692444,19.1567822 310.085692,20.0415882 C310.478939,20.9263943 310.080451,21.9624611 309.195645,22.3557083 C309.128604,22.3855045 309.022161,22.4387031 308.878669,22.5173811 L308.878669,22.5173811 L308.494282,22.7382788 L308.171494,22.9359137 C307.257369,23.5085967 306.224278,24.270803 305.098814,25.2465499 C301.829106,28.0812962 298.513152,32.0586297 295.365659,37.3753401 C294.723817,38.4595321 294.049618,39.6932625 293.323372,41.1094802 C298.131325,37.7668382 303.735195,35.3304477 308.295889,34.839296 C309.258581,34.7356214 310.123043,35.431993 310.226717,36.3946854 C310.330392,37.3573778 309.63402,38.221839 308.671328,38.3255135 C302.728804,38.9654777 294.316353,43.6544829 289.550903,49.0141582 L288.648346,51.0166303 L283.432509,62.7523319 C280.292876,69.7345439 277.968987,74.5261108 275.624468,78.6842141 L275.624468,78.6842141 L275.329769,79.2029756 C273.077237,83.1380423 270.980452,86.1048534 268.949165,88.1135346 L268.949165,88.1135346 L268.794971,88.2668991 L268.21421,88.8306381 C265.482739,91.4337199 261.946589,94.1541477 257.788148,96.9420163 C254.27812,99.295181 250.524439,101.564261 246.771543,103.667943 C246.208794,103.983392 245.663184,104.285447 245.137136,104.573288 L245.137136,104.573288 L244.111844,105.129773 L242.862766,105.794795 L241.798691,106.347279 L241.614012,106.433529 C240.778521,106.770026 239.810176,106.41613 239.396273,105.597522 C238.959375,104.733435 239.30568,103.678779 240.169767,103.241881 L240.169767,103.241881 L240.974296,102.825952 L241.969725,102.299658 C242.285766,102.130975 242.61153,101.955666 242.946292,101.773979 L242.946292,101.773979 L243.976848,101.210037 L245.057038,100.609326 C248.734319,98.5480292 252.410813,96.3256091 255.835616,94.02958 C260.048997,91.2048791 263.577497,88.4685339 266.185895,85.9150103 L266.185895,85.9150103 L266.709007,85.3928734 C268.34127,83.7133302 270.1062,81.2166023 272.019457,77.9243346 L272.019457,77.9243346 L272.570152,76.962058 C275.059045,72.547903 277.554688,67.3361487 281.106894,59.3653108 L281.106894,59.3653108 L285.903229,48.5713685 L286.100607,48.1378532 C286.133063,47.7930927 286.267727,47.4544569 286.508587,47.1702424 C286.531201,47.1435578 286.553894,47.1168883 286.576665,47.0902343 L286.937099,46.2983397 L287.71776,44.6129773 C289.317982,41.1907713 290.678555,38.4942727 291.933707,36.3016293 L291.933707,36.3016293 L292.34837,35.5891051 C295.687672,29.9483929 299.246717,25.6794833 302.801919,22.5972214 C304.065172,21.5020154 305.243915,20.6323484 306.309953,19.9644946 C306.827254,19.6404146 307.242587,19.409325 307.542774,19.2598931 L307.542774,19.2598931 Z M249.724186,41.5154171 C250.264174,40.7117143 251.353451,40.4979311 252.157153,41.0379189 C252.960856,41.5779067 253.17464,42.6671832 252.634652,43.470886 L252.634652,43.470886 L252.446177,43.778488 L252.234955,44.157758 L252.064975,44.4807789 C251.596354,45.3907736 251.123622,46.4802579 250.679737,47.7448141 C249.397393,51.3980033 248.624774,55.7013082 248.624774,60.6261206 C248.624774,63.5996459 248.753167,66.0636802 249.021429,69.0483628 C249.121962,69.3268308 249.151761,69.6285417 249.103164,69.925594 L249.106588,69.9653592 C249.523363,74.3225511 249.643637,75.6097084 249.626196,76.8082903 L249.626196,76.8082903 L249.606734,77.4140029 L249.559529,78.2342391 C249.449073,79.9805105 249.126402,81.646179 248.534806,83.4209644 C248.155106,84.5600671 247.617456,85.7619899 246.937963,87.022471 C246.019216,88.7267755 244.856336,90.511374 243.504966,92.3429693 C242.305454,93.9687403 241.023798,95.5431347 239.742122,97.0090784 C239.652351,97.1117556 239.56384,97.2124478 239.476673,97.3110964 L239.476673,97.3110964 L238.970446,97.8779916 L238.500422,98.3930116 L238.015761,98.9098957 C237.343973,99.6071947 236.234109,99.6278754 235.53681,98.9560874 C234.839511,98.2842993 234.81883,97.174435 235.490618,96.477136 L235.490618,96.477136 L236.141684,95.7774489 L236.605098,95.2640352 L237.102392,94.7011586 C238.324316,93.3035585 239.546261,91.8025133 240.683443,90.26122 C241.943587,88.5532698 243.019087,86.9027682 243.85149,85.3586335 C244.440961,84.265147 244.897766,83.2439524 245.208367,82.3121512 C245.703838,80.8257374 245.968715,79.458414 246.060147,78.0128945 C246.148151,76.6215803 246.159512,76.1675869 245.915926,73.4795154 L245.915926,73.4795154 L245.652167,70.6794906 C240.838128,67.8032586 237.314912,63.4627173 235.201119,57.5056643 C234.877324,56.5931503 235.354575,55.5909237 236.267088,55.2671284 C237.179602,54.9433332 238.181829,55.4205839 238.505624,56.3330979 C240.006398,60.5625504 242.271309,63.7965047 245.284726,66.1784505 C245.172989,64.3607187 245.118399,62.6011688 245.118399,60.6261206 C245.118399,55.2947855 245.961218,50.6004811 247.371269,46.5834745 C248.230528,44.1355855 249.106072,42.4354012 249.724186,41.5154171 Z" id="Combined-Shape" fill="#014D40" fill-rule="nonzero"></path>
                <g id="Group" stroke-width="1" fill-rule="evenodd" transform="translate(55.000000, 50.000000)">
                    <g id="Group-16" fill-rule="nonzero">
                        <polygon id="Path" fill="#E2FFE9" points="1.06789696 138.119723 202.633449 138.119723 202.633449 2.11972275 1.06789696 2.11972275"></polygon>
                        <path d="M0,1.48204159 C0,0.66353262 0.66429794,0 1.48375098,0 L202.57743,0 C203.396883,0 204.06118,0.66353262 204.06118,1.48204159 L204.06118,139.514556 L0,139.514556 L0,1.48204159 Z M2.96750196,136.550473 L200.795414,136.550473 L200.795414,2.96408318 L2.96750196,2.96408318 L2.96750196,136.550473 Z" id="Combined-Shape" fill="#014D40"></path>
                    </g>
                    <circle id="Oval" fill="#FFFFFF" cx="102.117647" cy="70.8235294" r="28"></circle>
                    <path d="M74.9467662,42.9983531 C89.8122819,28.1499727 113.914037,28.1499727 128.779553,42.9983531 C143.64506,57.8467425 143.64506,81.920731 128.779553,96.7691205 C113.914037,111.617501 89.8122819,111.617501 74.9467662,96.7691205 C60.0812597,81.920731 60.0812597,57.8467425 74.9467662,42.9983531 Z M87.6383776,52.3935712 C85.8988075,51.7803126 84.1592374,53.2112493 84.4662203,54.9488153 L84.4662203,54.9488153 L90.4012243,89.9045548 C90.6058796,91.6421208 92.7547603,92.3575892 94.1873474,91.2332818 L94.1873474,91.2332818 L119.564606,68.9515531 C120.894865,67.8272457 120.587882,65.6808406 118.95064,65.067582 L118.95064,65.067582 Z" id="Combined-Shape" fill="#014D40" fill-rule="nonzero" transform="translate(101.863160, 69.883737) rotate(10.000000) translate(-101.863160, -69.883737) "></path>
                </g>
                <g id="Group-15" stroke-width="1" fill-rule="evenodd" transform="translate(212.000000, 121.000000)">
                    <g id="Group-14" transform="translate(105.500000, 99.000000) scale(-1, 1) translate(-105.500000, -99.000000) ">
                        <path d="M8.20367604,0.956366562 L9.13704057,1.88403543 L11.7600497,18.0106341 L12.498303,19.1001467 L13.6158549,19.7182405 L39.2692617,15.30565 L40.7354362,16.3318866 L45.8237832,50.0461 C46.5035833,49.7692162 47.1945058,49.5244415 47.9070088,49.3012947 L47.9070088,49.3012947 L48.6421364,43.4073412 L58.8420318,43.4073412 L59.5771594,49.3012947 C61.0474146,49.7617598 62.5176698,50.314318 63.8041431,51.0510622 L63.8041431,51.0510622 L66.8365445,48.7487366 L70.0602031,49.9983666 L72.0915605,34.7594965 C68.5427735,33.9918454 65.5853701,33.0629831 64.1357414,32.1297309 C64.082008,31.265437 64.1155265,30.4926115 64.2487758,29.7581288 C65.1985985,22.2401101 72.6976611,17.0329052 80.9550573,18.1653495 C89.1935779,19.2952052 94.9843432,26.3021954 93.9529932,33.7959263 C93.8941233,34.4372002 93.7601124,35.0833961 93.5601404,35.7246452 L93.4323153,36.1087221 C91.6354477,36.5666576 88.9360891,36.6852342 85.8763194,36.5572175 L79.3682031,80.4743666 L84.5907676,80.4747831 L65.4812043,191.088556 C29.3090009,190.922469 15.0321976,154.898324 15.7406515,82.6744755 L15.7666997,80.4747831 L65.9972031,80.4743666 L66.2242031,78.7703666 L30.907183,78.7710622 L30.907183,66.338504 L34.2152572,61.3654808 C34.49093,60.7208296 34.8584938,59.9840854 35.2260576,59.3394343 L35.2260576,59.3394343 L31.7342015,54.7347831 L37.4282031,49.0273666 L34.3071481,26.9687832 L33.3990866,25.4795562 L31.6179125,24.8566948 L27.3342839,25.4795562 L6.81417176,29.1808855 L5.32978479,28.5804703 L4.17362165,21.0118349 L1.08220305,2.81170429 L3.36641595,1.62271033 L6.81417176,0.956366562 L8.20367604,0.956366562 Z M43.2182031,50.6973666 L43.680025,51.0510622 C43.8189946,50.9767821 43.9579641,50.9043743 44.0970277,50.8337444 L43.7808191,50.9591124 L43.2182031,50.6973666 Z M39.8424846,47.6919264 L39.5292031,47.8703666 L41.0302031,49.0203666 L39.8424846,47.6919264 Z" id="Combined-Shape" fill="#FFFFFF"></path>
                        <path d="M32.1406695,69.6849481 C32.6310334,69.5538969 33.1345569,69.8460515 33.2653206,70.3374938 C34.0534551,73.2994972 31.2780545,75.8773008 27.0697533,77.2515878 L70.808132,77.251588 C68.7547574,76.7886584 66.9151083,76.0427925 65.7083511,75.0674612 C65.3133067,74.7481764 65.2513235,74.168394 65.5699077,73.7724808 C65.8884919,73.3765677 66.4670021,73.3144482 66.8620465,73.633733 C69.4335075,75.7120521 75.9930991,76.6178055 79.7902246,75.4069724 C80.2738342,75.2527582 80.7906181,75.5206481 80.9444939,76.0053211 C81.0983697,76.4899942 80.8310676,77.0079146 80.3474581,77.1621287 C80.2507503,77.192967 80.1526399,77.2226307 80.0532032,77.2511294 L86.5012079,77.2515273 C87.4990105,77.2515273 88.2559513,78.1527634 88.0857252,79.1381005 L88.0857252,79.1381005 L68.4210618,192.965077 C68.2895813,193.726139 67.6378166,194.286709 66.8672668,194.301466 C45.4536128,194.711544 30.9088346,183.435404 22.3676891,161.46866 C14.9186458,142.310665 11.9693087,115.166217 12.5751629,78.8362237 C12.5898291,77.9567688 13.3053823,77.2515273 14.18303,77.2515273 L14.18303,77.2515273 L18.6487834,77.2518398 C18.2703421,76.9212823 18.0100453,76.4969812 17.8895281,75.9724257 L17.8895281,75.9724257 L17.8495188,75.8239394 C17.7619673,75.4388511 17.8257381,75.1289949 17.9977144,74.6119315 C18.1581999,74.1294162 18.6785967,73.8686456 19.1600532,74.0294841 C19.6415097,74.1903225 19.9017081,74.7118637 19.7412226,75.1943789 C19.6660729,75.4203237 19.6582258,75.4675099 19.6493316,75.4407687 L19.6493316,75.4407687 L19.6969476,75.6120398 C19.9927705,76.4091828 22.3935128,76.6130793 25.615065,75.7634488 C29.496179,74.7198845 31.9770386,72.6441534 31.4895557,70.8120724 C31.358792,70.3206301 31.6503056,69.8159994 32.1406695,69.6849481 Z M84.5907676,80.4747831 L15.7666997,80.4747831 L15.7406515,82.6744755 C15.0321976,154.898324 29.3090009,190.922469 65.4812043,191.088556 L65.4812043,191.088556 L84.5907676,80.4747831 Z M67.022161,84.926473 C67.3855787,84.5714574 67.9673524,84.5789165 68.3215889,84.9431333 C68.6758255,85.3073502 68.6683828,85.8904032 68.3049651,86.2454188 L68.3049651,86.2454188 L59.214,95.125 L66.6524898,102.425677 C66.9848501,102.7519 67.0176392,103.269025 66.7472792,103.632837 L66.6660259,103.727998 C66.3109268,104.09137 65.729137,104.097444 65.3665621,103.741564 L65.3665621,103.741564 L57.898,96.411 L45.235,108.78 L58.532,121.766 L63.2549409,117.158729 C63.5882262,116.833455 64.1048485,116.812847 64.4613587,117.092339 L64.5543609,117.176001 C64.9084269,117.540384 64.9007111,118.123434 64.5371273,118.478279 L64.5371273,118.478279 L59.849,123.053 L67.1103104,130.144077 C67.4434789,130.469471 67.4775508,130.986513 67.2080941,131.350997 L67.1270772,131.44636 C66.7728806,131.810616 66.1911077,131.818139 65.827651,131.463164 L65.827651,131.463164 L58.532,124.338 L44.253,138.274 L57.947,151.691 L63.9903866,145.799349 C64.3238286,145.474237 64.8404607,145.453878 65.1968362,145.733543 L65.2897981,145.81725 C65.6436884,146.181805 65.6356917,146.764851 65.2719368,147.119519 L65.2719368,147.119519 L59.261,152.979 L60.7708753,154.457653 C61.1035297,154.783575 61.1367852,155.30067 60.8667535,155.664726 L60.785586,155.759961 C60.4308148,156.123655 59.8490308,156.130256 59.486135,155.774704 L59.486135,155.774704 L57.944,154.263 L44.779,167.1 L53.2348957,175.361867 C53.5680056,175.687322 53.6019843,176.20437 53.332462,176.568805 L53.2514279,176.664154 C52.8971657,177.028346 52.3153914,177.035764 51.9519987,176.680722 L51.9519987,176.680722 L43.461,168.385 L38.1641065,173.550217 C37.8306645,173.87533 37.3140324,173.895688 36.9576569,173.616023 L36.8646949,173.532316 C36.5108046,173.167761 36.5188014,172.584716 36.8825563,172.230047 L36.8825563,172.230047 L42.145,167.099 L33.6656996,158.814676 C33.3325897,158.489221 33.298611,157.972173 33.5681333,157.607738 L33.6491675,157.512389 C34.0034297,157.148197 34.5852039,157.140779 34.9485966,157.495821 L34.9485966,157.495821 L43.462,165.814 L56.63,152.976 L42.936,139.559 L29.4347843,152.736883 C29.101499,153.062157 28.5848767,153.082766 28.2283665,152.803274 L28.1353643,152.719612 C27.7812983,152.355228 27.7890141,151.772179 28.1525979,151.417334 L28.1525979,151.417334 L41.621,138.271 L28.353,125.272 L24.6567638,128.884489 C24.3236309,129.20992 23.8070183,129.230771 23.4503773,128.951447 L23.3573358,128.867828 C23.0030992,128.503611 23.010542,127.920558 23.3739596,127.565543 L23.3739596,127.565543 L27.038,123.984 L22.545973,119.582146 C22.2133186,119.256224 22.1800631,118.739129 22.4500948,118.375073 L22.5312622,118.279838 C22.8860335,117.916144 23.4678175,117.909543 23.8307133,118.265094 L23.8307133,118.265094 L28.355,122.698 L42.603,108.78 L29.113,95.605 L23.8196444,100.621648 C23.4816025,100.941954 22.9647329,100.954915 22.61238,100.670177 L22.5206206,100.585147 C22.1719625,100.215563 22.1882689,99.6326914 22.5570418,99.2832666 L22.5570418,99.2832666 L27.796,94.319 L22.5470135,89.1924663 C22.2138449,88.8670721 22.1797731,88.3500301 22.4492297,87.9855463 L22.5302467,87.8901827 C22.8844433,87.5259268 23.4662162,87.5184035 23.8296728,87.873379 L23.8296728,87.873379 L29.132,93.053 L37.7190486,84.916755 C38.0570905,84.596449 38.5739602,84.5834888 38.9263131,84.8682268 L39.0180724,84.9532563 C39.3667305,85.3228403 39.3504242,85.905712 38.9816512,86.2551368 L38.9816512,86.2551368 L30.449,94.339 L43.919,107.494 L56.585,95.122 L47.5397178,86.2438895 C47.2073574,85.9176662 47.1745684,85.4005408 47.4449284,85.0367296 L47.5261817,84.9415681 C47.8812808,84.5781959 48.4630706,84.5721223 48.8256455,84.9280023 L48.8256455,84.9280023 L57.901,93.836 Z M43.919,110.066 L29.67,123.986 L42.938,136.986 L57.215,123.052 L43.919,110.066 Z M53.7880296,59.6157133 C57.7465273,59.6157133 60.9555237,62.8317665 60.9555237,66.7989691 C60.9555237,70.7661718 57.7465273,73.982225 53.7880296,73.982225 C49.8295319,73.982225 46.6205354,70.7661718 46.6205354,66.7989691 C46.6205354,62.8317665 49.8295319,59.6157133 53.7880296,59.6157133 Z M66.1212534,69.8124808 C66.4398376,69.4165677 67.0183478,69.3544482 67.4133922,69.673733 C69.9848532,71.7520521 76.5444448,72.6578055 80.3415703,71.4469724 C80.8251799,71.2927582 81.3419638,71.5606481 81.4958396,72.0453211 C81.6497154,72.5299942 81.3824133,73.0479146 80.8988038,73.2021287 C76.5423479,74.5913219 69.3396672,73.5967703 66.2596968,71.1074612 C65.8646524,70.7881764 65.8026692,70.208394 66.1212534,69.8124808 Z M30.8541962,63.6989016 C31.3445601,63.5678503 31.8480836,63.860005 31.9788473,64.3514473 C32.8268401,67.538413 29.5494458,70.2806032 24.8005637,71.5574843 C20.5450608,72.6798161 17.1475341,72.356246 16.6030548,69.9863792 L16.6030548,69.9863792 L16.5630455,69.8378929 C16.4754939,69.4528046 16.5392648,69.1429484 16.7112411,68.625885 C16.8717266,68.1433697 17.3921234,67.8825991 17.8735799,68.0434376 C18.3550364,68.204276 18.6152348,68.7258172 18.4547493,69.2083324 C18.3795996,69.4342772 18.3717525,69.4814634 18.3628583,69.4547222 L18.3628583,69.4547222 L18.4104743,69.6259933 C18.7062972,70.4231362 21.1070395,70.6270328 24.3285917,69.7774023 C28.2097057,68.733838 30.6905653,66.6581069 30.2030824,64.8260259 C30.0723187,64.3345836 30.3638322,63.8299529 30.8541962,63.6989016 Z M53.7880296,61.4575738 C50.8445313,61.4575738 48.4583545,63.848998 48.4583545,66.7989691 C48.4583545,69.7489403 50.8445313,72.1403645 53.7880296,72.1403645 C56.7315279,72.1403645 59.1177047,69.7489403 59.1177047,66.7989691 C59.1177047,63.848998 56.7315279,61.4575738 53.7880296,61.4575738 Z M66.6725991,65.8524808 C66.9911833,65.4565677 67.5696935,65.3944482 67.9647379,65.713733 C70.5556808,67.8077979 77.1173902,68.6846164 80.8750246,67.4007877 C81.3553783,67.2366706 81.877533,67.4938874 82.04129,67.9752973 C82.2050469,68.4567073 81.9483945,68.9800103 81.4680409,69.1441274 C77.1392716,70.6230893 69.9173386,69.6580474 66.8110425,67.1474612 C66.4159981,66.8281764 66.3540149,66.248394 66.6725991,65.8524808 Z M29.6596138,57.8049481 C30.1499778,57.6738969 30.6535012,57.9660515 30.784265,58.4574938 C31.6322577,61.6444595 28.3548635,64.3866497 23.6059813,65.6635308 C19.3504785,66.7858626 15.9529517,66.4622926 15.4084725,64.0924257 L15.4084725,64.0924257 L15.3684632,63.9439394 C15.2809116,63.5588511 15.3446824,63.2489949 15.5166587,62.7319315 C15.6771442,62.2494162 16.197541,61.9886456 16.6789975,62.1494841 C17.160454,62.3103225 17.4206524,62.8318637 17.2601669,63.3143789 C17.1850172,63.5403237 17.1771701,63.5875099 17.168276,63.5607687 L17.168276,63.5607687 L17.215892,63.7320398 C17.5117149,64.5291828 19.9124571,64.7330793 23.1340093,63.8834488 C27.0151233,62.8398845 29.495983,60.7641534 29.0085,58.9320724 C28.8777363,58.4406301 29.1692499,57.9359994 29.6596138,57.8049481 Z M67.1320538,61.8003878 C67.450638,61.4044747 68.0291483,61.3423552 68.4241927,61.6616399 C71.0151355,63.7557048 77.576845,64.6325234 81.3344794,63.3486946 C81.814833,63.1845776 82.3369878,63.4417944 82.5007447,63.9232043 C82.6645016,64.4046143 82.4078493,64.9279173 81.9274956,65.0920343 C77.5987264,66.5709963 70.3767933,65.6059544 67.2704973,63.0953681 C66.8754529,62.7760834 66.8134696,62.1963009 67.1320538,61.8003878 Z M6.94304731,0.046381974 C8.45085392,-0.228367546 9.75775655,0.74340217 10.0355791,2.27541775 L10.0355791,2.27541775 L12.6030392,17.8090575 C12.6968889,18.2793378 13.1699938,18.6349467 13.5719611,18.5548466 L13.5719611,18.5548466 L38.2778613,14.4128936 C39.785668,14.1381441 41.0925706,15.1099138 41.3703163,16.6414656 L41.3703163,16.6414656 L46.692,48.735 L47.0677581,48.6052876 L47.7303228,43.2931139 C47.7878039,42.8322539 48.1787089,42.486411 48.6421364,42.486411 L48.6421364,42.486411 L58.8420318,42.486411 C59.3054593,42.486411 59.6963643,42.8322539 59.7538454,43.2931139 L59.7538454,43.2931139 L60.4162447,48.6039614 C61.676942,49.0205116 62.7591083,49.4572118 63.7221395,49.9579605 L63.7221395,49.9579605 L66.2816539,48.0146703 C66.686178,47.7075388 67.2625425,47.7872122 67.5690001,48.1926258 C67.8754577,48.5980394 67.7959591,49.1756713 67.3914351,49.4828028 L67.3914351,49.4828028 L64.3590337,51.7851284 C64.0656121,52.0079064 63.6678497,52.0336914 63.3482364,51.8506535 C62.2516231,51.2226394 60.9441037,50.6942544 59.3030717,50.1803042 C58.9593247,50.072647 58.7100158,49.7736675 58.6653459,49.4155221 L58.6653459,49.4155221 L58.0308349,44.3282715 L49.4533333,44.3282715 L48.8188223,49.4155221 C48.7741524,49.7736675 48.5248435,50.072647 48.1810965,50.1803042 C47.6215857,50.3555358 47.0870429,50.5410467 46.5702085,50.7404682 C46.448796,50.8450144 46.2977035,50.9182325 46.1279594,50.9465068 C46.0942241,50.9521261 46.0606129,50.9558268 46.0272368,50.9576885 C45.368603,51.2312564 44.735708,51.5305141 44.112453,51.8636477 C43.7949029,52.0333802 43.407715,52.0017064 43.1218334,51.7826103 L43.1218334,51.7826103 L39.0744719,48.6807631 L38.2748459,49.4829653 C38.1831581,49.6947171 38.0135515,49.8686607 37.7961032,49.962654 L32.9511446,54.8175559 L35.9576586,58.7821948 C36.1807098,59.0763286 36.2067856,59.4755803 36.0238945,59.7963436 C35.6734579,60.4109563 35.3215493,61.1163212 35.0598683,61.728253 C34.8599543,62.1957446 34.3197468,62.4123028 33.853281,62.2119492 C33.3868151,62.0115957 33.1707321,61.4702002 33.3706461,61.0027086 C33.5856624,60.4999006 33.8522272,59.9470876 34.1326784,59.4196029 L34.1326784,59.4196029 L31.0026005,55.2920226 C30.7245528,54.9253658 30.7595049,54.4092311 31.0844344,54.0835871 L31.0844344,54.0835871 L36.434,48.722 L32.7628466,26.5507412 C32.6762161,26.1166364 32.2664333,25.7802396 31.8877442,25.7940558 L31.7939247,25.8049521 L7.08802446,29.9469052 C5.58021785,30.2216547 4.27331522,29.249885 3.99563728,27.7187412 L3.99563728,27.7187412 L0.0236372993,3.83323708 C-0.166921519,2.44349987 0.814242593,1.13804474 2.26129538,0.874377777 L2.26129538,0.874377777 Z M67.6833995,57.8403878 C68.0019837,57.4444747 68.580494,57.3823552 68.9755384,57.7016399 C71.5664812,59.7957048 78.1281907,60.6725234 81.8858251,59.3886946 C82.3661787,59.2245776 82.8883335,59.4817944 83.0520904,59.9632043 C83.2158473,60.4446143 82.959195,60.9679173 82.4788413,61.1320343 C78.1500721,62.6109963 70.928139,61.6459544 67.821843,59.1353681 C67.4267986,58.8160834 67.3648153,58.2363009 67.6833995,57.8403878 Z M28.4650315,51.9109946 C28.9553954,51.7799434 29.4589189,52.072098 29.5896826,52.5635403 C30.4376754,55.750506 27.1602811,58.4926962 22.411399,59.7695773 C18.1558961,60.8919091 14.7583694,60.5683391 14.2138901,58.1984722 L14.2138901,58.1984722 L14.1738808,58.049986 C14.0863292,57.6648976 14.1501001,57.3550414 14.3220764,56.837978 C14.4825619,56.3554628 15.0029587,56.0946922 15.4844152,56.2555306 C15.9658717,56.416369 16.2260701,56.9379102 16.0655846,57.4204254 C15.9904349,57.6463702 15.9825878,57.6935564 15.9736936,57.6668152 L15.9736936,57.6668152 L16.0213096,57.8380863 C16.3171325,58.6352293 18.7178748,58.8391258 21.939427,57.9894953 C25.820541,56.945931 28.3014006,54.8701999 27.8139177,53.0381189 C27.683154,52.5466767 27.9746675,52.0420459 28.4650315,51.9109946 Z M68.2347452,53.8803878 C68.5533294,53.4844747 69.1318397,53.4223552 69.5268841,53.7416399 C72.1178269,55.8357048 78.6795364,56.7125234 82.4371708,55.4286946 C82.9175244,55.2645776 83.4396792,55.5217944 83.6034361,56.0032043 C83.767193,56.4846143 83.5105407,57.0079173 83.030187,57.1720343 C78.7014178,58.6509963 71.4794847,57.6859544 68.3731887,55.1753681 C67.9781443,54.8560834 67.916161,54.2763009 68.2347452,53.8803878 Z M27.1785582,45.9249481 C27.6689221,45.7938969 28.1724456,46.0860515 28.3032093,46.5774938 C29.1512021,49.7644595 25.8738078,52.5066497 21.1249257,53.7835308 C16.8694228,54.9058626 13.4718961,54.5822926 12.9274168,52.2124257 L12.9274168,52.2124257 L12.8874075,52.0639394 C12.7998559,51.6788511 12.8636268,51.3689949 13.0356031,50.8519315 C13.1960886,50.3694162 13.7164854,50.1086456 14.1979419,50.2694841 C14.6793983,50.4303225 14.9395968,50.9518637 14.7791113,51.4343789 C14.7039616,51.6603237 14.6961145,51.7075099 14.6872203,51.6807687 L14.6872203,51.6807687 L14.7348363,51.8520398 C15.0306592,52.6491828 17.4314015,52.8530793 20.6529537,52.0034488 C24.5340677,50.9598845 27.0149273,48.8841534 26.5274444,47.0520724 C26.3966807,46.5606301 26.6881942,46.0559994 27.1785582,45.9249481 Z M68.7860909,49.9203878 C69.1046751,49.5244747 69.6831854,49.4623552 70.0782298,49.7816399 C72.6691726,51.8757048 79.2308821,52.7525234 82.9885165,51.4686946 C83.4688701,51.3045776 83.9910249,51.5617944 84.1547818,52.0432043 C84.3185387,52.5246143 84.0618864,53.0479173 83.5815327,53.2120343 C79.2527635,54.6909963 72.0308304,53.7259544 68.9245344,51.2153681 C68.52949,50.8960834 68.4675067,50.3163009 68.7860909,49.9203878 Z M8.22494033,2.5906869 C8.12650524,2.04810333 7.75351175,1.77075767 7.26711983,1.85937447 L7.26711983,1.85937447 L2.5853679,2.68737027 C2.07954741,2.77953988 1.76911315,3.21239821 1.85713992,3.65594124 L1.85713992,3.65594124 L5.80613144,27.4026002 C5.90456653,27.9451838 6.27756002,28.2225295 6.77203081,28.1325211 L6.77203081,28.1325211 L31.6137182,23.9682624 C32.9769276,23.7855558 34.2908075,24.8157543 34.5704172,26.2193284 L34.5704172,26.2193284 L38.031,47.12 L38.3438194,46.8082383 C38.6398785,46.5115281 39.0936066,46.4561633 39.4485239,46.6592045 L39.5517783,46.7278861 L43.7754566,49.9648604 C44.1589968,49.7721925 44.5469243,49.5905706 44.9421037,49.4185024 L39.5597544,16.9571985 C39.4613193,16.414615 39.0883258,16.1372693 38.593855,16.2272777 L38.593855,16.2272777 L13.7521676,20.3915363 C12.3889582,20.5742426 11.0750767,19.5440346 10.795423,18.140195 L10.795423,18.140195 Z M69.3374366,45.8682948 C69.6560208,45.4723817 70.2345311,45.4102621 70.6295755,45.7295469 C73.2205183,47.8236118 79.7822278,48.7004304 83.5398622,47.4166016 C84.0202158,47.2524846 84.5423706,47.5097013 84.7061275,47.9911113 C84.8698844,48.4725213 84.6132321,48.9958243 84.1328784,49.1599413 C79.8041092,50.6389033 72.5821761,49.6738614 69.4758801,47.1632751 C69.0808357,46.8439903 69.0188524,46.2642079 69.3374366,45.8682948 Z M21.1736154,37.1449538 L21.2807189,37.1521272 C21.3645311,37.1626268 21.471138,37.1788477 21.5974306,37.2015683 L21.5974306,37.2015683 L21.8753422,37.2559067 L22.2002219,37.3289616 C22.8714907,37.489503 23.5438604,37.7115666 24.1794053,38.0083239 C25.7259219,38.7304445 26.8258319,39.780878 27.2005179,41.2360984 C28.0485107,44.4230642 24.7711164,47.1652543 20.0222343,48.4421355 C15.7365622,49.572424 12.3210745,49.2362367 11.8182925,46.8415263 C11.2986284,44.6280969 14.3288865,42.3672773 18.0157654,41.4978687 C19.9383892,41.0444918 21.5946844,40.9993848 22.9167184,41.2001335 C23.0118043,41.2145721 23.0981901,41.2292815 23.175694,41.2437892 L23.175694,41.2437892 L23.3813776,41.2862347 L23.5326779,41.3246355 C24.0206511,41.464363 24.3032085,41.9740847 24.1637876,42.4631309 C24.0243667,42.9521771 23.5157633,43.2353559 23.0277902,43.0956284 L23.0277902,43.0956284 L22.9057811,43.0673402 L22.6414033,43.0212095 C21.543581,42.854507 20.122632,42.8932046 18.4366982,43.2907673 C15.6343539,43.9515924 13.4163252,45.6064227 13.6119735,46.4408758 C13.7914526,47.2952762 16.2366657,47.5359591 19.5502623,46.6620534 C23.4313763,45.6184891 25.9122359,43.5427581 25.4228762,41.703508 C25.2070841,40.8654747 24.4995523,40.1897694 23.4032548,39.6778712 C22.8905425,39.4384685 22.3326367,39.2542089 21.7736299,39.1205162 C21.6782327,39.0977009 21.5893194,39.0777881 21.5078817,39.0605946 L21.5078817,39.0605946 L21.2869877,39.0169883 L21.0527655,38.9797646 C20.5491848,38.9166786 20.1919811,38.4564067 20.2549287,37.9517186 C20.3178762,37.4470304 20.7771382,37.0890412 21.2807189,37.1521272 Z M69.8887823,41.9082948 C70.2073665,41.5123817 70.7858768,41.4502621 71.1809212,41.7695469 C73.771864,43.8636118 80.3335735,44.7404304 84.0912079,43.4566016 C84.5715615,43.2924846 85.0937163,43.5497013 85.2574732,44.0311113 C85.4212301,44.5125213 85.1645778,45.0358243 84.6842241,45.1999413 C80.3554549,46.6789033 73.1335218,45.7138614 70.0272258,43.2032751 C69.6321814,42.8839903 69.5701981,42.3042079 69.8887823,41.9082948 Z M70.440128,37.9482948 C70.7587122,37.5523817 71.3372225,37.4902621 71.7322669,37.8095469 C74.3232097,39.9036118 80.8849192,40.7804304 84.6425536,39.4966016 C85.1229072,39.3324846 85.645062,39.5897013 85.8088189,40.0711113 C85.9725758,40.5525213 85.7159235,41.0758243 85.2355698,41.2399413 C80.9068006,42.7189033 73.6848675,41.7538614 70.5785715,39.2432751 C70.1835271,38.9239903 70.1215438,38.3442079 70.440128,37.9482948 Z M62.433037,29.477868 C63.5088319,20.950597 71.9714896,15.0742903 81.2042263,16.3404957 C90.4158883,17.603811 96.9487599,25.5087707 95.7784201,34.005137 C95.6827346,35.0599919 95.4041359,36.1514543 94.9813428,37.2107615 C94.8786154,37.4681448 94.6656677,37.6654598 94.4015957,37.747949 C87.5871564,39.8766008 67.0138496,36.7188051 62.6898995,33.3603746 C62.4883348,33.2038184 62.3607494,32.9703571 62.3376617,32.7158346 C62.2295635,31.5241393 62.2537242,30.4587292 62.433037,29.477868 Z M80.0441732,18.0656673 C72.1530421,17.4204205 65.1635431,22.5175798 64.2487758,29.7581288 C64.1155265,30.4926115 64.082008,31.265437 64.1357414,32.1297309 C68.5468318,34.9695339 86.9188656,37.7686885 93.4323153,36.1087221 L93.4323153,36.1087221 L93.5601404,35.7246452 C93.7601124,35.0833961 93.8941233,34.4372002 93.9529932,33.7959263 C94.9458991,26.5815283 89.6158066,19.8182602 81.8659135,18.3159165 L81.5586593,20.636633 C83.9552295,21.1639608 86.2001232,22.3763474 87.8274646,24.1884807 C88.166964,24.5665318 88.1363841,25.1488266 87.7591626,25.4890726 C87.381941,25.8293186 86.8009239,25.7986715 86.4614245,25.4206204 C85.1309359,23.9390488 83.2885443,22.9330136 81.3155177,22.4700283 L80.6121965,27.7806186 C80.5454151,28.2848116 80.0834458,28.6392847 79.5803591,28.5723564 C79.0772724,28.5054281 78.7235771,28.0424429 78.7903586,27.5382499 L78.7903586,27.5382499 L79.497775,22.2006939 C77.4404719,22.070244 75.3673781,22.5259266 73.6829668,23.6393645 C73.2593199,23.9194056 72.6893662,23.8022349 72.4099395,23.3776564 C72.1305129,22.9530779 72.2474264,22.3818708 72.6710733,22.1018297 C74.737723,20.7357228 77.2569069,20.1885857 79.7397551,20.3708954 Z" id="Combined-Shape" fill="#014D40" fill-rule="nonzero"></path>
                        <path d="M99.27405,67.9040854 L84.2958251,67.9040854 C81.0796418,67.9040854 78.5066952,65.3254808 78.5066952,62.102225 L78.5066952,62.102225 C78.5066952,58.8789691 81.0796418,56.3003645 84.2958251,56.3003645 L99.27405,56.3003645 L99.27405,67.9040854 Z" id="Path" fill="#014D40" fill-rule="nonzero"></path>
                        <path d="M163.413933,67.9040854 L178.392158,67.9040854 C181.608341,67.9040854 184.181288,65.3254808 184.181288,62.102225 L184.181288,62.102225 C184.181288,58.8789691 181.608341,56.3003645 178.392158,56.3003645 L163.413933,56.3003645 L163.413933,67.9040854 Z" id="Path" fill="#014D40" fill-rule="nonzero"></path>
                        <path d="M117.217608,92.8489759 C126.195169,83.3224191 134.959119,83.3439467 144.003058,92.8520789 C144.353229,93.2202232 144.934884,93.234169 145.30222,92.8832277 C145.669557,92.5322865 145.683472,91.9493525 145.333301,91.5812082 C135.565634,81.312202 125.584743,81.2876852 115.881489,91.5843112 C115.533028,91.9540815 115.549645,92.5369444 115.918604,92.886172 C116.287563,93.2353995 116.869147,93.2187463 117.217608,92.8489759 Z" id="Path" fill="#000000" fill-rule="nonzero"></path>
                        <path d="M189.9719,195.22269 L73.2448321,195.22269 L73.298138,191.871567 L73.398401,186.531695 L73.5187274,181.030442 C73.5364442,180.272016 73.5548415,179.504032 73.573933,178.726982 C73.8883564,165.929502 74.3280801,153.132432 74.9137293,141.09368 L75.0252536,138.845485 C75.6423063,126.645837 76.3831352,115.929054 77.2582717,107.111037 C80.2866164,76.4015887 90.0962695,56.97246 104.519504,46.4598166 C109.847364,42.5765059 115.532025,40.1336671 121.358149,38.8331265 C125.231514,37.9684919 128.127445,37.7436203 131.619664,37.7436203 C135.111884,37.7436203 138.007815,37.9684919 141.88118,38.8331265 C147.707304,40.1336671 153.391965,42.5765059 158.719825,46.4598166 C172.998827,56.8673335 183.350297,76.9327745 186.482317,107.111037 L187.309727,107.593921 C188.157401,116.135223 187.544994,125.97695 188.142963,137.737541 L188.198677,138.844293 C188.76048,150.116706 189.187452,162.035385 189.513727,174.36028 L189.624758,178.726719 L189.729904,183.219401 C189.76258,184.6805 189.793339,186.123069 189.82355,187.600903 L189.9719,195.22269 Z" id="Path" fill="#FFE100" fill-rule="nonzero"></path>
                        <path d="M189.261117,107.60391 L189.181499,106.79252 C186.0681,75.2214532 175.831205,54.9462246 160.611488,43.8530492 C154.909082,39.6967442 148.818503,37.0794723 142.580405,35.6869685 C138.435815,34.7617897 135.326705,34.5203645 131.619664,34.5203645 C127.912624,34.5203645 124.803514,34.7617897 120.658924,35.6869685 C114.420826,37.0794723 108.330247,39.6967442 102.627841,43.8530492 C87.5602407,54.8353511 77.3763566,74.8170789 74.1533155,105.849269 L74.0577804,106.793023 C73.1768748,115.669168 72.4326642,126.434869 71.8131945,138.682305 C71.2077397,150.652654 70.7500665,163.424802 70.4192674,176.243727 L70.2869822,181.66461 L70.1724766,186.981226 C70.1450391,188.349265 70.1200381,189.676013 70.0973737,190.957843 L70.0973737,197.755248 L71.8131945,197.755248 L178.991299,197.755248 L187.93396,197.755248 L193.188805,197.755248 L193.066422,190.835019 L193.188805,195.226361 L193.026912,186.944037 L192.93208,182.560561 L192.839979,178.647903 L192.721945,174.017195 C192.415248,162.486636 192.020233,151.311241 191.508843,140.684248 L191.298287,136.469617 L191.124166,133.212461 C190.592263,123.556987 189.974162,114.952985 189.261117,107.60391 Z M189.9719,195.22269 L73.2448321,195.22269 L73.298138,191.871567 L73.398401,186.531695 L73.5187274,181.030442 C73.5364442,180.272016 73.5548415,179.504032 73.573933,178.726982 C73.8883564,165.929502 74.3280801,153.132432 74.9137293,141.09368 L75.0252536,138.845485 C75.6423063,126.645837 76.3831352,115.929054 77.2582717,107.111037 C80.2866164,76.4015887 90.0962695,56.97246 104.519504,46.4598166 C109.847364,42.5765059 115.532025,40.1336671 121.358149,38.8331265 C125.231514,37.9684919 128.127445,37.7436203 131.619664,37.7436203 C135.111884,37.7436203 138.007815,37.9684919 141.88118,38.8331265 C147.707304,40.1336671 153.391965,42.5765059 158.719825,46.4598166 C172.998827,56.8673335 182.756058,76.0138978 185.888078,106.19216 L185.981057,107.111037 C186.828731,115.652338 187.544994,125.97695 188.142963,137.737541 L188.198677,138.844293 C188.76048,150.116706 189.187452,162.035385 189.513727,174.36028 L189.624758,178.726719 L189.729904,183.219401 C189.76258,184.6805 189.793339,186.123069 189.82355,187.600903 L189.9719,195.22269 Z" id="Path" fill="#014D40" fill-rule="nonzero"></path>
                        <path d="M187.309727,105.524085 C192.178163,108.559881 194.137855,114.284997 193.188805,122.699434 C192.239754,131.113871 190.280061,135.303348 187.309727,135.267865 C183.003418,124.678104 180.850264,116.985523 180.850264,112.190122 C180.850264,107.394721 183.003418,105.172709 187.309727,105.524085 Z" id="Path-26" fill="#FFE100"></path>
                        <path d="M179.222447,140.980837 L178.06835,118.839545 C178.022019,117.95068 177.265473,117.267754 176.378558,117.314187 C175.491643,117.36062 174.810215,118.11883 174.856546,119.007695 L176.14302,143.688625 C176.201487,144.810319 177.358213,145.529557 178.386974,145.083889 L178.654201,144.963241 L178.96538,144.812941 C179.519427,144.537545 180.247532,144.137216 181.104331,143.60507 C183.084407,142.375273 185.061661,140.850044 186.909571,139.007972 C191.488576,134.443435 194.519162,128.717054 195.245413,121.762061 C196.013954,114.331608 193.98094,108.380263 190.11871,103.852871 C188.961391,102.496236 187.720713,101.370868 186.475452,100.461475 L186.075658,100.176712 C185.500112,99.7773718 185.036319,99.5025756 184.726052,99.3445523 C183.934302,98.9413028 182.966281,99.257656 182.563916,100.051147 C182.182729,100.802875 182.445972,101.713156 183.147939,102.149763 L183.495198,102.345703 L183.588429,102.401407 C183.884137,102.580019 184.218312,102.801341 184.581391,103.066492 C185.632503,103.834102 185.489489,103.901608 186.475452,105.057377 C189.784622,108.936458 192.720519,114.911886 192.046535,121.428149 C191.402924,127.591729 188.724626,132.65245 184.641491,136.722684 C183.129008,138.230388 181.516121,139.505549 179.896228,140.556657 L179.222447,140.980837 Z" id="Path" fill="#014D40" fill-rule="nonzero"></path>
                        <path d="M130.608864,44.2361784 C130.608864,44.2361784 119.398168,44.4203645 119.398168,50.0380389 C119.398168,55.6557133 123.900825,64.4045505 130.608864,64.4045505 C137.316903,64.4045505 141.81956,55.6557133 141.81956,50.0380389 C141.81956,44.4203645 130.608864,44.2361784 130.608864,44.2361784 Z" id="Path" fill="#014D40" fill-rule="nonzero"></path>
                        <path d="M129.2305,59.4315273 L129.2305,84.8492017 C129.2305,85.6121253 129.847614,86.2305971 130.608864,86.2305971 C131.370114,86.2305971 131.987228,85.6121253 131.987228,84.8492017 L131.987228,59.4315273 C131.987228,58.6686037 131.370114,58.0501319 130.608864,58.0501319 C129.847614,58.0501319 129.2305,58.6686037 129.2305,59.4315273 Z" id="Path" fill="#014D40" fill-rule="nonzero"></path>
                        <path d="M117.551638,93.1651421 C126.347776,83.8311026 134.80749,83.8518828 143.670497,93.1697966 C144.195754,93.722013 145.068236,93.7429317 145.619241,93.2165198 C146.170246,92.6901079 146.191118,91.8157069 145.665862,91.2634905 C135.717263,80.8042658 125.432136,80.7790017 115.54746,91.268145 C115.024768,91.8228005 115.049693,92.6970949 115.603131,93.2209362 C116.15657,93.7447774 117.028946,93.7197976 117.551638,93.1651421 Z" id="Path" fill="#014D40" fill-rule="nonzero"></path>
                        <path d="M136.128712,87.7212322 L133.878096,105.524085 L127.260529,105.524085 L125.168468,87.7024623 C128.769424,85.9900321 132.360636,86.0051212 136.128712,87.7212322 Z" id="Path" fill="#FFFFFF" fill-rule="nonzero"></path>
                        <path d="M121.844293,86.9714598 L124.233457,107.324018 C124.328735,108.135655 125.015094,108.747341 125.830535,108.747341 L135.295302,108.747341 C136.105277,108.747341 136.788833,108.1436 136.890641,107.338282 L139.463587,86.985724 C139.54775,86.3199765 139.211476,85.6716352 138.619422,85.3581645 C133.210202,82.4941786 127.859407,82.4685204 122.658119,85.3756176 C122.089522,85.6934175 121.768224,86.3234538 121.844293,86.9714598 Z M136.128712,87.7212322 L133.878096,105.524085 L127.260529,105.524085 L125.168468,87.7024623 C128.769424,85.9900321 132.360636,86.0051212 136.128712,87.7212322 Z" id="Path" fill="#014D40" fill-rule="nonzero"></path>
                        <path d="M164.949479,69.4696352 L162.211259,69.4696352 C157.907729,69.5051354 157.023926,65.8386128 154.664173,61.7350085 C153.819531,60.2661797 153.151254,58.6817599 152.644566,57.0964047 C152.591422,56.9301254 152.541268,56.7675254 152.494041,56.6089882 C153.633003,55.717293 154.94106,55.2460463 156.418213,55.1952482 C158.571855,55.1211862 162.864102,55.1211862 169.294954,55.1952482 C171.089421,57.4830305 173.287621,60.28952 174.854317,63.0370632 L174.31122,64.3654919 C172.581325,67.3076132 168.851225,70.7564434 164.949479,69.4696352 Z" id="Path" fill="#FFFFFF" fill-rule="nonzero"></path>
                        <path d="M169.431467,53.2621073 C169.864645,53.2472106 170.279584,53.4373843 170.551673,53.7755158 C172.966525,56.7765178 175.20604,60.1786164 177.217553,63.9355884 C177.492386,64.4489034 177.41637,65.0798395 177.027524,65.5128414 C173.837772,69.064804 169.761993,71.0324537 164.528111,70.9431072 L164.528111,70.9431072 L164.192002,70.9419915 C158.954205,70.8629822 155.027329,67.8996086 152.275699,63.1145335 C151.324693,61.4607367 150.581832,59.6994864 150.019226,57.9391714 C149.828645,57.3428701 149.680228,56.8182733 149.569854,56.384861 L149.569854,56.384861 L149.472009,55.982565 L149.37942,55.5482142 C149.219566,54.7151462 149.83974,53.9358507 150.685713,53.9067584 L150.685713,53.9067584 Z M168.832617,56.0471179 L165.553419,56.1604181 C166.491308,61.0188627 165.251692,64.4118195 160.89587,67.556751 C162.012209,67.9770272 163.225178,68.1914088 164.539983,68.1805629 L164.539983,68.1805629 L164.930871,68.1828269 C168.811011,68.1612994 171.832457,66.8171247 174.31122,64.3654919 L174.31122,64.3654919 L173.887098,63.6107421 C172.320402,60.8631989 170.627084,58.3349003 168.832617,56.0471179 L168.832617,56.0471179 Z M160.494125,56.3331199 L156.132093,56.4830032 C155.912621,56.8626311 155.786984,57.3035378 155.786984,57.7738529 C155.786984,59.1979769 156.938932,60.3524575 158.359931,60.3524575 C159.78093,60.3524575 160.932878,59.1979769 160.932878,57.7738529 C160.932878,57.2402343 160.771144,56.7444736 160.494125,56.3331199 Z" id="Combined-Shape" fill="#014D40" fill-rule="nonzero"></path>
                        <path d="M89.2963407,66.4641139 C91.7218054,68.742649 94.1187019,69.4476415 97.8511686,69.4696352 L100.239094,69.1201037 C104.357161,69.043112 106.639151,65.740908 108.94272,61.7350085 C109.787361,60.2661797 110.455639,58.6817599 110.962327,57.0964047 C111.015471,56.9301254 111.065624,56.7675254 111.112852,56.6089882 C109.499041,55.4661907 108.033829,54.8721533 106.717217,54.8268761 C104.403034,54.7472933 100.422054,55.1540405 94.7742753,56.0471179 C92.9800456,58.3345979 89.676247,60.2774429 88.1097251,63.024565 L87.4648013,65.5096352 L89.2963407,66.4641139 Z" id="Path" fill="#FFFFFF" fill-rule="nonzero"></path>
                        <path d="M94.1754257,53.2621073 L112.92118,53.9067584 C113.767153,53.9358507 114.387327,54.7151462 114.227473,55.5482142 C114.147937,55.9627112 113.991936,56.6105924 113.746074,57.4285176 L113.587667,57.9391714 C113.025061,59.6994864 112.282199,61.4607367 111.331193,63.1145335 C108.579564,67.8996086 104.652688,70.8629822 99.4479811,70.9418438 L98.7051533,70.9457223 C93.6889825,70.9266397 89.6580063,68.9410716 86.5793692,65.5128414 C86.1905226,65.0798395 86.1145065,64.4489034 86.3893395,63.9355884 C88.4008522,60.1786164 90.6403675,56.7765178 93.05522,53.7755158 C93.3273084,53.4373843 93.7422481,53.2472106 94.1754257,53.2621073 Z M94.7742753,56.0471179 C92.9800456,58.3345979 91.2869383,60.8625306 89.7204164,63.6096527 L89.2963407,64.3642862 L89.5451716,64.6035534 C91.9706362,66.8820885 94.9805871,68.1606364 98.7130538,68.1826301 L99.4048667,68.1788643 C100.613752,68.1562629 101.736303,67.9368391 102.777305,67.5367589 C98.4428634,64.398414 97.2099264,61.010205 98.1447849,56.1634221 L94.7742753,56.0471179 Z M102.765906,57.7738529 C102.765906,59.1979769 103.917853,60.3524575 105.338853,60.3524575 C106.759852,60.3524575 107.911799,59.1979769 107.911799,57.7738529 C107.911799,57.3047733 107.786822,56.8649478 107.568419,56.4859963 L103.202661,56.3360903 C102.926862,56.7468591 102.765906,57.241518 102.765906,57.7738529 Z" id="Combined-Shape" fill="#014D40" fill-rule="nonzero"></path>
                        <path d="M78.0473497,102.070597 L79.0244941,112.984057 L87.4648013,120.483841 L84.2041841,142.128033 C72.4987293,132.214703 67.4752635,124.172922 69.1337867,118.00269 C70.7923099,111.832457 73.7634976,106.52176 78.0473497,102.070597 Z" id="Path-25" fill="#FFE100"></path>
                        <path d="M86.2119062,141.087475 C85.9925854,140.978444 85.767236,140.863289 85.5364456,140.74196 C83.4538096,139.647093 81.3699868,138.286894 79.4308255,136.651626 C74.5883758,132.568055 71.4685923,127.497249 70.8250667,121.334482 C70.1493336,114.801302 71.7820117,109.909821 74.903892,106.350825 C75.8216383,105.304578 76.8032513,104.456744 77.7794927,103.793375 C78.234856,103.48395 78.5976479,103.273179 78.8307668,103.153528 L78.9807127,103.080757 C79.7911345,102.716666 80.1536045,101.76309 79.7903119,100.950886 C79.4270193,100.138682 78.4755358,99.775415 77.6651139,100.139506 C77.2942222,100.306134 76.7066772,100.628074 75.974602,101.125529 C74.7820444,101.935888 73.5948584,102.961278 72.4883925,104.222668 C68.7848742,108.444742 66.8561277,114.223239 67.6261881,121.668394 C68.3653902,128.747421 71.926873,134.536153 77.3601309,139.117944 C79.4898561,140.913912 81.7655545,142.399355 84.0424398,143.596342 L84.5762895,143.871983 L85.0768271,144.12098 C85.9626932,144.55321 86.6702986,144.852425 87.1429246,145.025844 C88.1590766,145.398696 89.2452407,144.679551 89.3016922,143.596532 L90.5881655,118.915602 C90.6289798,118.132581 90.101564,117.433747 89.3386506,117.259976 C85.4791952,116.380898 82.6284972,114.577564 80.6661607,111.66692 C80.1689377,110.929411 79.1693019,110.735508 78.4334117,111.233825 C77.6975216,111.732141 77.5040437,112.733975 78.0012668,113.471484 C80.1328384,116.633147 83.1109206,118.749916 86.8989012,119.938024 L87.3078537,120.061773 L86.2119062,141.087475 Z" id="Path" fill="#014D40" fill-rule="nonzero"></path>
                        <path d="M85.4904074,117.358039 C89.6255002,114.226876 95.41463,113.490132 101.019978,115.147806 C104.328052,116.16083 106.533435,118.739434 106.625326,121.778504 C106.717217,124.08083 105.614526,125.278039 104.236161,126.198969 C103.776707,126.475248 103.776707,127.211992 104.328052,127.396178 C105.522635,128.04083 106.717217,129.145946 106.717217,131.264085 C106.717217,133.566411 105.430744,134.855713 104.236161,135.684551 C103.684816,136.052923 103.684816,136.789667 104.14427,137.158039 C105.338853,138.078969 106.257762,139.276178 106.257762,141.118039 C106.349653,144.249202 104.052379,146.64362 100.744305,147.380364 C99.3659409,147.656644 97.8037947,147.84083 96.1497576,147.84083 C92.1984468,147.84083 87.8795721,146.827806 84.479607,144.157109 C80.8958599,141.210132 79.1499318,136.973853 79.1499318,131.356178 C79.2418228,123.620364 82.641788,119.476178 85.4904074,117.358039 Z" id="Path" fill="#014D40" fill-rule="nonzero"></path>
                        <path d="M59.160833,188.366476 L59.1618126,188.135468 L59.1606737,187.567943 L59.1760251,186.613762 C59.1804488,186.436702 59.1858791,186.250849 59.1924266,186.056537 C59.2364544,184.749905 59.3232256,183.3321 59.4627136,181.833651 C59.844279,177.734693 60.5551785,173.672209 61.6705304,169.893845 C64.9656112,158.731434 71.0223823,152.215248 80.620187,152.215248 C90.3998814,152.215248 99.1205233,159.091672 106.6079,170.680938 C109.270583,174.802348 111.579212,179.228107 113.521044,183.654605 C114.115714,185.010182 114.63772,186.280159 115.086291,187.439237 L115.466645,188.442622 L115.711549,189.116333 L115.852098,189.519349 C116.134764,190.363141 117.046438,190.81752 117.888379,190.534233 C118.730321,190.250945 56.7030263,189.900486 57.5909358,189.880905 C58.4344499,189.862302 59.111944,189.196005 59.160833,188.366476 Z M59.160833,188.366476 L59.1618126,188.135468 L59.1606737,187.567943 L59.1760251,186.613762 C59.1804488,186.436702 59.1858791,186.250849 59.1924266,186.056537 C59.2364544,184.749905 59.3232256,183.3321 59.4627136,181.833651 C59.844279,177.734693 60.5551785,173.672209 61.6705304,169.893845 C64.9656112,158.731434 71.0223823,152.215248 80.620187,152.215248 C90.3998814,152.215248 99.1205233,159.091672 106.6079,170.680938 C109.270583,174.802348 111.579212,179.228107 113.521044,183.654605 C114.115714,185.010182 114.63772,186.280159 115.086291,187.439237 L115.466645,188.442622 L115.711549,189.116333 L115.852098,189.519349 C116.134764,190.363141 117.046438,190.81752 117.888379,190.534233 C118.730321,190.250945 119.183703,189.337266 118.901037,188.493473 L118.823058,188.266651 L118.740966,188.033926 C118.637942,187.744315 118.519022,187.418632 118.384254,187.059265 L118.280207,186.783461 C117.772779,185.446129 117.167578,183.958343 116.465247,182.357345 C114.45864,177.783189 112.072216,173.208294 109.30759,168.929093 C101.288368,156.516615 91.7456839,148.991992 80.620187,148.991992 C69.3128006,148.991992 62.2406522,156.600574 58.5864799,168.979442 C57.4060353,172.978314 56.6600696,177.241185 56.2604359,181.534244 C56.1356212,182.875063 56.0511965,184.154729 56.0005907,185.354569 L55.9780756,185.94775 C55.9573076,186.564091 55.9471365,187.10349 55.9445071,187.557115 L55.9478561,188.305122 C55.9673944,189.194984 56.7030263,189.900486 57.5909358,189.880905 C58.4344499,189.862302 59.111944,189.196005 59.160833,188.366476 Z" id="Path" fill="#FFE100" fill-rule="nonzero"></path>
                        <path d="M59.160833,188.366476 L59.1618126,188.135468 L59.1606737,187.567943 L59.1760251,186.613762 C59.1804488,186.436702 59.1858791,186.250849 59.1924266,186.056537 C59.2364544,184.749905 59.3232256,183.3321 59.4627136,181.833651 C59.844279,177.734693 60.5551785,173.672209 61.6705304,169.893845 C64.9656112,158.731434 71.0223823,152.215248 80.620187,152.215248 C90.3998814,152.215248 99.1205233,159.091672 106.6079,170.680938 C109.270583,174.802348 111.579212,179.228107 113.521044,183.654605 C114.115714,185.010182 114.63772,186.280159 115.086291,187.439237 L115.466645,188.442622 L115.711549,189.116333 L115.852098,189.519349 C116.134764,190.363141 117.046438,190.81752 117.888379,190.534233 C118.730321,190.250945 119.183703,189.337266 118.901037,188.493473 L118.823058,188.266651 L118.740966,188.033926 C118.637942,187.744315 118.519022,187.418632 118.384254,187.059265 L118.280207,186.783461 C117.772779,185.446129 117.167578,183.958343 116.465247,182.357345 C114.45864,177.783189 112.072216,173.208294 109.30759,168.929093 C101.288368,156.516615 91.7456839,148.991992 80.620187,148.991992 C69.3128006,148.991992 62.2406522,156.600574 58.5864799,168.979442 C57.4060353,172.978314 56.6600696,177.241185 56.2604359,181.534244 C56.1356212,182.875063 56.0511965,184.154729 56.0005907,185.354569 L55.9780756,185.94775 C55.9573076,186.564091 55.9471365,187.10349 55.9445071,187.557115 L55.9478561,188.305122 C55.9673944,189.194984 56.7030263,189.900486 57.5909358,189.880905 C58.4344499,189.862302 59.111944,189.196005 59.160833,188.366476 Z" id="Path" fill="#014D40" fill-rule="nonzero"></path>
                        <path d="M51.4449423,197.755248 L120.809545,197.755248 L118.975649,196.040732 L118.838466,195.916273 C118.622907,195.721706 118.368673,195.49665 118.076967,195.243644 L117.428818,194.688453 C116.755584,194.118659 116.007544,193.506011 115.188746,192.859074 C112.072842,190.39718 108.569731,187.936125 104.755498,185.638486 C93.8277945,179.055795 82.5812998,175.100364 71.6148739,175.100364 C63.2738615,175.100364 57.6657554,179.224453 54.3631286,186.024771 C53.2193987,188.379783 52.4380188,190.893706 51.9499164,193.406291 C51.8075954,194.138911 51.6990603,194.828592 51.6195907,195.463734 L51.575359,195.838182 C51.5258006,196.284624 51.5006372,196.608454 51.4918423,196.789547 L51.4449423,197.755248 Z" id="Path" fill="#014D40" fill-rule="nonzero"></path>
                        <path d="M144.569979,190.157574 C156.604243,161.531421 170.513796,148.488604 186.298638,151.029122 C199.311685,153.123529 204.605657,166.566661 202.180553,191.358518 C202.180553,191.358518 200.744715,191.26853 197.87304,191.088556 L144.569979,190.157574 Z" id="Path-24" fill="#FFE100"></path>
                        <path d="M206.456223,188.437151 L206.465777,188.223528 L206.467803,187.557115 L206.457821,186.813451 C206.454176,186.634388 206.449523,186.446284 206.44375,186.249468 L206.434235,185.94775 C206.388134,184.579585 206.297492,183.098533 206.151874,181.534244 C205.752241,177.241185 205.006275,172.978314 203.82583,168.979442 C200.171658,156.600574 193.09951,148.991992 181.792123,148.991992 C170.666626,148.991992 161.123942,156.516615 153.10472,168.929093 C150.340095,173.208294 147.953671,177.783189 145.947063,182.357345 C145.332523,183.758218 144.792349,185.072414 144.326971,186.274981 L144.132104,186.783461 C143.989414,187.159521 143.862561,187.502494 143.751592,187.809992 L143.511274,188.493473 C143.228608,189.337266 143.68199,190.250945 144.523931,190.534233 C145.321559,190.802611 146.181774,190.408927 146.510456,189.649292 L146.560213,189.519349 C146.582217,189.453662 146.629109,189.317754 146.700761,189.116333 L146.945665,188.442622 L147.138272,187.929122 C147.626928,186.641262 148.211644,185.203836 148.891266,183.654605 C150.833098,179.228107 153.141727,174.802348 155.804411,170.680938 C163.291787,159.091672 172.012429,152.215248 181.792123,152.215248 C191.389928,152.215248 197.446699,158.731434 200.74178,169.893845 C201.857132,173.672209 202.568031,177.734693 202.949597,181.833651 C203.069158,183.118036 203.149988,184.343172 203.198369,185.489834 L203.219884,186.056537 C203.246074,186.833787 203.254388,187.475684 203.251916,187.960898 L203.249049,188.234212 C203.229511,189.124074 203.933465,189.861323 204.821374,189.880905 C205.664889,189.899507 206.370972,189.263722 206.456223,188.437151 Z" id="Path" fill="#014D40" fill-rule="nonzero"></path>
                        <path d="M141.602765,197.755248 L143.305865,196.161252 L143.742746,195.764671 L144.335344,195.243644 L144.983493,194.688453 C145.656727,194.118659 146.404766,193.506011 147.223565,192.859074 C150.339468,190.39718 153.84258,187.936125 157.656813,185.638486 C168.584516,179.055795 179.831011,175.100364 190.797436,175.100364 C199.138449,175.100364 204.746555,179.224453 208.049182,186.024771 C209.192912,188.379783 209.974292,190.893706 210.462394,193.406291 C210.604715,194.138911 210.71325,194.828592 210.79272,195.463734 L210.856721,196.021949 L210.899509,196.479646 C210.90298,196.522467 210.906047,196.56255 210.908734,196.599838 L210.967368,197.755248 L141.602765,197.755248 Z" id="Path" fill="#014D40" fill-rule="nonzero"></path>
                        <path d="M191.532564,117.358039 C187.397471,114.226876 181.608341,113.490132 176.002993,115.147806 C172.694919,116.16083 170.489536,118.739434 170.397645,121.778504 C170.305755,124.08083 171.408446,125.278039 172.78681,126.198969 C173.246265,126.475248 173.246265,127.211992 172.694919,127.396178 C171.500337,128.04083 170.305755,129.145946 170.305755,131.264085 C170.305755,133.566411 171.592228,134.855713 172.78681,135.684551 C173.338156,136.052923 173.338156,136.789667 172.878701,137.158039 C171.684119,138.078969 170.765209,139.276178 170.765209,141.118039 C170.673318,144.249202 172.970592,146.64362 176.278666,147.380364 C177.657031,147.656644 179.219177,147.84083 180.873214,147.84083 C184.824525,147.84083 189.143399,146.827806 192.543364,144.157109 C196.127112,141.210132 197.87304,136.973853 197.87304,131.356178 C197.781149,123.620364 194.381183,119.476178 191.532564,117.358039 Z" id="Path" fill="#014D40" fill-rule="nonzero"></path>
                    </g>
                </g>
            </g>
        </g>
    </g>
</svg>