<?xml version="1.0" encoding="UTF-8"?>
<svg width="50px" height="45px" viewBox="0 0 50 45" version="1.1" xmlns="http://www.w3.org/2000/svg" xmlns:xlink="http://www.w3.org/1999/xlink">
    <!-- Generator: sketchtool 59 (101010) - https://sketch.com -->
    <title>E968B0E8-23D7-4588-B4BF-703CAF090B0C@1.00x</title>
    <desc>Created with sketchtool.</desc>
    <defs>
        <path d="M45.6257813,26.2484375 C42.2585938,26.2484375 39.3296875,24.4578125 37.6765625,21.7914063 L23.615625,28.0375 C23.6789063,28.478125 23.75,28.915625 23.75,29.3734375 C23.75,30.0601563 23.6671875,30.7226563 23.5273438,31.3671875 L37.371875,37.515625 C38.9453125,34.5453125 42.0304688,32.4984375 45.625,32.4984375 C50.8023437,32.4984375 55,36.6960938 55,41.8734375 C55,47.0515625 50.8023437,51.25 45.625,51.25 C40.4476563,51.25 36.25,47.0515625 36.25,41.8734375 C36.25,41.415625 36.321875,40.9773438 36.3851562,40.5367188 L22.3242188,34.2921875 C20.671875,36.9578125 17.7421875,38.75 14.375,38.75 C9.19765625,38.75 5,34.5507813 5,29.3734375 C5,24.1960938 9.19765625,19.9976563 14.375,19.9976563 C17.9703125,19.9976563 21.0554687,22.0453125 22.628125,25.015625 L36.4726562,18.865625 C36.3328125,18.2234375 36.25,17.5585938 36.25,16.8726563 C36.25,11.6976563 40.4476562,7.5 45.625,7.5 C50.8023437,7.5 55,11.6976562 55,16.8726563 C55.0007813,22.0523438 50.803125,26.2484375 45.6257813,26.2484375 L45.6257813,26.2484375 Z" id="path-1"></path>
        <linearGradient x1="7.6875%" y1="-12.1523438%" x2="100%" y2="116.397135%" id="linearGradient-3">
            <stop stop-color="#D4A89D" offset="0%"></stop>
            <stop stop-color="#E6B996" offset="100%"></stop>
        </linearGradient>
        <rect id="path-4" x="0" y="0" width="60" height="60"></rect>
    </defs>
    <g id="Business-LP" stroke="none" stroke-width="1" fill="none" fill-rule="evenodd">
        <g id="Features" transform="translate(-722.000000, -2181.000000)">
            <g id="Icon/sm/share-" transform="translate(717.000000, 2174.000000)">
                <mask id="mask-2" fill="white">
                    <use xlink:href="#path-1"></use>
                </mask>
                <use id="share" fill="#000000" fill-rule="evenodd" xlink:href="#path-1"></use>
                <g id="UI/Color/Flat/-Primary" mask="url(#mask-2)" fill-rule="evenodd">
                    <g id="Fill">
                        <use fill="url(#linearGradient-3)" xlink:href="#path-4"></use>
                        <use fill="#487BF9" xlink:href="#path-4"></use>
                        <use fill="#06B632" xlink:href="#path-4"></use>
                    </g>
                </g>
            </g>
        </g>
    </g>
</svg>