<?xml version="1.0" encoding="UTF-8"?>
<svg width="50px" height="38px" viewBox="0 0 50 38" version="1.1" xmlns="http://www.w3.org/2000/svg" xmlns:xlink="http://www.w3.org/1999/xlink">
    <!-- Generator: sketchtool 59 (101010) - https://sketch.com -->
    <title>8296D13F-5AA4-41B0-BAB4-463ACA24091B@1.00x</title>
    <desc>Created with sketchtool.</desc>
    <defs>
        <path d="M33.8330357,10.1097768 C34.0416295,9.99160347 34.2559152,9.96883921 34.4738839,10.041484 L34.4738839,10.041484 L36.1654018,10.5051386 C36.4017857,10.5777833 36.5789062,10.7187209 36.6970982,10.9279513 C36.8152902,11.1371817 36.838058,11.3601376 36.7654018,11.5964843 L36.7654018,11.5964843 L26.5901786,46.808453 C26.5175223,47.0444649 26.3765625,47.2215575 26.1672991,47.3400656 C25.9580357,47.4585737 25.7444196,47.481338 25.5261161,47.4080236 L25.5261161,47.4080236 L23.834933,46.9443691 C23.5982143,46.8717243 23.4210937,46.7307867 23.3029018,46.5215563 C23.1847098,46.3126607 23.161942,46.0897048 23.2345982,45.8533581 L23.2345982,45.8533581 L33.4098214,10.6417242 C33.4824777,10.4053775 33.6237723,10.2279501 33.8330357,10.1097768 Z M41.3881696,15.1149814 C41.6242188,15.1149814 41.8334821,15.2060384 42.0152902,15.3878178 L42.0152902,15.3878178 L54.7274554,28.0976436 C54.9092634,28.279423 55,28.4886533 55,28.725 C55,28.9613467 54.9092634,29.1709118 54.7274554,29.3526912 L54.7274554,29.3526912 L42.0152902,42.062517 C41.8334821,42.2442963 41.6242188,42.3350186 41.3881696,42.3350186 C41.1514509,42.3350186 40.9428571,42.2446311 40.7603795,42.062517 L40.7603795,42.062517 L39.3969866,40.6993391 C39.2151786,40.5175597 39.124442,40.3083293 39.124442,40.0716479 C39.124442,39.835636 39.2151786,39.6264056 39.3969866,39.4446263 L39.3969866,39.4446263 L50.1176339,28.7253348 L39.3969866,18.006378 C39.2151786,17.8245987 39.124442,17.615703 39.124442,17.3790216 C39.124442,17.1423402 39.2151786,16.9334446 39.3969866,16.7516652 L39.3969866,16.7516652 L40.7603795,15.3878178 C40.9428571,15.2060384 41.1514509,15.1149814 41.3881696,15.1149814 Z M18.6121652,15.1151488 C18.8485491,15.1151488 19.0578125,15.2062058 19.2396205,15.3879852 L19.2396205,15.3879852 L20.603683,16.7518326 C20.7854911,16.933612 20.8765625,17.1428424 20.8765625,17.379189 C20.8765625,17.6155357 20.7858259,17.824766 20.603683,18.0065454 L20.603683,18.0065454 L9.88303571,28.7251674 L20.603683,39.4444589 C20.7854911,39.6262383 20.8765625,39.8354687 20.8765625,40.0714805 C20.8765625,40.308162 20.7854911,40.5173923 20.603683,40.6991717 L20.603683,40.6991717 L19.2396205,42.0623496 C19.0578125,42.2441289 18.8488839,42.3348512 18.6121652,42.3348512 C18.3754464,42.3348512 18.1665179,42.2444637 17.9847098,42.0623496 L17.9847098,42.0623496 L5.27287946,29.3525238 C5.09107143,29.1707444 5,28.961514 5,28.7251674 C5,28.4888207 5.09073661,28.2795903 5.27287946,28.097811 L5.27287946,28.097811 L17.9847098,15.3879852 C18.1665179,15.2062058 18.3757812,15.1151488 18.6121652,15.1151488 Z" id="path-1"></path>
        <linearGradient x1="7.6875%" y1="-12.1523438%" x2="100%" y2="116.397135%" id="linearGradient-3">
            <stop stop-color="#D4A89D" offset="0%"></stop>
            <stop stop-color="#E6B996" offset="100%"></stop>
        </linearGradient>
        <rect id="path-4" x="0" y="0" width="50" height="50"></rect>
    </defs>
    <g id="Business-LP" stroke="none" stroke-width="1" fill="none" fill-rule="evenodd">
        <g id="Features" transform="translate(-1112.000000, -2184.000000)">
            <g id="Icon/sm/embed-" transform="translate(1107.000000, 2174.000000)">
                <mask id="mask-2" fill="white">
                    <use xlink:href="#path-1"></use>
                </mask>
                <use id="embed_code" fill="#000000" fill-rule="evenodd" xlink:href="#path-1"></use>
                <g id="UI/Color/Flat/-Primary" mask="url(#mask-2)" fill-rule="evenodd">
                    <g transform="translate(5.000000, 5.000000)" id="Fill">
                        <g>
                            <use fill="url(#linearGradient-3)" xlink:href="#path-4"></use>
                            <use fill="#487BF9" xlink:href="#path-4"></use>
                            <use fill="#06B632" xlink:href="#path-4"></use>
                        </g>
                    </g>
                </g>
            </g>
        </g>
    </g>
</svg>